<svg height="512" viewBox="0 0 256 256" width="512" xmlns="http://www.w3.org/2000/svg"><g id="Layer_22"><g><g><path d="m145.944 247.767v-1.729c0-3.166 2.567-5.733 5.733-5.733h22.431v-20.299h-37.552c-6.698 0-12.179-5.481-12.179-12.179v-73.075c0-.465.032-.922.083-1.373-4.73 2.127-9.961 3.318-15.46 3.318-6.306 0-12.261-1.565-17.511-4.313v6.186c0 5-2.839 9.566-7.324 11.777-6.059 2.988-11.348 5.375-19.373 7.394l-20.578 5.179c-6.365 1.602-10.95 7.158-11.315 13.711l-4.202 72.465c-.133 2.39 1.769 4.402 4.163 4.402h118.816c-3.165.002-5.732-2.565-5.732-5.731z" fill="#70d6f9"/></g><g><path d="m136.556 122.575h1.947c5.31-6.539 8.506-14.855 8.506-23.884v-31.9c0-5.05-1.944-9.907-5.43-13.562-2.485-2.607-6.526-2.846-9.359-.623-4.479 3.516-12.23 7.862-23.177 7.862-10.974 0-18.766-4.367-23.264-7.888-2.831-2.215-6.863-1.967-9.344.634l-.013.014c-3.485 3.655-5.43 8.512-5.43 13.562v31.9c0 20.905 17.104 38.009 38.009 38.009 5.499 0 10.73-1.193 15.46-3.318.688-6.058 5.861-10.806 12.095-10.806z" fill="#f9d0b4"/></g><g><path d="m149.448 69.723c-.83 0-1.644.07-2.439.193v28.774c0 .857-.039 1.705-.096 2.549.827.133 1.67.221 2.535.221 8.764 0 15.869-7.105 15.869-15.869s-7.105-15.868-15.869-15.868z" fill="#f9d0b4"/></g><g><path d="m70.991 98.69c0-3.938 0-20.945 0-28.774-.796-.123-1.609-.193-2.439-.193-8.764 0-15.869 7.105-15.869 15.869s7.105 15.869 15.869 15.869c.865 0 1.707-.088 2.535-.221v-.001c-.057-.844-.096-1.692-.096-2.549z" fill="#f9d0b4"/></g><g><path d="m146.867 37.301c-1.273 0-2.376-.982-2.394-2.254-.291-21.18-24.477-25.158-48.563-20.999-20.421 3.526-35.346 21.235-35.346 41.958v15.891c2.348-1.373 5.072-2.173 7.988-2.173.83 0 1.643.07 2.439.193v-3.125c0-5.05 1.944-9.907 5.43-13.562l.013-.014c2.481-2.601 6.513-2.85 9.344-.634 4.498 3.521 12.29 7.888 23.264 7.888 10.947 0 18.698-4.346 23.178-7.862 2.833-2.224 6.874-1.984 9.359.623 3.485 3.655 5.43 8.512 5.43 13.562v3.125c.796-.123 1.609-.193 2.439-.193 2.951 0 5.705.82 8.072 2.224 0-4.435 0-8.99 0-13.047 0-18.967-6.849-21.601-10.653-21.601z" fill="#5b5d60"/></g><g><path d="m93.883 178.197c1.323 1.323 3.467 1.323 4.79 0l6.524-6.524c1.323-1.323 1.323-3.467 0-4.79l-18.325-18.325c-.816.695-1.718 1.303-2.707 1.79-4.211 2.076-8.051 3.862-12.695 5.436z" fill="#9be5f9"/></g><g><path d="m120.327 178.197c1.099 1.099 2.759 1.271 4.05.544v-22.431l-10.574 10.574c-1.323 1.323-1.323 3.467 0 4.79z" fill="#9be5f9"/></g><g><path d="m57.24 210.5h-26.304l-2.238 38.598c-.133 2.39 1.769 4.402 4.163 4.402h24.379z" fill="#f9d0b4"/></g><g><path d="m113.803 166.883 10.574-10.574v-21.556c0-.465.032-.922.083-1.373-4.73 2.127-9.961 3.318-15.46 3.318-6.306 0-12.261-1.565-17.511-4.313v6.186c0 3.898-1.731 7.527-4.617 9.987l18.325 18.325c.65.65.976 1.497.988 2.349.931.065 1.868.108 2.815.108 1.29 0 2.564-.067 3.823-.188.031-.824.351-1.64.98-2.269z" fill="#f9d0b4"/></g><g><path d="m215.823 253.5h-64.146c-3.166 0-5.733-2.567-5.733-5.733v-1.729c0-3.166 2.567-5.733 5.733-5.733h64.146c3.166 0 5.733 2.567 5.733 5.733v1.729c0 3.166-2.567 5.733-5.733 5.733z" fill="#edf4fc"/></g><g><path d="m230.944 122.575h-94.388c-6.698 0-12.179 5.481-12.179 12.179v73.075c0 6.698 5.481 12.179 12.179 12.179h37.552v-28.64c0-2.68 2.173-4.853 4.852-4.853h9.579c2.68 0 4.852 2.173 4.852 4.853v28.64h37.552c6.698 0 12.179-5.481 12.179-12.179v-73.075c.001-6.699-5.479-12.179-12.178-12.179z" fill="#5290db"/></g><g><path d="m193.392 240.306v-48.939c0-2.68-2.173-4.853-4.852-4.853h-9.579c-2.68 0-4.852 2.173-4.852 4.853v48.939z" fill="#c7d7e5"/></g><g><path d="m240.56 104.711h-55.12c-3.833 0-6.94-3.107-6.94-6.94v-34.12c0-3.833 3.107-6.94 6.94-6.94h55.119c3.833 0 6.94 3.107 6.94 6.94v34.119c.001 3.833-3.106 6.941-6.939 6.941z" fill="#fc657e"/></g><g><path d="m151.677 256h-118.816c-1.825 0-3.591-.761-4.846-2.087-1.254-1.326-1.915-3.131-1.813-4.954l4.203-72.47c.428-7.683 5.733-14.111 13.2-15.991l20.578-5.18c8.028-2.021 13.299-4.461 18.878-7.212 3.657-1.804 5.929-5.457 5.929-9.535v-6.186c0-.875.457-1.686 1.206-2.139.748-.453 1.678-.482 2.454-.076 5.105 2.673 10.607 4.028 16.351 4.028 5.006 0 9.863-1.042 14.436-3.098.819-.369 1.774-.269 2.499.261.726.53 1.111 1.409 1.01 2.301-.045.4-.067.757-.067 1.091v73.074c0 5.337 4.342 9.679 9.679 9.679h37.552c1.381 0 2.5 1.119 2.5 2.5v20.299c0 1.381-1.119 2.5-2.5 2.5h-22.432c-1.783 0-3.233 1.45-3.233 3.232v1.729c0 1.783 1.45 3.233 3.233 3.233 1.381 0 2.5 1.119 2.5 2.5s-1.12 2.501-2.501 2.501zm-57.688-119.713v2.285c0 5.996-3.34 11.367-8.718 14.019-5.839 2.879-11.365 5.436-19.868 7.576l-20.578 5.18c-5.334 1.343-9.123 5.935-9.429 11.426l-4.203 72.47c-.025.458.136.898.455 1.234.318.337.749.522 1.213.522h111.244c-.425-.993-.661-2.086-.661-3.233v-1.729c0-4.54 3.693-8.232 8.233-8.232h19.932v-15.299h-35.052c-8.094 0-14.679-6.585-14.679-14.679v-70.746c-4.143 1.406-8.459 2.117-12.877 2.117-5.128.001-10.248-.998-15.012-2.911z"/></g><g><path d="m57.24 255.071c-1.381 0-2.5-1.119-2.5-2.5v-63.143c0-1.381 1.119-2.5 2.5-2.5s2.5 1.119 2.5 2.5v63.143c0 1.381-1.119 2.5-2.5 2.5z"/></g><g><path d="m109.553 115.642c-4.863 0-9.429-1.984-12.214-5.307-.887-1.059-.748-2.635.31-3.522 1.059-.887 2.635-.747 3.522.31 1.847 2.204 4.98 3.519 8.382 3.519 3.401 0 6.535-1.315 8.382-3.519.887-1.058 2.463-1.198 3.521-.31 1.058.887 1.197 2.464.31 3.521-2.786 3.324-7.351 5.308-12.213 5.308z"/></g><g><circle cx="126.7" cy="87.346" r="5.107"/></g><g><circle cx="92.405" cy="87.346" r="5.107"/></g><g><path d="m200.59 94.732c-.64 0-1.28-.244-1.768-.732l-11.521-11.521c-.977-.976-.977-2.559 0-3.535l11.521-11.521c.976-.977 2.56-.977 3.535 0 .977.976.977 2.559 0 3.535l-9.753 9.754 9.753 9.754c.977.976.977 2.559 0 3.535-.487.487-1.127.731-1.767.731z"/></g><g><path d="m225.41 94.732c-.64 0-1.28-.244-1.768-.732-.977-.976-.977-2.559 0-3.535l9.753-9.754-9.753-9.754c-.977-.976-.977-2.559 0-3.535.976-.977 2.56-.977 3.535 0l11.521 11.521c.977.976.977 2.559 0 3.535l-11.521 11.522c-.488.488-1.128.732-1.767.732z"/></g><g><path d="m209.001 96.211c-.244 0-.491-.036-.736-.111-1.319-.406-2.06-1.805-1.654-3.125l8-26c.406-1.32 1.804-2.061 3.125-1.654 1.319.406 2.06 1.805 1.654 3.125l-8 26c-.331 1.075-1.321 1.765-2.389 1.765z"/></g><g><path d="m50.013 29.2c-3.1-.6-5.6-3-6.2-6.1 0-.1-.3-.1-.3 0-.6 3.1-3.1 5.5-6.2 6.1-.1 0-.1.2 0 .3 3.1.6 5.6 3 6.2 6.1 0 .1.3.1.3 0 .6-3.1 3.1-5.5 6.2-6.1.1-.1.1-.3 0-.3z" fill="#70d6f9"/></g><g><path d="m9.205 86.5h2.3v2.3c0 1.8 1.4 3.2 3.2 3.2 1.7 0 3.2-1.4 3.2-3.1v-.1-2.3h2.3c1.8 0 3.2-1.4 3.2-3.2 0-1.7-1.4-3.2-3.1-3.2h-.1-2.3v-2.3c0-1.8-1.4-3.2-3.2-3.2-1.7 0-3.2 1.4-3.2 3.1v.1 2.3h-2.3c-1.8 0-3.2 1.4-3.2 3.2-.1 1.7 1.3 3.2 3.2 3.2-.1 0-.1 0 0 0z" fill="#fc657e"/></g><g><circle cx="23.4" cy="139.9" fill="#f5c84c" r="3.4"/></g><g><circle cx="167.413" cy="3.4" fill="#87d147" r="3.4"/></g><g><path d="m201.813 30.2c4.5-.8 8-4.3 8.9-8.7 0-.2.4-.2.4 0 .9 4.4 4.4 7.9 8.9 8.7.2 0 .2.3 0 .4-4.5.8-8 4.3-8.9 8.7 0 .2-.4.2-.4 0-.9-4.4-4.4-7.9-8.9-8.7-.2-.1-.2-.4 0-.4z" fill="#f5c84c"/></g><g><path d="m109 139.199c-22.336 0-40.509-18.172-40.509-40.509v-31.899c0-5.719 2.174-11.148 6.121-15.287 3.378-3.543 8.836-3.921 12.707-.892 4.288 3.356 11.538 7.356 21.723 7.356 10.164 0 17.375-3.985 21.634-7.329 3.876-3.042 9.342-2.671 12.712.864 3.947 4.139 6.121 9.568 6.121 15.287v31.9c0 9.219-3.219 18.261-9.064 25.46-.475.585-1.188.924-1.941.924h-1.947c-4.923 0-9.055 3.692-9.612 8.588-.1.877-.654 1.637-1.459 1.998-5.227 2.349-10.773 3.539-16.486 3.539zm-27.564-85.624c-1.172 0-2.33.461-3.192 1.365-3.069 3.219-4.752 7.422-4.752 11.851v31.899c0 19.58 15.929 35.509 35.509 35.509 4.562 0 9.002-.867 13.22-2.579 1.453-6.677 7.373-11.545 14.336-11.545h.731c4.665-6.151 7.221-13.699 7.221-21.385v-31.899c0-4.428-1.683-8.632-4.739-11.837-1.585-1.661-4.167-1.826-6.007-.381-4.879 3.83-13.129 8.396-24.721 8.396-11.61 0-19.897-4.578-24.805-8.419-.835-.654-1.823-.975-2.801-.975zm43.024 79.806h.01z"/></g><g><path d="m149.448 103.96c-.917 0-1.876-.083-2.933-.253-1.274-.206-2.183-1.348-2.096-2.636.061-.916.09-1.672.09-2.381v-28.774c0-1.232.898-2.281 2.116-2.47.953-.148 1.902-.223 2.823-.223 10.129 0 18.369 8.24 18.369 18.369 0 10.128-8.24 18.368-18.369 18.368zm.061-31.737v26.467c0 .089 0 .179-.001.27 7.344-.032 13.309-6.017 13.309-13.369 0-7.351-5.964-13.336-13.308-13.368z"/></g><g><path d="m68.552 103.96c-10.129 0-18.369-8.24-18.369-18.369 0-10.128 8.24-18.369 18.369-18.369.92 0 1.87.075 2.823.223 1.218.189 2.116 1.238 2.116 2.47v28.775c0 .709.029 1.465.09 2.38.087 1.287-.82 2.429-2.094 2.635-1.054.172-2.014.255-2.935.255zm-.061-31.737c-7.344.033-13.308 6.018-13.308 13.369 0 7.352 5.965 13.337 13.309 13.369 0-.091-.001-.181-.001-.27z"/></g><g><path d="m157.52 74.446c-.441 0-.882-.117-1.275-.35-2.068-1.226-4.418-1.874-6.797-1.874-.664 0-1.355.055-2.055.164-.722.112-1.457-.097-2.01-.572-.554-.475-.874-1.168-.874-1.898v-3.125c0-4.428-1.683-8.632-4.739-11.837-1.584-1.661-4.167-1.826-6.006-.381-4.879 3.83-13.129 8.396-24.721 8.396-11.61 0-19.897-4.578-24.805-8.419-1.835-1.436-4.412-1.268-5.994.391-3.069 3.219-4.752 7.423-4.752 11.851v3.125c0 .73-.319 1.424-.874 1.898-.554.475-1.29.684-2.01.572-.7-.108-1.391-.164-2.055-.164-2.352 0-4.678.633-6.727 1.831-.774.451-1.73.456-2.506.01-.777-.446-1.256-1.273-1.256-2.168v-15.891c0-21.995 15.738-40.677 37.421-44.421 19.096-3.297 34.99-1.083 43.61 6.075 5.078 4.217 7.726 9.983 7.874 17.142 4.924.044 13.051 3.276 13.051 24.098v13.047c0 .898-.482 1.728-1.263 2.172-.383.219-.81.328-1.237.328zm-8.011-7.223c1.874.006 3.733.304 5.511.875v-9.198c0-12.137-2.972-19.099-8.153-19.099-2.662 0-4.857-2.118-4.894-4.72-.079-5.727-2.122-10.294-6.072-13.575-7.493-6.222-21.915-8.042-39.565-4.995-19.279 3.329-33.272 19.939-33.272 39.494v12.065c1.753-.553 3.583-.841 5.427-.847v-.431c0-5.719 2.173-11.148 6.121-15.288 3.378-3.543 8.836-3.921 12.707-.892 4.288 3.356 11.538 7.356 21.723 7.356 10.164 0 17.375-3.985 21.634-7.329 3.876-3.042 9.342-2.671 12.712.864 3.947 4.139 6.121 9.568 6.121 15.288zm-2.536-32.211h.01z"/></g><g><path d="m96.278 181.686c-1.507 0-3.015-.573-4.163-1.721l-22.413-22.413c-.611-.611-.863-1.494-.667-2.335.196-.842.813-1.522 1.632-1.8 4.325-1.467 7.948-3.12 12.392-5.311.77-.38 1.507-.868 2.19-1.45.992-.846 2.468-.787 3.39.135l18.325 18.325c2.295 2.295 2.295 6.03 0 8.325l-6.524 6.524c-1.147 1.147-2.654 1.721-4.162 1.721zm-.627-5.256c.347.345.909.345 1.254 0l6.524-6.524c.346-.346.345-.909 0-1.254l-16.812-16.812c-.438.274-.888.525-1.346.751-3.318 1.636-6.206 2.987-9.265 4.194z"/></g><g><path d="m122.714 181.675c-1.524 0-3.031-.586-4.154-1.71l-6.524-6.524c-2.295-2.294-2.295-6.029 0-8.325l10.575-10.574c.715-.716 1.792-.929 2.724-.542.935.387 1.543 1.298 1.543 2.31v22.431c0 .903-.486 1.735-1.273 2.178-.904.509-1.901.756-2.891.756zm-.837-19.33-6.307 6.306c-.345.346-.346.909 0 1.254l6.307 6.306z"/></g><g><path d="m57.24 256h-24.379c-1.825 0-3.591-.761-4.846-2.087-1.254-1.326-1.915-3.131-1.813-4.954l2.239-38.604c.077-1.322 1.171-2.355 2.496-2.355h26.303c1.381 0 2.5 1.119 2.5 2.5v43c0 1.381-1.119 2.5-2.5 2.5zm-23.945-43-2.102 36.243c-.025.458.136.898.455 1.234.318.337.749.522 1.213.522h21.879v-38h-21.445z"/></g><g><path d="m109 171.84c-.912 0-1.89-.037-2.989-.114-1.297-.091-2.309-1.161-2.326-2.461-.002-.166-.048-.407-.255-.614l-18.325-18.325c-.493-.493-.758-1.17-.73-1.867s.345-1.351.876-1.803c2.376-2.026 3.739-4.973 3.739-8.084v-6.186c0-.875.457-1.686 1.206-2.139.748-.453 1.678-.482 2.454-.076 5.105 2.673 10.607 4.028 16.351 4.028 5.006 0 9.863-1.042 14.436-3.098.819-.369 1.774-.269 2.499.261.726.53 1.111 1.409 1.01 2.301-.045.4-.067.757-.067 1.091v21.556c0 .663-.263 1.299-.732 1.768l-10.574 10.574c-.194.195-.243.431-.249.594-.046 1.251-1.012 2.275-2.258 2.395-1.377.131-2.744.199-4.066.199zm3.823-2.689h.01zm-4.667-2.323c.942.025 1.797.01 2.71-.038.286-.618.679-1.185 1.169-1.675l9.842-9.842v-18.192c-4.143 1.406-8.459 2.117-12.877 2.117-5.127 0-10.247-.999-15.011-2.912v2.285c0 3.671-1.288 7.186-3.6 9.969l16.575 16.575c.503.503.904 1.083 1.192 1.713z"/></g><g><path d="m215.823 256h-64.146c-4.54 0-8.233-3.693-8.233-8.233v-1.729c0-4.54 3.693-8.232 8.233-8.232h64.146c4.54 0 8.233 3.693 8.233 8.232v1.729c0 4.54-3.693 8.233-8.233 8.233zm-64.146-13.194c-1.783 0-3.233 1.45-3.233 3.232v1.729c0 1.783 1.45 3.233 3.233 3.233h64.146c1.783 0 3.233-1.45 3.233-3.233v-1.729c0-1.782-1.45-3.232-3.233-3.232z"/></g><g><path d="m230.944 222.507h-37.552c-1.381 0-2.5-1.119-2.5-2.5v-28.64c0-1.297-1.055-2.353-2.352-2.353h-9.579c-1.297 0-2.353 1.055-2.353 2.353v28.64c0 1.381-1.119 2.5-2.5 2.5h-37.552c-8.094 0-14.679-6.585-14.679-14.679v-73.074c0-8.094 6.585-14.679 14.679-14.679h94.388c8.094 0 14.679 6.585 14.679 14.679v73.074c0 8.094-6.585 14.679-14.679 14.679zm-35.052-5h35.052c5.337 0 9.679-4.342 9.679-9.679v-73.074c0-5.337-4.342-9.679-9.679-9.679h-94.388c-5.337 0-9.679 4.342-9.679 9.679v73.074c0 5.337 4.342 9.679 9.679 9.679h35.052v-26.14c0-4.054 3.298-7.353 7.353-7.353h9.579c4.054 0 7.352 3.298 7.352 7.353z"/></g><g><path d="m193.392 242.806h-19.283c-1.381 0-2.5-1.119-2.5-2.5v-48.939c0-4.054 3.298-7.353 7.353-7.353h9.579c4.054 0 7.352 3.298 7.352 7.353v48.939c-.001 1.381-1.121 2.5-2.501 2.5zm-16.784-5h14.283v-46.439c0-1.297-1.055-2.353-2.352-2.353h-9.579c-1.297 0-2.353 1.055-2.353 2.353v46.439z"/></g><g><path d="m240.56 107.21h-55.12c-5.206 0-9.44-4.235-9.44-9.44v-34.119c0-5.206 4.235-9.44 9.44-9.44h55.119c5.206 0 9.44 4.235 9.44 9.44v34.119c.001 5.206-4.234 9.44-9.439 9.44zm-55.12-48c-2.448 0-4.44 1.992-4.44 4.44v34.12c0 2.448 1.992 4.44 4.44 4.44h55.119c2.448 0 4.44-1.992 4.44-4.44v-34.119c0-2.448-1.992-4.44-4.44-4.44h-55.119z"/></g></g></g></svg>