<svg height="512" viewBox="0 0 58 52" width="512" xmlns="http://www.w3.org/2000/svg"><g id="Page-1" fill="none" fill-rule="evenodd"><g id="048---Like-Newsfeed"><path id="Path" d="m52 36v-33c0-1.65685425-1.3431458-3-3-3h-46c-1.65685425 0-3 1.34314575-3 3v39c0 1.6568542 1.34314575 3 3 3h28z" fill="#2980ba"/><path id="Path" d="m52 3v5h-52v-5c0-1.65685425 1.34314575-3 3-3h46c1.6568542 0 3 1.34314575 3 3z" fill="#3b97d3"/><circle id="Oval" cx="4" cy="4" fill="#65ddb9" r="1"/><circle id="Oval" cx="8" cy="4" fill="#f0c419" r="1"/><circle id="Oval" cx="12" cy="4" fill="#ff5364" r="1"/><path id="Path" d="m42.91 31v.01c-.206708 1.9912577-.6086403 3.9573764-1.2 5.87-.4560298 1.356976-1.4302061 2.478537-2.71 3.12v1c-.0032948-1.1032019-.8967981-1.9967052-2-2h-4c-1.1032019.0032948-1.9967052.8967981-2 2v4h-23v-14z" fill="#b0d3f0"/><circle id="Oval" cx="15" cy="38" fill="#2980ba" r="3"/><path id="Path" d="m27 37h-5c-.5522847 0-1-.4477153-1-1s.4477153-1 1-1h5c.5522847 0 1 .4477153 1 1s-.4477153 1-1 1z" fill="#285680"/><path id="Path" d="m31.27 41h-9.27c-.5522847 0-1-.4477153-1-1s.4477153-1 1-1h9.27c.5522847 0 1 .4477153 1 1s-.4477153 1-1 1z" fill="#285680"/><path id="Path" d="m44 17v10.65c-.5843628.1385893-.9977302.6594322-1 1.26 0 .7-.03 1.39-.09 2.09h-34.91v-14z" fill="#90bae1"/><circle id="Oval" cx="15" cy="24" fill="#2980ba" r="3"/><g fill="#285680"><path id="Path" d="m27 23h-5c-.5522847 0-1-.4477153-1-1s.4477153-1 1-1h5c.5522847 0 1 .4477153 1 1s-.4477153 1-1 1z"/><path id="Path" d="m33 27h-11c-.5522847 0-1-.4477153-1-1s.4477153-1 1-1h11c.5522847 0 1 .4477153 1 1s-.4477153 1-1 1z"/><path id="Path" d="m40 27h-3c-.5522847 0-1-.4477153-1-1s.4477153-1 1-1h3c.5522847 0 1 .4477153 1 1s-.4477153 1-1 1z"/></g><path id="Rectangle" d="m8 8h36v9h-36z" fill="#b0d3f0"/><path id="Path" d="m12.77 8c-.4970501.54734498-.7716714 1.26064724-.77 2 0 1.6568542 1.3431458 3 3 3s3-1.3431458 3-3c.0016714-.73935276-.2729499-1.45265502-.77-2" fill="#2980ba"/><path id="Path" d="m58 42c-.0081672 1.1011688-.8988312 1.9918328-2 2h-1c1.1032019.0032948 1.9967052.8967981 2 2-.0081672 1.1011688-.8988312 1.9918328-2 2h-1c1.1032019.0032948 1.9967052.8967981 2 2-.0081672 1.1011688-.8988312 1.9918328-2 2h-12c-1.6568542 0-3-1.3431458-3-3v-9c1.2797939-.641463 2.2539702-1.763024 2.71-3.12.5913597-1.9126236.993292-3.8787423 1.2-5.87v-.01c.06-.7.09-1.39.09-2.09.0022698-.6005678.4156372-1.1214107 1-1.26.02 0 .03-.01.05-.01 1.56-.29 2.55.8 3.15 1.97.5441917 1.0925212.8185252 2.2995886.8 3.52v2.87h8c1.1032019.0032948 1.9967052.8967981 2 2-.0081672 1.1011688-.8988312 1.9918328-2 2 1.1032019.0032948 1.9967052.8967981 2 2z" fill="#ecf0f1"/><rect id="Rectangle" fill="#3b97d3" height="13" rx="2" width="8" x="31" y="39"/><path id="Path" d="m33 13h-11c-.5522847 0-1-.4477153-1-1s.4477153-1 1-1h11c.5522847 0 1 .4477153 1 1s-.4477153 1-1 1z" fill="#285680"/><path id="Path" d="m40 13h-3c-.5522847 0-1-.4477153-1-1s.4477153-1 1-1h3c.5522847 0 1 .4477153 1 1s-.4477153 1-1 1z" fill="#285680"/><path id="Path" d="m57 46c-.0081672 1.1011688-.8988312 1.9918328-2 2h-2c-.5522847 0-1-.4477153-1-1s.4477153-1 1-1z" fill="#bdc3c7"/><path id="Path" d="m58 42c-.0081672 1.1011688-.8988312 1.9918328-2 2h-3c-.5522847 0-1-.4477153-1-1s.4477153-1 1-1z" fill="#bdc3c7"/><path id="Path" d="m58 38c-.0081672 1.1011688-.8988312 1.9918328-2 2h-3c-.5522847 0-1-.4477153-1-1s.4477153-1 1-1z" fill="#bdc3c7"/></g></g></svg>