<svg width="96" height="96" viewBox="0 0 96 96" fill="none" xmlns="http://www.w3.org/2000/svg">
<path d="M92.4746 21.555C92.335 21.3829 92.159 21.2439 91.9593 21.148C91.7596 21.052 91.5411 21.0015 91.3196 21H89.9996V4.5C89.9996 4.10218 89.8415 3.72064 89.5602 3.43934C89.2789 3.15804 88.8974 3 88.4996 3H58.4996C58.1017 3 57.7202 3.15804 57.4389 3.43934C57.1576 3.72064 56.9996 4.10218 56.9996 4.5V21H55.6796C55.458 21.0015 55.2395 21.052 55.0398 21.148C54.8401 21.2439 54.6641 21.3829 54.5246 21.555C54.3825 21.7287 54.2818 21.9323 54.2298 22.1505C54.1778 22.3688 54.176 22.596 54.2246 22.815L55.5296 28.815C55.6017 29.151 55.7871 29.4521 56.0547 29.6678C56.3223 29.8835 56.6559 30.0008 56.9996 30H89.9996C90.3433 30.0008 90.6768 29.8835 90.9444 29.6678C91.212 29.4521 91.3974 29.151 91.4696 28.815L92.7746 22.815C92.8231 22.596 92.8213 22.3688 92.7693 22.1505C92.7174 21.9323 92.6166 21.7287 92.4746 21.555ZM59.9996 6H86.9996V21H76.4996C76.1017 21 75.7202 21.158 75.4389 21.4393C75.1576 21.7206 74.9996 22.1022 74.9996 22.5H71.9996C71.9996 22.1022 71.8415 21.7206 71.5602 21.4393C71.2789 21.158 70.8974 21 70.4996 21H59.9996V6ZM88.7996 27H58.1996L57.5546 24H68.9996C68.9996 24.3978 69.1576 24.7794 69.4389 25.0607C69.7202 25.342 70.1017 25.5 70.4996 25.5H76.4996C76.8974 25.5 77.2789 25.342 77.5602 25.0607C77.8415 24.7794 77.9996 24.3978 77.9996 24H89.4446L88.7996 27Z" fill="#ED1C24"/>
<path d="M31.5 63H7.5C6.30762 63.0036 5.1651 63.4788 4.32195 64.322C3.47881 65.1651 3.00356 66.3076 3 67.5V82.5C3.00356 83.6924 3.47881 84.8349 4.32195 85.678C5.1651 86.5212 6.30762 86.9964 7.5 87H13.185L12.18 91.14C12.1217 91.3612 12.1158 91.593 12.1627 91.8169C12.2095 92.0408 12.3079 92.2507 12.45 92.43C12.5913 92.6088 12.7714 92.753 12.9767 92.8518C13.182 92.9505 13.4072 93.0012 13.635 93H25.365C25.5928 93.0012 25.818 92.9505 26.0233 92.8518C26.2286 92.753 26.4087 92.6088 26.55 92.43C26.6921 92.2507 26.7905 92.0408 26.8373 91.8169C26.8842 91.593 26.8783 91.3612 26.82 91.14L25.815 87H31.5C32.6924 86.9964 33.8349 86.5212 34.678 85.678C35.5212 84.8349 35.9964 83.6924 36 82.5V67.5C35.9964 66.3076 35.5212 65.1651 34.678 64.322C33.8349 63.4788 32.6924 63.0036 31.5 63ZM15.54 90L16.275 87H22.725L23.46 90H15.54ZM33 82.5C33 82.8978 32.842 83.2794 32.5607 83.5607C32.2794 83.842 31.8978 84 31.5 84H7.5C7.10218 84 6.72064 83.842 6.43934 83.5607C6.15804 83.2794 6 82.8978 6 82.5V81H33V82.5ZM33 78H6V67.5C6 67.1022 6.15804 66.7206 6.43934 66.4393C6.72064 66.158 7.10218 66 7.5 66H31.5C31.8978 66 32.2794 66.158 32.5607 66.4393C32.842 66.7206 33 67.1022 33 67.5V78Z" fill="#ED1C24"/>
<path d="M88.5 60H76.5C75.3076 60.0036 74.1651 60.4788 73.322 61.322C72.4788 62.1651 72.0036 63.3076 72 64.5V88.5C72.0036 89.6924 72.4788 90.8349 73.322 91.678C74.1651 92.5212 75.3076 92.9964 76.5 93H88.5C89.6924 92.9964 90.8349 92.5212 91.678 91.678C92.5212 90.8349 92.9964 89.6924 93 88.5V64.5C92.9964 63.3076 92.5212 62.1651 91.678 61.322C90.8349 60.4788 89.6924 60.0036 88.5 60ZM85.5 63C85.5 63.3978 85.342 63.7794 85.0607 64.0607C84.7794 64.342 84.3978 64.5 84 64.5H81C80.6022 64.5 80.2206 64.342 79.9393 64.0607C79.658 63.7794 79.5 63.3978 79.5 63H85.5ZM90 88.5C90 88.8978 89.842 89.2794 89.5607 89.5607C89.2794 89.842 88.8978 90 88.5 90H76.5C76.1022 90 75.7206 89.842 75.4393 89.5607C75.158 89.2794 75 88.8978 75 88.5V64.5C75 64.1022 75.158 63.7206 75.4393 63.4393C75.7206 63.158 76.1022 63 76.5 63C76.5036 64.1924 76.9788 65.3349 77.822 66.178C78.6651 67.0212 79.8076 67.4964 81 67.5H84C85.1924 67.4964 86.3349 67.0212 87.178 66.178C88.0212 65.3349 88.4964 64.1924 88.5 63C88.8978 63 89.2794 63.158 89.5607 63.4393C89.842 63.7206 90 64.1022 90 64.5V88.5Z" fill="#ED1C24"/>
<path d="M25.5 3H7.5C6.30762 3.00356 5.1651 3.47881 4.32195 4.32195C3.47881 5.1651 3.00356 6.30762 3 7.5V31.5C3.00356 32.6924 3.47881 33.8349 4.32195 34.678C5.1651 35.5212 6.30762 35.9964 7.5 36H25.5C26.6924 35.9964 27.8349 35.5212 28.678 34.678C29.5212 33.8349 29.9964 32.6924 30 31.5V7.5C29.9964 6.30762 29.5212 5.1651 28.678 4.32195C27.8349 3.47881 26.6924 3.00356 25.5 3ZM27 31.5C27 31.8978 26.842 32.2794 26.5607 32.5607C26.2794 32.842 25.8978 33 25.5 33H7.5C7.10218 33 6.72064 32.842 6.43934 32.5607C6.15804 32.2794 6 31.8978 6 31.5V7.5C6 7.10218 6.15804 6.72064 6.43934 6.43934C6.72064 6.15804 7.10218 6 7.5 6H25.5C25.8978 6 26.2794 6.15804 26.5607 6.43934C26.842 6.72064 27 7.10218 27 7.5V31.5Z" fill="#ED1C24"/>
<path d="M18 27H15V30H18V27Z" fill="#ED1C24"/>
<path d="M63.18 43.65L59.58 43.2L61.815 40.335C62.0394 40.0459 62.1497 39.6844 62.1248 39.3193C62.0999 38.9542 61.9416 38.6109 61.68 38.355L57.645 34.32C57.388 34.0602 57.0451 33.9031 56.6805 33.8782C56.3159 33.8534 55.9548 33.9625 55.665 34.185L52.8 36.42L52.35 32.82C52.3018 32.4558 52.1232 32.1215 51.8475 31.8788C51.5717 31.6361 51.2174 31.5015 50.85 31.5H45.15C44.7827 31.5015 44.4283 31.6361 44.1525 31.8788C43.8767 32.1215 43.6982 32.4558 43.65 32.82L43.2 36.42L40.335 34.185C40.0452 33.9625 39.6841 33.8534 39.3195 33.8782C38.9549 33.9031 38.612 34.0602 38.355 34.32L34.32 38.355C34.0584 38.6109 33.9001 38.9542 33.8752 39.3193C33.8503 39.6844 33.9606 40.0459 34.185 40.335L36.42 43.2L32.82 43.65C32.4558 43.6982 32.1215 43.8767 31.8788 44.1525C31.6361 44.4283 31.5015 44.7827 31.5 45.15V50.85C31.5015 51.2174 31.6361 51.5717 31.8788 51.8475C32.1215 52.1232 32.4558 52.3018 32.82 52.35L36.42 52.8L34.185 55.665C33.9606 55.9541 33.8503 56.3156 33.8752 56.6807C33.9001 57.0458 34.0584 57.3891 34.32 57.645L38.355 61.68C38.612 61.9398 38.9549 62.0969 39.3195 62.1218C39.6841 62.1466 40.0452 62.0375 40.335 61.815L43.2 59.58L43.65 63.18C43.6982 63.5442 43.8767 63.8785 44.1525 64.1212C44.4283 64.3639 44.7827 64.4985 45.15 64.5H50.85C51.2174 64.4985 51.5717 64.3639 51.8475 64.1212C52.1232 63.8785 52.3018 63.5442 52.35 63.18L52.8 59.58L55.665 61.815C55.9548 62.0375 56.3159 62.1466 56.6805 62.1218C57.0451 62.0969 57.388 61.9398 57.645 61.68L61.68 57.645C61.9416 57.3891 62.0999 57.0458 62.1248 56.6807C62.1497 56.3156 62.0394 55.9541 61.815 55.665L59.58 52.8L63.18 52.35C63.5442 52.3018 63.8785 52.1232 64.1212 51.8475C64.3639 51.5717 64.4985 51.2174 64.5 50.85V45.15C64.4985 44.7827 64.3639 44.4283 64.1212 44.1525C63.8785 43.8767 63.5442 43.6982 63.18 43.65ZM61.5 49.53L57.945 49.98C57.6655 50.0128 57.4012 50.1249 57.1833 50.3029C56.9654 50.481 56.8029 50.7177 56.715 50.985C56.58 51.345 56.43 51.705 56.265 52.05C56.1391 52.3008 56.0878 52.5825 56.117 52.8616C56.1462 53.1408 56.2549 53.4057 56.43 53.625L58.635 56.46L56.46 58.635L53.625 56.43C53.4057 56.2549 53.1408 56.1462 52.8616 56.117C52.5825 56.0878 52.3008 56.1391 52.05 56.265C51.6978 56.433 51.3373 56.5832 50.97 56.715C50.7059 56.806 50.4729 56.9698 50.2978 57.1874C50.1226 57.4049 50.0125 57.6676 49.98 57.945L49.53 61.5H46.47L46.02 57.945C45.9875 57.6676 45.8774 57.4049 45.7022 57.1874C45.5271 56.9698 45.2941 56.806 45.03 56.715C44.6627 56.5832 44.3022 56.433 43.95 56.265C43.6992 56.1391 43.4175 56.0878 43.1384 56.117C42.8592 56.1462 42.5943 56.2549 42.375 56.43L39.54 58.635L37.365 56.46L39.57 53.625C39.7451 53.4057 39.8538 53.1408 39.883 52.8616C39.9122 52.5825 39.8609 52.3008 39.735 52.05C39.57 51.705 39.42 51.345 39.285 50.985C39.1971 50.7177 39.0346 50.481 38.8167 50.3029C38.5988 50.1249 38.3345 50.0128 38.055 49.98L34.5 49.53V46.47L38.055 46.02C38.3345 45.9872 38.5988 45.8751 38.8167 45.6971C39.0346 45.519 39.1971 45.2823 39.285 45.015C39.42 44.655 39.57 44.295 39.735 43.95C39.8609 43.6992 39.9122 43.4175 39.883 43.1384C39.8538 42.8592 39.7451 42.5943 39.57 42.375L37.365 39.54L39.54 37.365L42.375 39.57C42.5943 39.7451 42.8592 39.8538 43.1384 39.883C43.4175 39.9122 43.6992 39.8609 43.95 39.735C44.295 39.57 44.655 39.42 45.015 39.285C45.2823 39.1971 45.519 39.0346 45.6971 38.8167C45.8751 38.5988 45.9872 38.3345 46.02 38.055L46.47 34.5H49.53L49.98 38.055C50.0128 38.3345 50.1249 38.5988 50.3029 38.8167C50.481 39.0346 50.7177 39.1971 50.985 39.285C51.345 39.42 51.705 39.57 52.05 39.735C52.3008 39.8609 52.5825 39.9122 52.8616 39.883C53.1408 39.8538 53.4057 39.7451 53.625 39.57L56.46 37.365L58.635 39.54L56.43 42.375C56.2549 42.5943 56.1462 42.8592 56.117 43.1384C56.0878 43.4175 56.1391 43.6992 56.265 43.95C56.43 44.295 56.58 44.655 56.715 45.015C56.8029 45.2823 56.9654 45.519 57.1833 45.6971C57.4012 45.8751 57.6655 45.9872 57.945 46.02L61.5 46.47V49.53Z" fill="#ED1C24"/>
<path d="M55.5 48C55.5 46.5166 55.0601 45.0666 54.236 43.8332C53.4119 42.5999 52.2406 41.6386 50.8701 41.0709C49.4997 40.5032 47.9917 40.3547 46.5368 40.6441C45.082 40.9335 43.7456 41.6478 42.6967 42.6967C41.6478 43.7456 40.9335 45.082 40.6441 46.5368C40.3547 47.9917 40.5032 49.4997 41.0709 50.8701C41.6386 52.2406 42.5999 53.4119 43.8332 54.236C45.0666 55.0601 46.5166 55.5 48 55.5C49.9884 55.4976 51.8947 54.7067 53.3007 53.3007C54.7067 51.8947 55.4976 49.9884 55.5 48ZM48 52.5C47.11 52.5 46.24 52.2361 45.4999 51.7416C44.7599 51.2471 44.1831 50.5443 43.8425 49.7221C43.502 48.8998 43.4128 47.995 43.5865 47.1221C43.7601 46.2492 44.1887 45.4474 44.818 44.818C45.4474 44.1887 46.2492 43.7601 47.1221 43.5865C47.995 43.4128 48.8998 43.502 49.7221 43.8425C50.5443 44.1831 51.2471 44.7599 51.7416 45.4999C52.2361 46.24 52.5 47.11 52.5 48C52.5 49.1935 52.0259 50.3381 51.182 51.182C50.3381 52.0259 49.1935 52.5 48 52.5Z" fill="#ED1C24"/>
<path d="M67.5 45V48H73.5C73.8978 48 74.2794 47.842 74.5607 47.5607C74.842 47.2794 75 46.8978 75 46.5V33H72V45H67.5Z" fill="#ED1C24"/>
<path d="M16.5 48V60H19.5V49.5H28.5V46.5H18C17.6022 46.5 17.2206 46.658 16.9393 46.9393C16.658 47.2206 16.5 47.6022 16.5 48Z" fill="#ED1C24"/>
<path d="M46.5 28.5H49.5V19.5C49.5 19.1022 49.342 18.7206 49.0607 18.4393C48.7794 18.158 48.3978 18 48 18H33V21H46.5V28.5Z" fill="#ED1C24"/>
<path d="M49.5 67.5H46.5V79.5C46.5 79.8978 46.658 80.2794 46.9393 80.5607C47.2206 80.842 47.6022 81 48 81H69V78H49.5V67.5Z" fill="#ED1C24"/>
</svg>
