<svg width="96" height="96" viewBox="0 0 96 96" fill="none" xmlns="http://www.w3.org/2000/svg">
<g clip-path="url(#clip0_1384_2611)">
<path d="M46.0044 51.5483C46.0044 51.5483 40.6527 41.2361 40.8504 33.7008C40.9946 28.3161 53.1359 22.9933 57.9026 15.2643C62.661 7.53111 57.3093 0 57.3093 0C57.3093 0 58.5 5.55355 55.3276 11.2968C52.1554 17.0482 40.4464 20.4223 35.8941 30.3349C31.3417 40.2475 46.0044 51.5483 46.0044 51.5483Z" fill="#ED1C24"/>
<path d="M66.0347 20.2205C66.0347 20.2205 47.7959 27.1625 47.7959 35.0892C47.7959 43.0241 52.748 45.5991 53.5473 48.174C54.3384 50.7573 52.159 55.1161 52.159 55.1161C52.159 55.1161 59.2947 50.1598 58.0999 44.4086C56.9092 38.6572 51.3597 36.8691 54.5361 31.1261C56.6579 27.2739 66.0347 20.2205 66.0347 20.2205Z" fill="#ED1C24"/>
<path d="M44.0265 62.0251C60.881 61.4237 67.0279 56.1048 67.0279 56.1048C56.1267 59.0754 27.1762 58.8817 26.9743 56.7023C26.7806 54.5228 35.8939 52.7347 35.8939 52.7347C35.8939 52.7347 21.6226 52.7347 20.4319 56.3025C19.2411 59.8705 27.1842 62.6143 44.0265 62.0251Z" fill="#ED1C24"/>
<path d="M68.4121 70.3803C68.4121 70.3803 84.9081 66.862 83.2766 57.9011C81.2991 46.9917 69.7962 53.1385 69.7962 53.1385C69.7962 53.1385 77.933 53.1385 78.7199 58.0906C79.5152 63.0469 68.4121 70.3803 68.4121 70.3803Z" fill="#ED1C24"/>
<path d="M60.2839 65.6259C60.2839 65.6259 56.1269 66.7177 49.9677 67.4098C41.7114 68.3367 31.7288 67.6035 30.9337 66.215C30.151 64.8266 32.3221 64.0355 32.3221 64.0355C22.4054 66.4168 27.8314 70.5738 39.4536 71.3732C49.4155 72.0529 64.243 68.3986 64.243 68.3986L60.2839 65.6259Z" fill="#ED1C24"/>
<path d="M34.7113 74.286C34.7113 74.286 30.2124 74.4138 29.9487 76.7951C29.6891 79.16 32.7173 81.2858 43.8244 81.9451C54.9275 82.6042 62.7306 78.9087 62.7306 78.9087L57.7084 75.86C57.7084 75.86 54.532 76.5273 49.6416 77.1866C44.7471 77.85 34.7109 76.6551 34.3156 75.7364C33.912 74.8091 34.7113 74.286 34.7113 74.286Z" fill="#ED1C24"/>
<path d="M77.925 84.9935C79.643 83.1395 77.3935 81.6853 77.3935 81.6853C77.3935 81.6853 78.1846 82.6122 77.1381 83.6671C76.0792 84.7217 66.4264 87.3626 50.9602 88.1577C35.4982 88.9528 18.7096 86.7033 18.1781 84.7217C17.6631 82.74 26.7763 81.158 26.7763 81.158C25.7216 81.2897 13.0323 81.5535 12.6285 84.9935C12.233 88.4253 18.1781 91.2022 41.9787 91.2022C65.7672 91.1982 76.2152 86.8351 77.925 84.9935Z" fill="#ED1C24"/>
<path d="M68.6756 92.7884C58.2316 94.8978 26.5166 93.5671 26.5166 93.5671C26.5166 93.5671 47.1285 98.4615 70.6572 94.3664C81.9045 92.4053 82.5596 86.9629 82.5596 86.9629C82.5596 86.9629 79.1196 90.6667 68.6756 92.7884Z" fill="#ED1C24"/>
</g>
<defs>
<clipPath id="clip0_1384_2611">
<rect width="96" height="96" fill="white"/>
</clipPath>
</defs>
</svg>
