<svg width="96" height="96" viewBox="0 0 96 96" fill="none" xmlns="http://www.w3.org/2000/svg">
<g clip-path="url(#clip0_1384_2921)">
<path d="M90.9534 87.9663H90.9166V67.928C90.9166 66.7331 90.549 65.5933 89.832 64.6373L85.6773 59.0303C85.806 57.8905 85.8611 56.7323 85.8611 55.5741C85.8795 50.6473 84.7765 45.7756 82.6256 41.3451C82.3498 40.812 81.7064 40.573 81.1549 40.8304L52.6416 54.5814C52.2556 54.7653 52.0166 55.1513 52.0166 55.5741V87.1942C52.0166 87.8009 52.513 88.2972 53.1196 88.2972C57.1457 88.2972 61.1349 87.5619 64.8852 86.128C65.3081 86.7898 65.7677 87.3964 66.2824 87.9847C65.7493 88.0582 65.3448 88.5178 65.3448 89.0694V94.897C65.3448 95.5037 65.8412 96 66.4479 96H90.9534C91.5601 96 92.0564 95.5037 92.0564 94.897V89.0694C92.0564 88.4627 91.5601 87.9663 90.9534 87.9663ZM65.9699 83.2785L63.9293 84.1241C60.8224 85.3007 57.5501 85.9625 54.2227 86.0728V56.2543L81.0997 43.3122C82.791 47.1728 83.6734 51.3459 83.6551 55.5741C83.6551 55.8131 83.6551 56.0521 83.6367 56.2911C83.6183 57.2838 83.5448 58.2582 83.4344 59.2141L83.3793 59.637C83.03 62.2107 82.3682 64.7109 81.3938 67.1191C80.6585 66.9353 79.9232 66.8066 79.1694 66.7331L73.8014 58.7545C73.2131 57.8721 72.2939 57.2654 71.246 57.0816C70.1798 56.8794 69.0583 57.1 68.1575 57.725L67.6428 58.0743C65.9699 59.1774 65.4735 61.4018 66.5214 63.1115L74.9595 76.8993C72.3858 79.5649 69.3341 81.7159 65.9699 83.2785ZM75.9155 79.0686C76.4854 80.5209 77.4597 82.5615 78.7098 83.9403L80.6585 86.0728C81.0997 86.4772 81.7983 86.4589 82.2211 86.0177C82.5888 85.6132 82.6072 85.0249 82.2763 84.5837L80.346 82.4512C79.0223 80.9989 78.0112 78.4619 77.5884 77.3037L76.5038 75.1896L68.3965 61.9717C67.9737 61.2547 68.1943 60.3355 68.8929 59.8943L69.4076 59.545C69.8121 59.2509 70.3268 59.159 70.8232 59.2509C71.2828 59.3244 71.7056 59.6002 71.963 59.9862L77.6436 68.406C77.8274 68.7001 78.1399 68.884 78.4892 68.9024C79.151 68.9575 79.8129 69.0311 80.4563 69.1597C81.2836 69.3436 82.0373 69.5826 82.3866 69.8767L82.5153 69.987C82.9749 70.2628 83.5815 70.1892 83.9492 69.7848C84.3353 69.3252 84.2985 68.6266 83.8389 68.2222L83.4344 67.928C84.2066 66.0529 84.7948 64.0858 85.1993 62.1004L88.0672 65.9426C88.49 66.5125 88.7106 67.2111 88.7106 67.928V87.9663H69.3709C68.4333 87.1758 67.6244 86.2566 66.9442 85.2455C70.2533 83.7013 73.2866 81.6239 75.9155 79.0686ZM89.8504 93.794H67.5509V90.1724H89.8504V93.794Z" fill="#ED1C24"/>
<path d="M79.9971 38.6059C80.2545 38.4772 80.4567 38.2566 80.567 37.9809C80.659 37.7051 80.6406 37.3926 80.5119 37.1352C77.8646 31.6752 73.765 27.0425 68.6544 23.7702C66.4667 22.3547 64.0952 21.2332 61.6318 20.3876C62.1833 16.7292 62.1465 12.9238 60.5655 10.2398C60.1059 9.44925 59.5728 8.7139 58.9661 8.01532C59.4992 7.94178 59.9037 7.48219 59.9037 6.93068V1.10303C59.9037 0.496362 59.4073 0 58.8007 0H34.2951C33.6884 0 33.1921 0.496362 33.1921 1.10303V6.93068C33.1921 7.53734 33.6884 8.0337 34.2951 8.0337H34.3135V23.2003C33.7068 23.568 33.1185 23.9357 32.5303 24.3401C27.2357 27.9617 23.1178 33.0724 20.6911 39.0287C20.5808 39.3045 20.5808 39.5986 20.6911 39.8744C20.8014 40.1501 21.022 40.3707 21.2978 40.481L50.6015 52.3753C50.7302 52.4305 50.8773 52.4673 51.0243 52.4673C51.1898 52.4673 51.3552 52.4305 51.5023 52.357L79.9971 38.6059ZM59.4992 19.7442C56.7417 19.0088 53.8922 18.6228 51.0243 18.6228H49.9948C49.9948 18.6228 48.4322 14.1371 46.5203 12.0597L44.59 9.94561C44.1856 9.48602 43.487 9.46764 43.0274 9.87208C42.5862 10.2949 42.5494 10.9751 42.9539 11.4347L44.9025 13.5488C46.2629 15.0563 47.7888 19.1375 47.8439 19.3029C47.8807 19.3949 56.8336 34.0467 56.8336 34.0467C57.2748 34.7453 57.0542 35.6277 56.3556 36.1241L55.8409 36.4734C55.418 36.7491 54.9217 36.8594 54.4253 36.7675C53.9473 36.6756 53.5429 36.3998 53.2671 36.0138L47.605 27.594C47.4027 27.2999 47.0718 27.116 46.7225 27.116C46.6674 27.116 41.6486 26.9322 37.9902 23.7334C37.5123 23.329 36.5195 22.226 36.5195 22.226V8.0337H55.8776C56.9807 8.98966 57.9182 10.1111 58.672 11.3612C59.9221 13.4753 59.9588 16.6189 59.4992 19.7442ZM35.3981 2.20605H57.6976V5.82765H35.3981V2.20605ZM50.9876 50.1509L23.1545 38.8449C25.5444 33.5136 29.4234 28.9728 34.3135 25.774L35.9129 24.7997C39.4977 28.3845 44.4062 29.1199 46.0791 29.2853L51.4472 37.2455C52.0354 38.1279 52.9546 38.7346 54.0025 38.9184C54.2599 38.9736 54.5172 38.992 54.7746 38.992C55.6019 38.992 56.4108 38.753 57.091 38.2934L57.6057 37.9441C59.2786 36.8411 59.775 34.5982 58.7271 32.8885L51.3369 20.8288C53.9657 20.8656 56.5762 21.2332 59.0948 21.9318C59.8118 22.1341 60.5287 22.3547 61.2089 22.612C68.4338 25.1858 74.4269 30.3516 78.0301 37.1168L50.9876 50.1509Z" fill="#ED1C24"/>
<path d="M49.3329 54.5446L20.0108 42.6319C19.4409 42.4113 18.8158 42.6871 18.5768 43.2386C17.6025 45.6101 16.9223 48.1103 16.5546 50.6473L6.16779 64.6373C5.46921 65.5933 5.08315 66.7514 5.08315 67.928V87.9663H5.04639C4.43972 87.9663 3.94336 88.4627 3.94336 89.0693V94.897C3.94336 95.5036 4.43972 96 5.04639 96H29.5519C30.1586 96 30.655 95.5036 30.655 94.897V89.0693C30.6366 88.5362 30.2505 88.0766 29.7174 87.9847C30.3241 87.3045 30.8572 86.5691 31.3352 85.7786C31.7028 85.1168 31.997 84.4182 32.1992 83.7013C37.2547 86.7162 43.0272 88.3156 48.91 88.2972C49.5167 88.2972 50.0131 87.8008 50.0131 87.1942V55.5741C50.0314 55.1145 49.7557 54.7101 49.3329 54.5446ZM28.4489 93.794H6.14941V90.1724H28.4489V93.794ZM29.4233 84.6388C28.6879 85.8889 27.7319 87.0103 26.6289 87.9663H7.2892V67.928C7.2892 67.211 7.50981 66.5125 7.93264 65.9426L16.1869 54.8388V55.5741C16.1869 58.92 16.7017 62.2474 17.6944 65.4462L16.8304 66.7331C15.6722 66.8617 13.3191 67.211 12.1609 68.2221C11.6829 68.5898 11.591 69.2884 11.9587 69.7664C12.3264 70.2444 13.0249 70.3363 13.5029 69.9686C13.5397 69.9318 16.2789 68.9759 17.529 68.9023C17.8783 68.8656 18.1724 68.6817 18.3746 68.406L24.0368 59.9862C24.2942 59.6002 24.717 59.3244 25.1766 59.2509C25.673 59.1589 26.1877 59.2509 26.5922 59.545L27.1069 59.8943C27.8055 60.3355 28.0261 61.2547 27.6033 61.9717L18.7239 76.4581C18.6688 76.5316 17.4003 80.5393 15.6538 82.4512L13.7235 84.5837C13.3558 85.0617 13.4294 85.7602 13.9074 86.1279C14.3302 86.4588 14.9368 86.4404 15.3413 86.0728L17.29 83.9403C19.1835 81.8629 20.4336 78.2597 20.6726 77.5059L22.3823 74.7116C24.5516 77.7082 27.2172 80.3187 30.2505 82.4328C30.1035 83.2049 29.8277 83.9586 29.4233 84.6388ZM47.807 86.0728C42.4206 85.8706 37.1812 84.2712 32.622 81.3849C31.9051 80.9253 31.1881 80.429 30.5079 79.8958C27.8422 77.8736 25.5259 75.4286 23.6324 72.671L29.4784 63.1115C30.5263 61.4018 30.0299 59.1773 28.357 58.0743L27.8422 57.725C26.9414 57.1 25.82 56.8794 24.7538 57.0816C23.7059 57.2654 22.7867 57.8721 22.1984 58.7545L19.3122 63.0379C18.7055 60.5929 18.393 58.0927 18.393 55.5741C18.393 54.2137 18.4665 52.8717 18.6504 51.5297C18.8894 49.7832 19.257 48.0552 19.7902 46.3638C19.9372 45.941 20.0659 45.5182 20.2314 45.1137L47.807 56.3095V86.0728Z" fill="#ED1C24"/>
</g>
<defs>
<clipPath id="clip0_1384_2921">
<rect width="96" height="96" fill="white"/>
</clipPath>
</defs>
</svg>
