<svg width="96" height="96" viewBox="0 0 96 96" fill="none" xmlns="http://www.w3.org/2000/svg">
<path d="M34.5 18H37.5V21H34.5V18Z" fill="#ED1C24"/>
<path d="M40.5 18H43.5V21H40.5V18Z" fill="#ED1C24"/>
<path d="M46.5 18H49.5V21H46.5V18Z" fill="#ED1C24"/>
<path d="M55.5 9H58.5V12H55.5V9Z" fill="#ED1C24"/>
<path d="M83.8862 92.0745C83.9998 91.8003 84.0294 91.4986 83.9715 91.2076C83.9136 90.9166 83.7706 90.6493 83.5607 90.4395L74.8607 81.7395L72.0332 70.428L73.4912 60.228C73.5137 60.068 73.5107 59.9055 73.4822 59.7465L70.4822 43.2885C70.3739 42.1549 69.8616 41.098 69.0388 40.3107C68.216 39.5234 67.1375 39.0582 66.0002 39C65.4906 39.0052 64.9858 39.0981 64.5077 39.2745V10.5C64.5053 8.51161 63.7144 6.60534 62.3084 5.19933C60.9024 3.79332 58.9961 3.00238 57.0077 3H27.0002C25.0118 3.00238 23.1055 3.79332 21.6995 5.19933C20.2935 6.60534 19.5026 8.51161 19.5002 10.5V28.902C18.4089 28.5615 17.2364 28.5852 16.1597 28.9695C15.219 29.2957 14.3778 29.8579 13.7165 30.6022C13.0552 31.3464 12.596 32.248 12.3827 33.2205C12.1687 34.1647 12.1971 35.1476 12.4651 36.0779C12.7332 37.0081 13.2322 37.8554 13.9157 38.541L18.3497 42.975C17.1324 43.5896 16.1808 44.6269 15.673 45.8925C15.1653 47.1581 15.1362 48.5655 15.5912 49.851C14.4028 50.0359 13.3034 50.5919 12.4502 51.4395C11.9162 51.9723 11.4925 52.6052 11.2035 53.302C10.9144 53.9987 10.7656 54.7457 10.7656 55.5C10.7656 56.2543 10.9144 57.0013 11.2035 57.698C11.4925 58.3948 11.9162 59.0277 12.4502 59.5605L14.9042 62.0145C13.9776 62.2734 13.1321 62.7638 12.4472 63.4395C11.3717 64.5171 10.7676 65.9775 10.7676 67.5C10.7676 69.0225 11.3717 70.4829 12.4472 71.5605L18.4472 77.5605C18.7645 77.8712 19.1169 78.1441 19.4972 78.3735V79.5C19.4996 81.4884 20.2905 83.3947 21.6965 84.8007C23.1025 86.2067 25.0088 86.9976 26.9972 87H41.3762L46.9367 92.5605C47.0763 92.7002 47.2421 92.8109 47.4246 92.8863C47.6071 92.9617 47.8027 93.0004 48.0002 93H82.5002C82.7969 93.0001 83.0869 92.9122 83.3336 92.7475C83.5803 92.5827 83.7726 92.3485 83.8862 92.0745ZM34.5002 6H49.5002V9H34.5002V6ZM22.5002 31.5V10.5C22.5002 9.30653 22.9743 8.16193 23.8182 7.31802C24.6621 6.47411 25.8067 6 27.0002 6H31.5002V10.5C31.5002 10.8978 31.6582 11.2794 31.9395 11.5607C32.2208 11.842 32.6024 12 33.0002 12H51.0002C51.398 12 51.7796 11.842 52.0609 11.5607C52.3422 11.2794 52.5002 10.8978 52.5002 10.5V6H57.0002C58.1937 6 59.3383 6.47411 60.1822 7.31802C61.0261 8.16193 61.5002 9.30653 61.5002 10.5V72H28.0277C27.7761 71.0335 27.2742 70.1503 26.5727 69.4395L24.1097 66.9765C25.309 66.6497 26.3664 65.9354 27.1172 64.9447C27.8679 63.9541 28.2698 62.7429 28.2602 61.5C28.2512 60.8819 28.1418 60.2694 27.9362 59.6865C28.7575 59.562 29.5408 59.2564 30.2293 58.7917C30.9179 58.3271 31.4944 57.715 31.9172 57H39.0002C39.398 57 39.7796 56.842 40.0609 56.5607C40.3422 56.2794 40.5002 55.8978 40.5002 55.5V46.5C40.5002 46.1022 40.3422 45.7206 40.0609 45.4393C39.7796 45.158 39.398 45 39.0002 45H30.0002C29.6024 45 29.2208 45.158 28.9395 45.4393C28.6582 45.7206 28.5002 46.1022 28.5002 46.5V47.4L25.0652 43.9665C24.35 43.2691 23.4663 42.7688 22.5002 42.5145V31.5ZM31.5002 50.49V48H37.5002V54H32.7572C32.7413 52.7239 32.2988 51.4899 31.5002 50.4945V50.49ZM16.0367 36.42C15.7113 36.0902 15.4743 35.6836 15.3477 35.2379C15.221 34.7921 15.2088 34.3217 15.3122 33.87C15.4181 33.3895 15.6474 32.9449 15.9775 32.5801C16.3076 32.2152 16.7272 31.9428 17.1947 31.7895C17.4285 31.7053 17.6752 31.6626 17.9237 31.6635C18.4906 31.6713 19.0412 31.8541 19.5002 32.187V39.8835L16.0367 36.42ZM19.0757 46.0905C19.6021 45.5895 20.299 45.3069 21.0257 45.3C21.7494 45.2976 22.4445 45.5818 22.9592 46.0905L28.9502 52.08C29.4687 52.597 29.762 53.2978 29.7662 54.03C29.7641 54.3625 29.7016 54.6919 29.5817 55.002C29.4494 55.3663 29.2372 55.6964 28.9607 55.968C28.4867 56.4428 27.8557 56.7281 27.1861 56.7704C26.5166 56.8127 25.8546 56.6089 25.3247 56.1975L19.0817 49.968C18.8259 49.7143 18.623 49.4124 18.4847 49.0797C18.3464 48.7471 18.2756 48.3903 18.2762 48.03C18.2778 47.3036 18.565 46.607 19.0757 46.0905ZM14.5757 57.4395C14.1918 57.055 13.9306 56.5652 13.8253 56.0321C13.7199 55.4991 13.7752 54.9467 13.984 54.4451C14.1928 53.9434 14.5458 53.5151 14.9983 53.2142C15.4508 52.9133 15.9823 52.7535 16.5257 52.755C17.1443 52.7565 17.7441 52.9681 18.2267 53.355L24.4502 59.5605C24.9465 60.0786 25.2201 60.7704 25.2124 61.4878C25.2047 62.2052 24.9163 62.891 24.409 63.3983C23.9017 63.9056 23.2159 64.194 22.4985 64.2017C21.7811 64.2094 21.0893 63.9358 20.5712 63.4395L14.5757 57.4395ZM20.5757 75.4395L14.5757 69.4395C14.095 68.919 13.8343 68.2328 13.8481 67.5244C13.862 66.816 14.1493 66.1405 14.65 65.6392C15.1507 65.1379 15.8259 64.8498 16.5343 64.8351C17.2426 64.8205 17.9292 65.0804 18.4502 65.5605L24.4502 71.5605C24.9465 72.0786 25.2201 72.7704 25.2124 73.4878C25.2047 74.2052 24.9163 74.891 24.409 75.3983C23.9017 75.9056 23.2159 76.194 22.4985 76.2017C21.7811 76.2094 21.0893 75.9358 20.5712 75.4395H20.5757ZM27.0002 84C25.8067 84 24.6621 83.5259 23.8182 82.682C22.9743 81.8381 22.5002 80.6935 22.5002 79.5V79.2375H22.5122C23.7721 79.2461 24.9989 78.834 25.998 78.0663C26.9971 77.2987 27.7114 76.2196 28.0277 75H61.5002V79.5C61.5002 80.6935 61.0261 81.8381 60.1822 82.682C59.3383 83.5259 58.1937 84 57.0002 84H27.0002ZM48.6212 90L45.6212 87H57.0002C58.9886 86.9976 60.8949 86.2067 62.3009 84.8007C63.7069 83.3947 64.4978 81.4884 64.5002 79.5V43.491C64.5026 43.0947 64.6617 42.7155 64.9427 42.4362C65.2238 42.1568 65.6039 42 66.0002 42C66.7832 42 67.3877 42.879 67.5242 43.7685L70.4807 60.03L69.0152 70.287C68.9883 70.4792 68.9985 70.6747 69.0452 70.863L72.0452 82.863C72.111 83.127 72.2474 83.3681 72.4397 83.5605L78.8792 90H48.6212Z" fill="#ED1C24"/>
<path d="M39 78H45V81H39V78Z" fill="#ED1C24"/>
<path d="M30 42H39C39.3978 42 39.7794 41.842 40.0607 41.5607C40.342 41.2794 40.5 40.8978 40.5 40.5V31.5C40.5 31.1022 40.342 30.7206 40.0607 30.4393C39.7794 30.158 39.3978 30 39 30H30C29.6022 30 29.2206 30.158 28.9393 30.4393C28.658 30.7206 28.5 31.1022 28.5 31.5V40.5C28.5 40.8978 28.658 41.2794 28.9393 41.5607C29.2206 41.842 29.6022 42 30 42ZM31.5 33H37.5V39H31.5V33Z" fill="#ED1C24"/>
<path d="M43.5 40.5C43.5 40.8978 43.658 41.2794 43.9393 41.5607C44.2206 41.842 44.6022 42 45 42H54C54.3978 42 54.7794 41.842 55.0607 41.5607C55.342 41.2794 55.5 40.8978 55.5 40.5V31.5C55.5 31.1022 55.342 30.7206 55.0607 30.4393C54.7794 30.158 54.3978 30 54 30H45C44.6022 30 44.2206 30.158 43.9393 30.4393C43.658 30.7206 43.5 31.1022 43.5 31.5V40.5ZM46.5 33H52.5V39H46.5V33Z" fill="#ED1C24"/>
<path d="M54 45H45C44.6022 45 44.2206 45.158 43.9393 45.4393C43.658 45.7206 43.5 46.1022 43.5 46.5V55.5C43.5 55.8978 43.658 56.2794 43.9393 56.5607C44.2206 56.842 44.6022 57 45 57H54C54.3978 57 54.7794 56.842 55.0607 56.5607C55.342 56.2794 55.5 55.8978 55.5 55.5V46.5C55.5 46.1022 55.342 45.7206 55.0607 45.4393C54.7794 45.158 54.3978 45 54 45ZM52.5 54H46.5V48H52.5V54Z" fill="#ED1C24"/>
<path d="M34.5 66H37.5V69H34.5V66Z" fill="#ED1C24"/>
<path d="M40.5 66H43.5V69H40.5V66Z" fill="#ED1C24"/>
<path d="M46.5 66H49.5V69H46.5V66Z" fill="#ED1C24"/>
</svg>
