<svg width="44" height="44" viewBox="0 0 44 44" fill="none" xmlns="http://www.w3.org/2000/svg">
<path fill-rule="evenodd" clip-rule="evenodd" d="M25 37.75H23.6155C20.653 37.75 18.25 35.359 18.25 32.4168C18.25 29.4745 20.653 27.0835 23.6155 27.0835C23.683 27.0835 23.7505 27.0843 23.818 27.0873C23.7985 26.8803 23.7887 26.6703 23.7887 26.458C23.7887 22.7575 26.8112 19.75 30.5387 19.75C34.1785 19.75 37.1477 22.6188 37.2835 26.2015C37.4935 26.1783 37.7072 26.167 37.9232 26.167C41.1407 26.167 43.75 28.7635 43.75 31.9585C43.75 35.1535 41.1407 37.75 37.9232 37.75H37V43C37 43.414 36.664 43.75 36.25 43.75H25.75C25.336 43.75 25 43.414 25 43V37.75ZM37 36.25H37.9232C40.3097 36.25 42.25 34.3285 42.25 31.9585C42.25 29.5885 40.3097 27.667 37.9232 27.667C37.5025 27.667 37.0952 27.7263 36.7105 27.8373C36.4697 27.907 36.211 27.8523 36.019 27.691C35.8278 27.5298 35.7287 27.283 35.7565 27.0348C35.7775 26.845 35.7887 26.653 35.7887 26.458C35.7887 23.5825 33.4345 21.25 30.5387 21.25C27.6422 21.25 25.2887 23.5825 25.2887 26.458C25.2887 26.914 25.3473 27.3565 25.4583 27.778C25.5258 28.0338 25.4537 28.3068 25.2677 28.495C25.0817 28.684 24.8102 28.7605 24.553 28.6968C24.253 28.6225 23.9387 28.5835 23.6155 28.5835C21.4832 28.5835 19.75 30.2995 19.75 32.4168C19.75 34.534 21.4832 36.25 23.6155 36.25H25V31C25 30.586 25.336 30.25 25.75 30.25H30.25C30.664 30.25 31 30.586 31 31C31 31.414 30.664 31.75 30.25 31.75H26.5V36.25H35.5V31.75H33.25C32.836 31.75 32.5 31.414 32.5 31C32.5 30.586 32.836 30.25 33.25 30.25H36.25C36.664 30.25 37 30.586 37 31V36.25ZM26.5 37.75V42.25H35.5V37.75H26.5ZM29.5 40.75C29.086 40.75 28.75 40.414 28.75 40C28.75 39.586 29.086 39.25 29.5 39.25H32.5C32.914 39.25 33.25 39.586 33.25 40C33.25 40.414 32.914 40.75 32.5 40.75H29.5ZM29.5 34.75C29.086 34.75 28.75 34.414 28.75 34C28.75 33.586 29.086 33.25 29.5 33.25H32.5C32.914 33.25 33.25 33.586 33.25 34C33.25 34.414 32.914 34.75 32.5 34.75H29.5ZM7 22H5.6155C2.653 22 0.25 19.609 0.25 16.6668C0.25 13.7245 2.653 11.3335 5.6155 11.3335C5.683 11.3335 5.7505 11.3343 5.818 11.3373C5.7985 11.1303 5.78875 10.9203 5.78875 10.708C5.78875 7.00751 8.81125 4.00001 12.5388 4.00001C16.21 4.00001 19.1987 6.91901 19.2865 10.5445C19.525 10.6353 19.7118 10.8453 19.7598 11.1145C19.8325 11.5218 19.5603 11.9118 19.153 11.9845C19.003 12.0115 18.8553 12.046 18.7105 12.0873C18.4698 12.157 18.211 12.1023 18.019 11.941C17.8277 11.7798 17.7287 11.533 17.7565 11.2848C17.7775 11.095 17.7888 10.903 17.7888 10.708C17.7888 7.83251 15.4345 5.50001 12.5388 5.50001C9.64225 5.50001 7.28875 7.83251 7.28875 10.708C7.28875 11.164 7.34725 11.6065 7.45825 12.028C7.52575 12.2838 7.45375 12.5568 7.26775 12.745C7.08175 12.934 6.81025 13.0105 6.553 12.9468C6.253 12.8725 5.93875 12.8335 5.6155 12.8335C3.48325 12.8335 1.75 14.5495 1.75 16.6668C1.75 18.784 3.48325 20.5 5.6155 20.5H7V15.25C7 14.836 7.336 14.5 7.75 14.5H18.25C18.664 14.5 19 14.836 19 15.25V20.5H19.9233C22.309 20.5 24.25 18.5785 24.25 16.2085C24.25 14.4633 23.1977 12.9618 21.691 12.2905C21.313 12.1225 21.1428 11.6785 21.3115 11.3005C21.4795 10.9225 21.9235 10.7523 22.3015 10.9203C24.334 11.8255 25.75 13.8543 25.75 16.2085C25.75 19.4035 23.1408 22 19.9233 22H19V27.25C19 27.664 18.664 28 18.25 28H7.75C7.336 28 7 27.664 7 27.25V22ZM17.5 20.5V16H8.5V20.5H17.5ZM8.5 22V26.5H17.5V22H8.5ZM11.5 25C11.086 25 10.75 24.664 10.75 24.25C10.75 23.836 11.086 23.5 11.5 23.5H14.5C14.914 23.5 15.25 23.836 15.25 24.25C15.25 24.664 14.914 25 14.5 25H11.5ZM11.5 19C11.086 19 10.75 18.664 10.75 18.25C10.75 17.836 11.086 17.5 11.5 17.5H14.5C14.914 17.5 15.25 17.836 15.25 18.25C15.25 18.664 14.914 19 14.5 19H11.5ZM43.4043 17.488L38.4692 20.644C38.2817 20.764 38.0508 20.7948 37.8385 20.7273C37.6263 20.6605 37.4552 20.5023 37.3712 20.296L35.1565 14.8728C35.0462 14.6035 35.1025 14.2953 35.2998 14.0808C35.497 13.867 35.8 13.7868 36.0775 13.8745L37.237 14.242C37.2895 13.2813 37.1853 12.3318 36.9423 11.4258C36.1713 8.56151 34.0038 6.13601 30.9685 5.17376C27.9265 4.20851 24.7488 4.94801 22.4673 6.85526C22.1598 7.11176 21.7045 7.08176 21.4338 6.78626L19.4042 4.57376C19.267 4.42376 19.1957 4.22426 19.2085 4.02101C19.2205 3.81776 19.315 3.62876 19.4703 3.49676C22.8993 0.568759 27.718 -0.577991 32.3282 0.883759C37.5423 2.53676 41.0507 7.06901 41.6567 12.172C41.7917 13.3053 41.7835 14.467 41.6185 15.6318L43.2265 16.1418C43.504 16.2295 43.7058 16.4703 43.7433 16.7583C43.7815 17.047 43.6495 17.3313 43.4043 17.488ZM41.2472 17.0875L40.5453 16.8648C40.1823 16.75 39.9633 16.3818 40.0353 16.0083C40.2723 14.7783 40.3097 13.546 40.1672 12.349C39.6287 7.81226 36.5102 3.78326 31.8752 2.31401C28.042 1.09826 24.0468 1.91201 21.052 4.15151L22.0713 5.26301C24.6783 3.37001 28.1185 2.69651 31.4215 3.74351C34.9623 4.86626 37.4913 7.69526 38.3905 11.0365C38.761 12.415 38.8547 13.8805 38.6275 15.3498C38.5937 15.5658 38.467 15.757 38.281 15.8725C38.095 15.988 37.8678 16.0158 37.6593 15.9498L37.1508 15.7885L38.419 18.8958L41.2472 17.0875Z" fill="#ED1C24"/>
</svg>
