<svg width="49" height="48" viewBox="0 0 49 48" fill="none" xmlns="http://www.w3.org/2000/svg">
<g clip-path="url(#clip0_1384_2240)">
<path d="M8.61814 37.1202C7.93214 37.1202 7.27269 37.288 6.68763 37.6029C3.60569 33.7328 1.91406 28.9252 1.91406 24C1.91406 11.8 12.0459 1.875 24.5 1.875C26.0141 1.875 27.5274 2.02258 28.998 2.31372C29.5154 2.41626 30.0209 2.08813 30.1255 1.58057C30.2302 1.073 29.8953 0.578613 29.3771 0.475708C27.7819 0.160034 26.1412 0 24.5 0C17.9559 0 11.8033 2.49646 7.17586 7.02942C2.54847 11.5624 0 17.5895 0 24C0 29.3925 1.8692 34.6549 5.27227 38.8737C4.83413 39.5149 4.59861 40.2686 4.59861 41.0577C4.59861 42.1095 5.01694 43.0983 5.77621 43.8417C6.5351 44.5854 7.54447 44.9952 8.61814 44.9952C9.69181 44.9952 10.7012 44.5854 11.4604 43.8417C12.2197 43.0983 12.6377 42.1091 12.6377 41.0574C12.6377 40.006 12.2197 39.0168 11.4604 38.2734C10.7012 37.5297 9.69181 37.1202 8.61814 37.1202ZM10.1068 42.516C9.70938 42.9056 9.1804 43.1202 8.61814 43.1202C8.05588 43.1202 7.52727 42.9056 7.12951 42.516C6.73174 42.1263 6.51267 41.6085 6.51267 41.0577C6.51267 40.5066 6.73174 39.9888 7.12951 39.5991C7.5269 39.2095 8.05588 38.9952 8.61814 38.9952C9.1804 38.9952 9.70901 39.2098 10.1068 39.5991C10.5045 39.9888 10.7236 40.5066 10.7236 41.0577C10.7236 41.6085 10.5045 42.1263 10.1068 42.516Z" fill="#ED1C24"/>
<path d="M43.7266 9.12512C44.767 7.59619 44.5999 5.50586 43.2238 4.15784C42.4645 3.41443 41.4551 3.00464 40.3814 3.00464C39.3078 3.00464 38.2984 3.41443 37.5391 4.15784C36.7799 4.90161 36.3619 5.89038 36.3619 6.94214C36.3619 7.9939 36.7799 8.98267 37.5391 9.72644C38.2984 10.4702 39.3078 10.8796 40.3814 10.8796C41.0674 10.8796 41.7269 10.7119 42.312 10.397C45.3939 14.2675 47.0855 19.0747 47.0855 23.9999C47.0855 36.1998 36.9537 46.1249 24.4996 46.1249C23.0005 46.1249 21.5014 45.9802 20.0445 45.6946C19.5264 45.5931 19.0221 45.9224 18.9182 46.4299C18.8146 46.9379 19.1507 47.4315 19.6688 47.5333C21.249 47.8428 22.8745 47.9999 24.4996 47.9999C31.0437 47.9999 37.1963 45.5034 41.8237 40.9705C46.4511 36.4375 48.9996 30.4104 48.9996 23.9999C48.9996 18.6071 47.13 13.3442 43.7266 9.12512ZM38.8928 8.40076C38.495 8.01111 38.276 7.49329 38.276 6.94214C38.276 6.39136 38.495 5.87354 38.8928 5.48389C39.2902 5.09424 39.8192 4.87964 40.3814 4.87964C40.9437 4.87964 41.4727 5.09424 41.8705 5.48389C42.691 6.28809 42.691 7.59656 41.8705 8.40076C41.4727 8.79004 40.9437 9.00464 40.3814 9.00464C39.8188 9.00464 39.2902 8.79004 38.8928 8.40076Z" fill="#ED1C24"/>
<path d="M20.5503 40.125C20.5503 40.6428 20.9791 41.0625 21.5073 41.0625H27.4914C28.02 41.0625 28.4484 40.6428 28.4484 40.125V38.3075C29.7068 37.9757 30.9098 37.4872 32.0403 36.8492L33.3502 38.1324C33.5297 38.3082 33.773 38.4071 34.0272 38.4071C34.2807 38.4071 34.5244 38.3082 34.7039 38.1321L38.9335 33.9858C39.307 33.6196 39.307 33.026 38.9335 32.6602L37.6251 31.3784C38.2763 30.271 38.775 29.0925 39.1137 27.8599H40.962C41.4906 27.8599 41.919 27.4402 41.919 26.9224V21.0604C41.919 20.5426 41.4906 20.1229 40.962 20.1229H39.1133C38.7746 18.8906 38.2763 17.7122 37.6251 16.6047L38.9264 15.33C39.1059 15.1542 39.2068 14.9154 39.2068 14.6667C39.2064 14.4181 39.1055 14.1793 38.926 14.0035L34.693 9.86023C34.3196 9.49438 33.7136 9.49438 33.3397 9.8606L32.0403 11.1339C30.9098 10.496 29.7068 10.0074 28.4484 9.67566V7.875C28.4484 7.35718 28.02 6.9375 27.4914 6.9375H21.5073C20.9791 6.9375 20.5503 7.35718 20.5503 7.875V9.67603C19.2923 10.0074 18.0893 10.496 16.9588 11.1339L15.659 9.8606C15.2855 9.49475 14.6795 9.49438 14.3057 9.86023L10.073 14.0039C9.89323 14.1797 9.79229 14.4181 9.79229 14.6667C9.79229 14.9154 9.89323 15.1542 10.0727 15.33L11.374 16.6047C10.7228 17.7122 10.2241 18.8903 9.88538 20.1229H8.04047C7.51186 20.1229 7.08344 20.5426 7.08344 21.0601L7.08008 26.922C7.07971 27.1707 7.18064 27.4094 7.36009 27.5852C7.53953 27.761 7.7829 27.8599 8.03711 27.8599H9.88538C10.2241 29.0925 10.7228 30.271 11.374 31.3784L10.0656 32.6602C9.6921 33.026 9.69173 33.6196 10.0656 33.9858L14.2952 38.1321C14.4746 38.3079 14.718 38.4071 14.9718 38.4071H14.9722C15.2261 38.4071 15.4694 38.3082 15.6489 38.1324L16.9584 36.8492C18.0893 37.4872 19.2923 37.9757 20.5503 38.3075V40.125ZM17.3338 34.8776C16.9551 34.6377 16.4567 34.6897 16.1375 35.0021L14.9722 36.1436L12.0955 33.3234L13.2597 32.1826C13.5785 31.8702 13.6316 31.3821 13.3868 31.0111C12.5191 29.6957 11.909 28.2539 11.574 26.7253C11.4791 26.2936 11.0895 25.9849 10.6383 25.9849H8.99452L8.99676 21.9979H10.6383C11.0895 21.9979 11.4791 21.6896 11.574 21.2574C11.909 19.7292 12.5191 18.2875 13.3868 16.972C13.6316 16.6011 13.5785 16.1129 13.2597 15.8005L12.103 14.6671L14.9819 11.8491L16.1375 12.9814C16.4567 13.2938 16.9547 13.3455 17.3338 13.106C18.6762 12.256 20.148 11.6583 21.7085 11.3302C22.1492 11.2372 22.4644 10.8552 22.4644 10.4136V8.8125H26.5344V10.4132C26.5344 10.8552 26.8491 11.2372 27.2903 11.3298C28.8503 11.6583 30.3225 12.2556 31.6649 13.1056C32.0436 13.3455 32.542 13.2938 32.8609 12.9811L34.0168 11.8491L36.8957 14.6671L35.7391 15.8002C35.4198 16.1129 35.3671 16.6011 35.6119 16.972C36.4796 18.2875 37.0894 19.7292 37.4247 21.2574C37.5193 21.6896 37.9092 21.9979 38.3604 21.9979H40.0049V25.9849H38.3604C37.9092 25.9849 37.5197 26.2936 37.4247 26.7253C37.0897 28.2535 36.4796 29.6957 35.6119 31.0107C35.3671 31.3821 35.4202 31.8702 35.7391 32.1826L36.9032 33.323L34.0265 36.1432L32.8612 35.0021C32.542 34.6893 32.0436 34.6377 31.6649 34.8776C30.3221 35.7275 28.8503 36.3248 27.2903 36.6533C26.8491 36.7463 26.5344 37.1279 26.5344 37.5699V39.1875H22.4644V37.5699C22.4644 37.1283 22.1492 36.7463 21.7085 36.6533C20.1484 36.3252 18.6766 35.7275 17.3338 34.8776Z" fill="#ED1C24"/>
<path d="M32.4075 23.9999C32.4075 19.7284 28.8601 16.2534 24.4996 16.2534C20.1392 16.2534 16.5918 19.7284 16.5918 23.9999C16.5918 28.2714 20.1392 31.7463 24.4996 31.7463C28.8601 31.7463 32.4075 28.2714 32.4075 23.9999ZM18.5059 23.9999C18.5059 20.7622 21.1945 18.1284 24.4996 18.1284C27.8048 18.1284 30.4934 20.7626 30.4934 23.9999C30.4934 27.2372 27.8048 29.8713 24.4996 29.8713C21.1945 29.8713 18.5059 27.2375 18.5059 23.9999Z" fill="#ED1C24"/>
<path d="M33.3125 3.54553C33.5645 3.54553 33.8112 3.44519 33.9892 3.27087C34.1671 3.09546 34.2695 2.85376 34.2695 2.60693C34.2695 2.36157 34.1675 2.11951 33.9892 1.94409C33.8112 1.76978 33.5645 1.66943 33.3125 1.66943C33.0598 1.66943 32.8142 1.76978 32.6362 1.94409C32.4579 2.11951 32.3555 2.36047 32.3555 2.60693C32.3555 2.85449 32.4579 3.09546 32.6362 3.27087C32.8142 3.44519 33.0598 3.54553 33.3125 3.54553Z" fill="#ED1C24"/>
<path d="M15.7295 44.4712C15.4779 44.4712 15.2308 44.5715 15.0528 44.7458C14.8749 44.9202 14.7725 45.1622 14.7725 45.4087C14.7725 45.6562 14.8749 45.8972 15.0528 46.0715C15.2308 46.2458 15.4779 46.3462 15.7295 46.3462C15.9811 46.3462 16.2282 46.2458 16.4061 46.0715C16.5841 45.8972 16.6865 45.6552 16.6865 45.4087C16.6865 45.1622 16.5841 44.9202 16.4061 44.7458C16.2282 44.5715 15.9811 44.4712 15.7295 44.4712Z" fill="#ED1C24"/>
</g>
<defs>
<clipPath id="clip0_1384_2240">
<rect width="49" height="48" fill="white"/>
</clipPath>
</defs>
</svg>
