<svg width="48" height="48" viewBox="0 0 48 48" fill="none" xmlns="http://www.w3.org/2000/svg">
<path d="M33.816 26.2993C32.5361 26.2984 31.2846 26.677 30.22 27.3874C29.1553 28.0978 28.3252 29.108 27.8347 30.2903C27.3443 31.4725 27.2154 32.7736 27.4646 34.0291C27.7137 35.2845 28.3296 36.4379 29.2343 37.3433C30.139 38.2487 31.2919 38.8654 32.5471 39.1154C33.8024 39.3655 35.1036 39.2376 36.2862 38.748C37.4688 38.2585 38.4796 37.4291 39.1908 36.365C39.902 35.3008 40.2816 34.0496 40.2816 32.7697C40.2804 31.0549 39.5989 29.4106 38.3868 28.1976C37.1747 26.9845 35.5309 26.3019 33.816 26.2993ZM33.816 37.7857C32.8237 37.7867 31.8535 37.4933 31.028 36.9427C30.2025 36.3921 29.5588 35.6091 29.1784 34.6926C28.798 33.7761 28.698 32.7674 28.891 31.7941C29.084 30.8208 29.5614 29.9266 30.2627 29.2246C30.964 28.5226 31.8577 28.0444 32.8309 27.8505C33.804 27.6565 34.8128 27.7556 35.7297 28.1351C36.6465 28.5146 37.4302 29.1575 37.9815 29.9825C38.5329 30.8075 38.8272 31.7774 38.8272 32.7697C38.826 34.0988 38.2977 35.3732 37.3584 36.3135C36.419 37.2537 35.1451 37.7832 33.816 37.7857Z" fill="#ED1C24"/>
<path d="M46.5602 36.36V29.16H43.541C43.445 28.9104 43.3442 28.68 43.229 28.416L45.365 26.28L40.2866 21.216L38.1506 23.3568C37.9058 23.2416 37.6706 23.136 37.4066 23.0448V20.0256H30.2402V23.04C29.9906 23.1312 29.7602 23.2368 29.4962 23.352L27.3602 21.216L22.2626 26.2992L24.3986 28.4352C24.2882 28.68 24.1826 28.9152 24.0914 29.1792H21.0674V36.3792H24.0914C24.1826 36.6336 24.2882 36.8592 24.3986 37.1232L22.2626 39.264L27.3602 44.3232L29.4962 42.1872C29.741 42.3024 29.9762 42.4032 30.2402 42.4992V45.5184H37.4402V42.4992C37.6898 42.4032 37.9202 42.3024 38.1842 42.1872L40.3202 44.3232L45.365 39.2448L43.229 37.104C43.3442 36.8592 43.445 36.624 43.541 36.36H46.5602ZM43.3106 39.24L40.2866 42.2592L38.4338 40.4064L37.9538 40.656C37.4831 40.9095 36.9898 41.1184 36.4802 41.28L35.9714 41.4384V44.0592H31.6802V41.4384L31.1666 41.28C30.6509 41.1201 30.1512 40.9128 29.6738 40.6608L29.1938 40.4112L27.3602 42.264L24.341 39.2448L26.1938 37.3872L25.9442 36.9072C25.6938 36.429 25.4866 35.9294 25.325 35.4144L25.1666 34.9008H22.5218V30.6288H25.1474L25.3058 30.12C25.4653 29.605 25.6709 29.1053 25.9202 28.6272L26.1698 28.1472L24.317 26.2944L27.3602 23.2752L29.2178 25.1328L29.6978 24.8832C30.1751 24.6297 30.6748 24.4208 31.1906 24.2592L31.6802 24.1008V21.48H35.9522V24.1008L36.461 24.2592C36.978 24.4217 37.4792 24.6305 37.9586 24.8832L38.4386 25.1328L40.2914 23.2752L43.3154 26.2992L41.4578 28.152L41.7074 28.632C41.9586 29.1115 42.1658 29.6128 42.3266 30.1296L42.485 30.6384H45.1202V34.9104H42.4802L42.3218 35.424C42.161 35.9394 41.9538 36.439 41.7026 36.9168L41.453 37.3968L43.3106 39.24Z" fill="#ED1C24"/>
<path d="M8.99083 24.3744C8.9921 25.3054 9.36284 26.1979 10.0216 26.8558C10.6804 27.5137 11.5734 27.8832 12.5044 27.8832C13.4355 27.8832 14.3284 27.5137 14.9872 26.8558C15.646 26.1979 16.0168 25.3054 16.018 24.3744V22.1088H22.4884V14.304H18.6484C18.1023 14.304 17.5785 14.0871 17.1924 13.7009C16.8062 13.3147 16.5892 12.7909 16.5892 12.2448C16.5892 11.6987 16.8062 11.1749 17.1924 10.7887C17.5785 10.4026 18.1023 10.1856 18.6484 10.1856H22.3684V2.50562H1.44043V22.0128H8.99083V24.3744ZM2.88043 20.5584V3.94082H20.938V8.74082H18.6724C17.7406 8.74082 16.8469 9.111 16.1879 9.76993C15.529 10.4289 15.1588 11.3226 15.1588 12.2544C15.1588 13.1863 15.529 14.08 16.1879 14.7389C16.8469 15.3978 17.7406 15.768 18.6724 15.768H21.034V20.64H14.5588V24.36C14.5333 24.8883 14.3055 25.3866 13.9225 25.7514C13.5396 26.1163 13.031 26.3198 12.502 26.3198C11.9731 26.3198 11.4645 26.1163 11.0815 25.7514C10.6986 25.3866 10.4708 24.8883 10.4452 24.36V20.52L2.88043 20.5584Z" fill="#ED1C24"/>
<path d="M39.1875 16.9584H40.6419V6.86401H30.4707V8.31841H39.1875V16.9584Z" fill="#ED1C24"/>
<path d="M8.8128 31.0415H7.3584V41.1359H17.5296V39.6815H8.8128V31.0415Z" fill="#ED1C24"/>
</svg>
