<svg width="48" height="48" viewBox="0 0 48 48" fill="none" xmlns="http://www.w3.org/2000/svg">
<path d="M34.0688 35.25C33.9703 35.25 33.8728 35.2694 33.7818 35.307C33.6908 35.3447 33.6081 35.4 33.5385 35.4696C33.4688 35.5393 33.4136 35.622 33.3759 35.713C33.3382 35.804 33.3188 35.9015 33.3188 36V42C33.3184 42.3977 33.1602 42.779 32.879 43.0602C32.5978 43.3414 32.2165 43.4995 31.8188 43.5H12.3936C11.9959 43.4995 11.6146 43.3414 11.3334 43.0602C11.0522 42.779 10.894 42.3977 10.8936 42V6C10.894 5.60231 11.0522 5.22105 11.3334 4.93984C11.6146 4.65864 11.9959 4.50045 12.3936 4.5H16.3159L16.895 6.23731C16.9447 6.38663 17.0401 6.51652 17.1678 6.60855C17.2954 6.70057 17.4488 6.75007 17.6062 6.75H26.6062C26.7636 6.75006 26.917 6.70057 27.0446 6.60855C27.1723 6.51652 27.2677 6.38663 27.3174 6.23731L27.8965 4.5H31.8188C32.2165 4.50045 32.5978 4.65864 32.879 4.93984C33.1602 5.22105 33.3184 5.60231 33.3188 6V12C33.3188 12.1989 33.3979 12.3897 33.5385 12.5303C33.6792 12.671 33.8699 12.75 34.0688 12.75C34.2678 12.75 34.4585 12.671 34.5992 12.5303C34.7398 12.3897 34.8188 12.1989 34.8188 12V6C34.818 5.20461 34.5017 4.44204 33.9392 3.87961C33.3768 3.31719 32.6142 3.00085 31.8188 3H12.3936C11.5982 3.00085 10.8356 3.31719 10.2732 3.87962C9.71074 4.44204 9.3944 5.20461 9.39355 6V42C9.3944 42.7954 9.71074 43.558 10.2732 44.1204C10.8356 44.6828 11.5982 44.9992 12.3936 45H31.8188C32.6142 44.9992 33.3768 44.6828 33.9392 44.1204C34.5017 43.558 34.818 42.7954 34.8188 42V36C34.8189 35.9015 34.7995 35.804 34.7618 35.713C34.7241 35.622 34.6689 35.5393 34.5992 35.4696C34.5296 35.4 34.4469 35.3447 34.3559 35.307C34.2649 35.2694 34.1673 35.25 34.0688 35.25ZM26.3158 4.5L26.0657 5.25H18.1467L17.8966 4.5H26.3158Z" fill="#ED1C24"/>
<path d="M19.1064 40.5C18.9075 40.5 18.7168 40.579 18.5761 40.7197C18.4355 40.8603 18.3564 41.0511 18.3564 41.25C18.3564 41.4489 18.4355 41.6397 18.5761 41.7803C18.7168 41.921 18.9075 42 19.1064 42H25.1064C25.3054 42 25.4961 41.921 25.6368 41.7803C25.7774 41.6397 25.8564 41.4489 25.8564 41.25C25.8564 41.0511 25.7774 40.8603 25.6368 40.7197C25.4961 40.579 25.3054 40.5 25.1064 40.5H19.1064Z" fill="#ED1C24"/>
<path d="M28.321 16.5C28.3204 15.9035 28.0831 15.3315 27.6613 14.9097C27.2395 14.4879 26.6676 14.2507 26.071 14.25H21.3564C20.7599 14.2507 20.188 14.4879 19.7662 14.9097C19.3444 15.3315 19.1071 15.9035 19.1064 16.5V21.2142C19.1071 21.8108 19.3444 22.3827 19.7662 22.8045C20.188 23.2263 20.7599 23.4636 21.3564 23.4642H26.071C26.6676 23.4636 27.2395 23.2263 27.6613 22.8045C28.0831 22.3827 28.3204 21.8108 28.321 21.2142V16.5ZM26.821 21.2142C26.8208 21.4131 26.7418 21.6037 26.6012 21.7443C26.4605 21.885 26.2699 21.964 26.071 21.9642H21.3564C21.1576 21.964 20.9669 21.885 20.8263 21.7443C20.6857 21.6037 20.6066 21.4131 20.6064 21.2142V16.5C20.6066 16.3011 20.6857 16.1105 20.8263 15.9699C20.9669 15.8293 21.1576 15.7502 21.3564 15.75H26.071C26.2699 15.7502 26.4605 15.8293 26.6012 15.9699C26.7418 16.1105 26.8208 16.3011 26.821 16.5V21.2142Z" fill="#ED1C24"/>
<path d="M36.3562 14.25H31.6416C31.0451 14.2507 30.4731 14.4879 30.0513 14.9097C29.6295 15.3315 29.3923 15.9035 29.3916 16.5V21.2142C29.3923 21.8108 29.6295 22.3827 30.0513 22.8045C30.4731 23.2263 31.0451 23.4636 31.6416 23.4642H36.3562C36.9527 23.4636 37.5246 23.2263 37.9464 22.8045C38.3683 22.3827 38.6055 21.8108 38.6062 21.2142V16.5C38.6055 15.9035 38.3683 15.3315 37.9464 14.9097C37.5246 14.4879 36.9527 14.2507 36.3562 14.25ZM37.1062 21.2142C37.106 21.4131 37.0269 21.6037 36.8863 21.7443C36.7457 21.885 36.555 21.964 36.3562 21.9642H31.6416C31.4428 21.964 31.2521 21.885 31.1115 21.7443C30.9709 21.6037 30.8918 21.4131 30.8916 21.2142V16.5C30.8918 16.3011 30.9709 16.1105 31.1115 15.9699C31.2521 15.8293 31.4428 15.7502 31.6416 15.75H36.3562C36.555 15.7502 36.7457 15.8293 36.8863 15.9699C37.0269 16.1105 37.106 16.3011 37.1062 16.5V21.2142Z" fill="#ED1C24"/>
<path d="M28.321 31.5V26.7858C28.3204 26.1892 28.0831 25.6173 27.6613 25.1955C27.2395 24.7737 26.6676 24.5364 26.071 24.5358H21.3564C20.7599 24.5364 20.188 24.7737 19.7662 25.1955C19.3444 25.6173 19.1071 26.1892 19.1064 26.7858V31.5C19.1071 32.0965 19.3444 32.6685 19.7662 33.0903C20.188 33.5121 20.7599 33.7493 21.3564 33.75H26.071C26.6676 33.7493 27.2395 33.5121 27.6613 33.0903C28.0831 32.6685 28.3204 32.0965 28.321 31.5ZM20.6064 31.5V26.7858C20.6066 26.5869 20.6857 26.3963 20.8263 26.2557C20.9669 26.115 21.1576 26.036 21.3564 26.0358H26.071C26.2699 26.036 26.4605 26.115 26.6012 26.2557C26.7418 26.3963 26.8208 26.5869 26.821 26.7858V31.5C26.8208 31.6988 26.7418 31.8895 26.6012 32.0301C26.4605 32.1707 26.2699 32.2498 26.071 32.25H21.3564C21.1576 32.2498 20.9669 32.1707 20.8263 32.0301C20.6857 31.8895 20.6066 31.6988 20.6064 31.5Z" fill="#ED1C24"/>
<path d="M36.3562 24.5358H31.6416C31.0451 24.5364 30.4731 24.7737 30.0513 25.1955C29.6295 25.6173 29.3923 26.1892 29.3916 26.7858V31.5C29.3923 32.0965 29.6295 32.6685 30.0513 33.0903C30.4731 33.5121 31.0451 33.7493 31.6416 33.75H36.3562C36.9527 33.7493 37.5246 33.5121 37.9464 33.0903C38.3683 32.6685 38.6055 32.0965 38.6062 31.5V26.7858C38.6055 26.1892 38.3683 25.6173 37.9464 25.1955C37.5246 24.7737 36.9527 24.5364 36.3562 24.5358ZM37.1062 31.5C37.106 31.6988 37.0269 31.8895 36.8863 32.0301C36.7457 32.1707 36.555 32.2498 36.3562 32.25H31.6416C31.4428 32.2498 31.2521 32.1707 31.1115 32.0301C30.9709 31.8895 30.8918 31.6988 30.8916 31.5V26.7858C30.8918 26.5869 30.9709 26.3963 31.1115 26.2557C31.2521 26.115 31.4428 26.036 31.6416 26.0358H36.3562C36.555 26.036 36.7457 26.115 36.8863 26.2557C37.0269 26.3963 37.106 26.5869 37.1062 26.7858V31.5Z" fill="#ED1C24"/>
</svg>
