<svg width="48" height="48" viewBox="0 0 48 48" fill="none" xmlns="http://www.w3.org/2000/svg">
<g clip-path="url(#clip0_1384_2226)">
<path d="M36.6966 31.9404C36.9882 29.9939 36.3373 28.0248 34.943 26.6357L33.2959 24.9806C31.994 23.6971 29.9049 23.69 28.5944 24.9646C28.2759 25.276 28.0959 25.7023 28.0952 26.1478C28.0916 26.5863 28.2645 27.0078 28.5752 27.3173L30.3703 29.1125C30.5429 29.2897 30.6355 29.5298 30.6266 29.777C30.6177 30.0242 30.508 30.257 30.3232 30.4212C29.9246 30.7179 29.3665 30.6665 29.0288 30.302L27.3113 28.5829C27.0031 28.2742 26.5843 28.1013 26.1481 28.1029H26.1417C25.6965 28.1037 25.2701 28.2832 24.9585 28.6013C23.6825 29.9128 23.6906 32.0044 24.9769 33.306L26.7729 35.1011C28.1401 36.4664 30.091 37.0723 31.9911 36.7219L36.6934 41.4314C38.0038 42.7231 40.1085 42.7231 41.4189 41.4314L41.4237 41.4266C42.717 40.116 42.717 38.0093 41.4237 36.6987L36.6966 31.9404ZM40.2901 40.2962C39.6053 40.9691 38.5077 40.9691 37.8229 40.2962L33.1247 35.5891C32.7448 35.2171 32.2069 35.0548 31.6847 35.1547C30.3068 35.3991 28.8963 34.956 27.9056 33.9675L26.1121 32.1747C25.4408 31.4968 25.4358 30.4061 26.1009 29.722L26.1809 29.7132L27.9 31.4323C28.8295 32.3967 30.3455 32.4815 31.3767 31.6267C31.9205 31.1505 32.2315 30.4623 32.2295 29.7395C32.2325 29.0795 31.9712 28.4457 31.5039 27.9795L29.7087 26.1843L29.7176 26.1044C30.4001 25.4408 31.4877 25.444 32.1663 26.1116L33.8103 27.7651C34.8462 28.7919 35.3321 30.2501 35.119 31.693C35.0312 32.2037 35.1953 32.7254 35.5598 33.0938L40.2909 37.8257C40.9656 38.5111 40.9653 39.6113 40.2901 40.2962Z" fill="#ED1C24"/>
<path d="M33.5991 19.2055C33.3287 19.2055 33.0655 19.2311 32.7992 19.2463V16.7255C34.9447 16.4925 36.7804 15.0804 37.5558 13.0664C38.4942 10.3248 40.2062 9.58727 40.2926 9.5513C40.7043 9.39096 40.9082 8.92712 40.7477 8.5153C40.5874 8.10356 40.1235 7.8997 39.7117 8.06013C39.611 8.09931 37.2406 9.04811 36.0422 12.548C35.4984 13.9199 34.2603 14.8944 32.7991 15.1007V14.4056C32.7991 12.6383 31.3664 11.2056 29.5991 11.2056V10.4057C29.5948 8.06607 27.9058 6.06969 25.5993 5.67779V4.80582C25.5993 2.15491 23.4502 0.00598145 20.7994 0.00598145C18.1486 0.00598145 15.9996 2.15499 15.9996 4.80582V5.67779C13.693 6.06969 12.004 8.06607 11.9997 10.4057V11.2056C10.2324 11.2056 8.79973 12.6383 8.79973 14.4056V15.0959C7.34059 14.887 6.1041 13.9149 5.55659 12.5464C4.35663 9.04651 1.98786 8.0977 1.8871 8.05852C1.47536 7.89769 1.01111 8.10115 0.850289 8.51289C0.689465 8.92463 0.892924 9.38887 1.30466 9.5497C1.37749 9.57932 3.09982 10.3113 4.04301 13.0648C4.81799 15.0795 6.65378 16.4922 8.79965 16.7255V20.8054H0.799947C0.358101 20.8054 0 21.1636 0 21.6053C0 22.0472 0.358181 22.4053 0.799947 22.4053H8.79973V25.6852C6.65418 25.9182 4.81855 27.3303 4.04309 29.3443C3.10472 32.0851 1.39274 32.8251 1.30635 32.861C0.894611 33.0214 0.69075 33.4852 0.851173 33.897C1.01152 34.3088 1.47536 34.5126 1.88718 34.3522C1.98794 34.313 4.35832 33.3642 5.55667 29.8643C6.10884 28.4786 7.36661 27.4996 8.84542 27.3044C9.3185 33.2492 14.073 37.9516 20.0228 38.3592C22.4457 45.2724 29.6745 49.263 36.8156 47.6293C43.9567 45.9957 48.7315 39.2592 47.9078 31.9802C47.0841 24.7013 40.9246 19.202 33.5991 19.2055ZM31.1992 14.4056V19.4223C27.2751 20.0879 23.8008 22.3462 21.5994 25.6622V19.2055H23.1994C25.8492 19.2028 27.9966 17.0554 27.9993 14.4057V12.8057H29.5992C30.4828 12.8056 31.1992 13.522 31.1992 14.4056ZM15.1996 12.8056H26.3994V14.4056C26.3994 16.1729 24.9667 17.6055 23.1994 17.6055H18.3996C16.6323 17.6055 15.1996 16.1729 15.1996 14.4056V12.8056ZM17.5995 4.80582C17.5995 3.03852 19.0322 1.60587 20.7995 1.60587C22.5668 1.60587 23.9994 3.03852 23.9994 4.80582V5.60577H17.5996L17.5995 4.80582ZM13.5997 10.4057C13.5997 8.63839 15.0323 7.20574 16.7996 7.20574H24.7994C26.5667 7.20574 27.9993 8.63839 27.9993 10.4057V11.2056H13.5997V10.4057ZM10.3997 26.4053V14.4056C10.3997 13.522 11.1161 12.8056 11.9997 12.8056H13.5997V14.4056C13.6023 17.0554 15.7497 19.2028 18.3995 19.2054H19.9995V28.9148C19.1168 31.4236 18.961 34.1307 19.5499 36.7242C14.34 36.0729 10.4231 31.6557 10.3997 26.4053ZM33.5991 46.4047C26.5301 46.4047 20.7994 40.6741 20.7994 33.605C20.7994 26.5359 26.53 20.8053 33.5991 20.8053C40.6682 20.8053 46.3988 26.5359 46.3988 33.605C46.3904 40.6707 40.6647 46.3964 33.5991 46.4047Z" fill="#ED1C24"/>
</g>
<defs>
<clipPath id="clip0_1384_2226">
<rect width="48" height="48" fill="white"/>
</clipPath>
</defs>
</svg>
