<svg width="48" height="48" viewBox="0 0 48 48" fill="none" xmlns="http://www.w3.org/2000/svg">
<g clip-path="url(#clip0_1424_1029)">
<path d="M24.1692 36.466C24.1692 36.7249 23.9593 36.9347 23.7004 36.9347H20.1695C19.9107 36.9347 19.7008 36.7249 19.7008 36.466C19.7008 36.207 19.9107 35.9972 20.1695 35.9972H23.7004C23.9593 35.9972 24.1692 36.207 24.1692 36.466ZM43.5625 32.9326V38.3218C43.5625 40.1087 42.1087 41.5624 40.3218 41.5624H30.1455C28.9307 41.5624 27.8703 40.8901 27.3156 39.8983H15.6429C13.2891 39.8983 11.3742 37.9834 11.3742 35.6297V22.6321H8.89178C8.63294 22.6321 8.42303 22.4223 8.42303 22.1634V10.6305H3.75991C1.92784 10.6305 0.4375 9.14009 0.4375 7.30813V1.75981C0.4375 -0.0721563 1.92784 -1.5625 3.75981 -1.5625H14.0236C15.8555 -1.5625 17.346 -0.0721563 17.346 1.75981V4.55656H28.2269C29.6575 4.55656 30.9899 5.28725 31.7761 6.46147L37.1307 1.10684C37.3138 0.92375 37.6106 0.92375 37.7936 1.10684L39.9042 3.21734C39.9921 3.30528 40.0415 3.42444 40.0415 3.54875C40.0415 3.67306 39.9921 3.79231 39.9043 3.88016L32.4957 11.2888V26.4761H35.2337C35.4925 26.4761 35.7024 26.6859 35.7024 26.9448V29.6922H40.3218C42.1087 29.6921 43.5625 31.1458 43.5625 32.9326ZM32.4957 27.4134V29.6921H34.7649V27.4134H32.4957ZM25.772 13.7912L25.1144 15.8966L27.2197 15.2389L38.91 3.54866L37.4623 2.10116L25.772 13.7912ZM25.8445 16.6507L24.5401 17.0581C24.4941 17.0725 24.4471 17.0795 24.4004 17.0795C24.2779 17.0795 24.1581 17.0314 24.0689 16.9422C23.9456 16.819 23.9009 16.6374 23.9529 16.471L24.4283 14.9491C23.7033 14.4348 22.8296 14.1538 21.935 14.1538C19.7171 14.1538 17.8851 15.8381 17.6507 17.9947H26.2191C26.1682 17.5287 26.0409 17.0744 25.8445 16.6507ZM21.9349 13.2163C22.9632 13.2163 23.7997 12.3798 23.7997 11.3516C23.7997 10.3233 22.9632 9.48678 21.9349 9.48678C20.9068 9.48678 20.0702 10.3233 20.0702 11.3516C20.0702 12.3798 20.9067 13.2163 21.9349 13.2163ZM3.75981 9.69303H14.0236C15.3386 9.69303 16.4085 8.62316 16.4085 7.30822V1.75981C16.4085 0.444875 15.3386 -0.625 14.0236 -0.625H3.75981C2.44488 -0.625 1.375 0.444875 1.375 1.75981V7.30813C1.375 8.62306 2.44488 9.69303 3.75981 9.69303ZM11.3742 21.6946V10.6305H9.36053V21.6947H11.3742V21.6946ZM15.5357 23.4113V22.6321H12.3116V33.3308H26.9048V32.9326C26.9048 31.1457 28.3585 29.6921 30.1454 29.6921H31.5581V27.4134H28.3341V28.1925C28.3341 28.4515 28.1242 28.6613 27.8654 28.6613H16.0044C15.7456 28.6613 15.5357 28.4515 15.5357 28.1925V25.6967C15.5357 25.4378 15.7456 25.228 16.0044 25.228H27.8655C28.1243 25.228 28.3342 25.4378 28.3342 25.6967V26.476H31.5582V12.2262L27.8011 15.9834C27.7474 16.037 27.6817 16.0767 27.6093 16.0993L26.7462 16.369C27.032 17.0263 27.182 17.7402 27.182 18.4633C27.182 18.7223 26.9721 18.9321 26.7133 18.9321H17.1566C16.8978 18.9321 16.6878 18.7223 16.6878 18.4633C16.6878 16.1903 18.141 14.251 20.1668 13.5236C19.5362 13.0092 19.1327 12.2267 19.1327 11.3515C19.1327 9.80637 20.3897 8.54919 21.9348 8.54919C23.4799 8.54919 24.7371 9.80628 24.7371 11.3515C24.7371 12.2267 24.3335 13.0093 23.7029 13.5236C24.0577 13.6505 24.399 13.8154 24.7197 14.0159L24.9116 13.4015C24.9342 13.3292 24.974 13.2634 25.0276 13.2099L31.0956 7.14181C30.4989 6.13203 29.4062 5.49387 28.227 5.49387H17.346V7.30803C17.346 9.14 15.8555 10.6303 14.0236 10.6303H12.3116V21.6945H15.5357V20.9153C15.5357 20.6563 15.7456 20.4465 16.0044 20.4465H27.8655C28.1243 20.4465 28.3342 20.6563 28.3342 20.9153V23.4111C28.3342 23.67 28.1243 23.8798 27.8655 23.8798H16.0044C15.7456 23.88 15.5357 23.6701 15.5357 23.4113ZM27.3967 22.9425V21.3842H16.4732V22.9425H27.3967ZM16.4732 26.1655V27.7238H27.3967V26.1655H16.4732ZM26.9685 38.9609C26.9269 38.7542 26.9049 38.5407 26.9049 38.3219V34.2684H12.3117V35.6298C12.3117 37.4667 13.8061 38.9609 15.6429 38.9609H26.9685ZM42.625 32.9326C42.625 31.6627 41.5918 30.6296 40.3218 30.6296H30.1455C28.8755 30.6296 27.8424 31.6628 27.8424 32.9326V38.3218C27.8424 39.5918 28.8756 40.6249 30.1455 40.6249H40.3218C41.5918 40.625 42.625 39.5918 42.625 38.3219V32.9326ZM13.2512 2.34256H4.53241C4.27356 2.34256 4.06366 2.55237 4.06366 2.81131C4.06366 3.07025 4.27356 3.28006 4.53241 3.28006H13.2512C13.51 3.28006 13.7199 3.07025 13.7199 2.81131C13.7199 2.55237 13.51 2.34256 13.2512 2.34256ZM13.2512 5.78788H4.53241C4.27356 5.78788 4.06366 5.99769 4.06366 6.25663C4.06366 6.51556 4.27356 6.72538 4.53241 6.72538H13.2512C13.51 6.72538 13.7199 6.51556 13.7199 6.25663C13.7199 5.99769 13.51 5.78788 13.2512 5.78788ZM39.593 36.8811H30.8743C30.6154 36.8811 30.4055 37.0909 30.4055 37.3498C30.4055 37.6088 30.6154 37.8186 30.8743 37.8186H39.593C39.8519 37.8186 40.0618 37.6088 40.0618 37.3498C40.0618 37.0909 39.8519 36.8811 39.593 36.8811ZM39.593 33.4358H30.8743C30.6154 33.4358 30.4055 33.6456 30.4055 33.9045C30.4055 34.1635 30.6154 34.3733 30.8743 34.3733H39.593C39.8519 34.3733 40.0618 34.1635 40.0618 33.9045C40.0618 33.6456 39.8519 33.4358 39.593 33.4358Z" fill="#ED1C24"/>
</g>
<defs>
<clipPath id="clip0_1424_1029">
<rect width="48" height="48" fill="white"/>
</clipPath>
</defs>
</svg>
