<svg width="49" height="46" viewBox="0 0 49 46" fill="none" xmlns="http://www.w3.org/2000/svg">
<path d="M10.1178 21.454H16.6089C17.7518 21.454 18.6818 20.549 18.6818 19.4365V12.4523C18.6818 11.3402 17.7518 10.4352 16.6089 10.4352H10.1178C8.97492 10.4352 8.04492 11.3402 8.04492 12.4523V19.4365C8.04492 20.549 8.97492 21.454 10.1178 21.454ZM9.60742 12.4523C9.60742 12.1832 9.84086 11.9557 10.1178 11.9557H16.6089C16.8859 11.9557 17.1193 12.1832 17.1193 12.4523V19.4365C17.1193 19.706 16.8859 19.9336 16.6089 19.9336H10.1178C9.84086 19.9336 9.60742 19.706 9.60742 19.4365V12.4523Z" fill="#ED1C24"/>
<path d="M21.3633 12.3038H30.0608C30.4926 12.3038 30.842 11.9634 30.842 11.5436C30.842 11.1238 30.4926 10.7834 30.0608 10.7834H21.3633C20.9315 10.7834 20.582 11.1238 20.582 11.5436C20.582 11.9634 20.9315 12.3038 21.3633 12.3038Z" fill="#ED1C24"/>
<path d="M21.3633 16.879H30.0608C30.4926 16.879 30.842 16.5385 30.842 16.1187C30.842 15.6989 30.4926 15.3585 30.0608 15.3585H21.3633C20.9315 15.3585 20.582 15.6989 20.582 16.1187C20.582 16.5385 20.9315 16.879 21.3633 16.879Z" fill="#ED1C24"/>
<path d="M48.172 41.8334L43.5547 36.0865C43.3487 35.8296 43.0519 35.6663 42.7185 35.6265C42.3836 35.5868 42.0555 35.6752 41.7923 35.876L41.1154 36.3913L40.2039 35.258C42.0055 33.4553 43.0473 31.1046 43.1306 28.5744C43.2199 25.885 42.2273 23.3237 40.336 21.3615C38.7564 19.7232 36.7401 18.7255 34.6254 18.3559V6.07502C34.6254 4.80591 33.5641 3.7736 32.2603 3.7736H30.6055V2.30143C30.6055 1.03231 29.5442 4.19863e-09 28.2404 4.19863e-09H2.36508C1.06125 -7.60182e-05 0 1.03223 0 2.30143V34.9692C0 36.2383 1.06125 37.2706 2.36508 37.2706H4.01992V38.7453C4.01992 40.013 5.08117 41.0442 6.385 41.0442H32.2602C33.564 41.0442 34.6252 40.013 34.6252 38.7453V38.1612C36.226 37.8832 37.7298 37.2386 39.0361 36.2723L39.8851 37.3278L39.2059 37.8448C38.6619 38.2586 38.5642 39.0263 38.9899 39.5571L43.6103 45.3052C43.8575 45.6118 44.2268 45.7725 44.5998 45.7722C44.8691 45.7722 45.1416 45.6879 45.3697 45.5141L47.9553 43.5456C48.5001 43.1319 48.5977 42.3639 48.172 41.8334ZM2.36508 35.7501C1.92258 35.7501 1.5625 35.3997 1.5625 34.9692V2.30143C1.5625 1.87084 1.92258 1.52037 2.36508 1.52037H28.2402C28.6827 1.52037 29.0427 1.87076 29.0427 2.30135V3.77352H6.38508C5.08125 3.77352 4.02 4.80583 4.02 6.07495V35.7501L2.36508 35.7501ZM33.0627 38.7453C33.0627 39.1745 32.7027 39.5237 32.2602 39.5237H6.38508C5.94258 39.5237 5.5825 39.1744 5.5825 38.7453V6.07502C5.5825 5.64443 5.94258 5.29405 6.38508 5.29405H32.2602C32.7027 5.29405 33.0627 5.64443 33.0627 6.07502V18.1908C30.9399 18.1352 28.8047 18.7196 26.9715 19.9335H21.363C20.9312 19.9335 20.5818 20.274 20.5818 20.6938C20.5818 21.1135 20.9312 21.454 21.363 21.454H25.1561C24.2929 22.3704 23.632 23.4063 23.1811 24.5086H8.82641C8.39461 24.5086 8.04516 24.8491 8.04516 25.2689C8.04516 25.6887 8.39461 26.0291 8.82641 26.0291H22.703C22.472 27.0317 22.4025 28.0616 22.4895 29.0837H8.82648C8.39469 29.0837 8.04523 29.4242 8.04523 29.844C8.04523 30.2638 8.39469 30.6042 8.82648 30.6042H22.7366C22.9988 31.6698 23.4362 32.704 24.0613 33.6585H8.82648C8.39469 33.6585 8.04523 33.9989 8.04523 34.4187C8.04523 34.8385 8.39469 35.1789 8.82648 35.1789H25.2768C27.1643 37.1164 29.7094 38.2319 32.454 38.3178C32.6595 38.3238 32.857 38.3159 33.0628 38.3108C33.0627 38.4556 33.0627 38.6004 33.0627 38.7453ZM32.5043 36.798C30.1583 36.7245 27.9816 35.7669 26.3763 34.1008C23.0613 30.6617 23.2406 25.2394 26.7746 22.0137C28.4165 20.5156 30.539 19.7 32.7789 19.7C32.875 19.7 32.9712 19.7015 33.068 19.7045C35.4141 19.778 37.5908 20.7356 39.196 22.4017C42.511 25.8408 42.3317 31.2631 38.797 34.4888C37.0857 36.0516 34.8617 36.8674 32.5043 36.798ZM44.6502 44.1311L40.4113 38.8575L42.5125 37.258L46.7506 42.5328L44.6502 44.1311Z" fill="#ED1C24"/>
<path d="M37.903 23.5814C35.2563 20.837 30.8099 20.699 27.9901 23.2729C25.168 25.8457 25.0253 30.1742 27.6704 32.9215C29.0483 34.3507 30.9159 35.0731 32.7874 35.0731C34.5086 35.0731 36.2336 34.4624 37.5863 33.2297C40.4055 30.6553 40.5473 26.3271 37.903 23.5814ZM36.5175 32.1205C34.3233 34.1224 30.8664 34.014 28.8103 31.8818C26.7542 29.7462 26.8655 26.382 29.0583 24.382C30.1081 23.4232 31.4486 22.9488 32.786 22.9488C34.2401 22.9488 35.692 23.5104 36.7632 24.621C38.8185 26.7555 38.7079 30.12 36.5175 32.1205Z" fill="#ED1C24"/>
<path d="M36.9542 27.3443C36.4659 25.165 34.245 23.78 32.005 24.2547C31.5831 24.3442 31.3161 24.7492 31.4076 25.1593C31.5 25.5692 31.9172 25.8283 32.3376 25.7403C33.7437 25.4441 35.1231 26.3093 35.4283 27.6687C35.5077 28.0243 35.8311 28.2671 36.1905 28.2667C36.2454 28.2667 36.3019 28.2611 36.3576 28.2493C36.7794 28.1598 37.0465 27.7544 36.9542 27.3443Z" fill="#ED1C24"/>
</svg>
