<svg width="48" height="48" viewBox="0 0 48 48" fill="none" xmlns="http://www.w3.org/2000/svg">
<path d="M24 16.5C22.5166 16.5 21.0666 16.9399 19.8332 17.764C18.5999 18.5881 17.6386 19.7594 17.0709 21.1299C16.5032 22.5003 16.3547 24.0083 16.6441 25.4632C16.9335 26.918 17.6478 28.2544 18.6967 29.3033C19.7456 30.3522 21.082 31.0665 22.5368 31.3559C23.9917 31.6453 25.4997 31.4968 26.8701 30.9291C28.2406 30.3614 29.4119 29.4001 30.236 28.1668C31.0601 26.9334 31.5 25.4834 31.5 24C31.4978 22.0115 30.7069 20.1052 29.3009 18.6991C27.8948 17.2931 25.9885 16.5022 24 16.5ZM24 30C22.8133 30 21.6533 29.6481 20.6666 28.9888C19.6799 28.3295 18.9109 27.3925 18.4567 26.2961C18.0026 25.1997 17.8838 23.9933 18.1153 22.8295C18.3468 21.6656 18.9182 20.5965 19.7574 19.7574C20.5965 18.9182 21.6656 18.3468 22.8295 18.1153C23.9933 17.8838 25.1997 18.0026 26.2961 18.4567C27.3925 18.9108 28.3295 19.6799 28.9888 20.6666C29.6481 21.6533 30 22.8133 30 24C29.9982 25.5908 29.3655 27.1158 28.2407 28.2407C27.1158 29.3655 25.5908 29.9982 24 30Z" fill="#ED1C24"/>
<path d="M24 27.75C24.4142 27.75 24.75 27.4142 24.75 27C24.75 26.5858 24.4142 26.25 24 26.25C23.5858 26.25 23.25 26.5858 23.25 27C23.25 27.4142 23.5858 27.75 24 27.75Z" fill="#ED1C24"/>
<path d="M19.1641 22.7025L20.3754 23.5875C20.7928 23.018 21.3384 22.5549 21.9682 22.2356C22.598 21.9164 23.2941 21.75 24.0001 21.75C24.7062 21.75 25.4023 21.9164 26.0321 22.2356C26.6618 22.5549 27.2075 23.018 27.6249 23.5875L28.8361 22.7025C28.2796 21.9418 27.5515 21.3231 26.711 20.8966C25.8704 20.4701 24.9412 20.2478 23.9986 20.2478C23.0561 20.2478 22.1268 20.4701 21.2863 20.8966C20.4458 21.3231 19.7177 21.9418 19.1611 22.7025H19.1641Z" fill="#ED1C24"/>
<path d="M24.0004 23.25C23.5276 23.2495 23.0615 23.3611 22.6403 23.5757C22.219 23.7903 21.8547 24.1018 21.5771 24.4845L22.7944 25.3605C22.9387 25.179 23.122 25.0324 23.3309 24.9316C23.5397 24.8308 23.7685 24.7785 24.0004 24.7785C24.2323 24.7785 24.4611 24.8308 24.6699 24.9316C24.8788 25.0324 25.0621 25.179 25.2064 25.3605L26.4236 24.4845C26.1461 24.1018 25.7818 23.7903 25.3605 23.5757C24.9393 23.3611 24.4732 23.2495 24.0004 23.25Z" fill="#ED1C24"/>
<path d="M2.25 15.75H4.91775C4.73699 15.911 4.60674 16.121 4.54275 16.3545C4.49919 16.515 4.48883 16.6828 4.5123 16.8474C4.53577 17.0121 4.59257 17.1703 4.67925 17.3122L5.52525 18.7132C5.70086 18.9944 5.97745 19.1977 6.29823 19.2814C6.61901 19.3651 6.95966 19.3228 7.25025 19.1632L7.4445 19.0552C7.7364 19.2618 8.0488 19.4377 8.37675 19.5802V19.7467C8.38051 20.0823 8.51715 20.4026 8.75672 20.6375C8.99628 20.8724 9.31923 21.0028 9.65475 21H11.3453C11.6804 21.002 12.0027 20.8712 12.2416 20.6362C12.4805 20.4012 12.6167 20.0811 12.6202 19.746V19.5795C12.9477 19.4378 13.2601 19.2634 13.5525 19.059L13.7475 19.1662C14.0381 19.3258 14.3787 19.3681 14.6995 19.2844C15.0203 19.2007 15.2969 18.9974 15.4725 18.7162L16.3177 17.316C16.4047 17.174 16.4617 17.0157 16.4853 16.8509C16.5089 16.6861 16.4986 16.5182 16.455 16.3575C16.4106 16.1942 16.3337 16.0414 16.2291 15.9083C16.1245 15.7752 15.9942 15.6645 15.846 15.5827L15.684 15.4935C15.718 15.1674 15.718 14.8386 15.684 14.5125L15.846 14.4232C15.9942 14.3415 16.1245 14.2308 16.2291 14.0977C16.3337 13.9646 16.4106 13.8118 16.455 13.6485C16.4986 13.488 16.5089 13.3202 16.4855 13.1556C16.462 12.9909 16.4052 12.8327 16.3185 12.6907L15.4725 11.2897C15.2966 11.0088 15.0201 10.8058 14.6994 10.7221C14.3787 10.6385 14.0382 10.6806 13.7475 10.8397L13.5532 10.9477C13.2613 10.7412 12.9489 10.5653 12.621 10.4227V10.2562C12.618 9.92061 12.482 9.59985 12.2429 9.36434C12.0037 9.12883 11.6809 8.9978 11.3453 9H10.5C10.5 8.40326 10.2629 7.83096 9.84099 7.40901C9.41903 6.98705 8.84674 6.75 8.25 6.75H7.9635C8.426 6.34963 8.75505 5.81744 8.90655 5.22477C9.05804 4.63211 9.02474 4.00729 8.8111 3.43409C8.59746 2.86089 8.2137 2.36669 7.71126 2.01775C7.20882 1.66882 6.61172 1.48181 6 1.48181C5.38828 1.48181 4.79118 1.66882 4.28874 2.01775C3.7863 2.36669 3.40254 2.86089 3.1889 3.43409C2.97526 4.00729 2.94196 4.63211 3.09345 5.22477C3.24495 5.81744 3.574 6.34963 4.0365 6.75H3.75C3.15326 6.75 2.58097 6.98705 2.15901 7.40901C1.73705 7.83096 1.5 8.40326 1.5 9V15C1.5 15.1989 1.57902 15.3897 1.71967 15.5303C1.86032 15.671 2.05109 15.75 2.25 15.75ZM9.87675 10.5922V10.5H11.1233V10.5922C11.1259 10.8462 11.205 11.0935 11.3503 11.3018C11.4956 11.5101 11.7003 11.6698 11.9377 11.76C12.2308 11.8773 12.508 12.031 12.7628 12.2175C12.9636 12.3658 13.2024 12.4539 13.4514 12.4715C13.7004 12.4892 13.9493 12.4357 14.169 12.3172L14.3025 12.2422L14.9025 13.2315L14.823 13.275C14.6021 13.3949 14.4228 13.5789 14.3086 13.8027C14.1944 14.0266 14.1507 14.2798 14.1832 14.529C14.2282 14.8406 14.2282 15.1571 14.1832 15.4687C14.1507 15.718 14.1943 15.9712 14.3083 16.1951C14.4224 16.4191 14.6015 16.6033 14.8223 16.7235L14.9025 16.767L14.3025 17.7562L14.1683 17.6812C13.9484 17.5626 13.6993 17.509 13.4501 17.5268C13.2009 17.5446 12.962 17.6331 12.7612 17.7817C12.5067 17.9681 12.2295 18.1214 11.9362 18.2377C11.6989 18.3282 11.4942 18.4881 11.349 18.6965C11.2037 18.9049 11.1245 19.1522 11.1217 19.4062V19.5H9.87675V19.4077C9.87414 19.1538 9.79503 18.9065 9.64972 18.6982C9.50442 18.4898 9.29969 18.3302 9.06225 18.24C8.76917 18.1227 8.492 17.969 8.23725 17.7825C8.03643 17.6342 7.7976 17.5461 7.5486 17.5285C7.29961 17.5108 7.05073 17.5643 6.831 17.6827L6.6975 17.7577L6.0975 16.7685L6.177 16.725C6.39952 16.6062 6.58067 16.4226 6.6964 16.1985C6.81214 15.9744 6.85699 15.7204 6.825 15.4702C6.78 15.1586 6.78 14.8421 6.825 14.5305C6.8574 14.2808 6.81332 14.0271 6.69857 13.8029C6.58381 13.5788 6.40379 13.3947 6.18225 13.275L6.102 13.2315L6.702 12.2422L6.83625 12.3172C7.05599 12.4363 7.30515 12.49 7.55441 12.4722C7.80367 12.4544 8.04266 12.3658 8.24325 12.2167C8.49779 12.0304 8.77502 11.8771 9.06825 11.7607C9.30451 11.6693 9.50788 11.509 9.65202 11.3007C9.79617 11.0924 9.87446 10.8456 9.87675 10.5922ZM6 3C6.29667 3 6.58668 3.08797 6.83335 3.25279C7.08003 3.41762 7.27229 3.65188 7.38582 3.92597C7.49935 4.20006 7.52906 4.50166 7.47118 4.79263C7.4133 5.0836 7.27044 5.35088 7.06066 5.56066C6.85088 5.77044 6.58361 5.9133 6.29264 5.97118C6.00166 6.02905 5.70006 5.99935 5.42597 5.88582C5.15189 5.77229 4.91762 5.58003 4.7528 5.33335C4.58797 5.08668 4.5 4.79667 4.5 4.5C4.5 4.10217 4.65804 3.72064 4.93934 3.43934C5.22064 3.15803 5.60218 3 6 3ZM3 9C3 8.80109 3.07902 8.61032 3.21967 8.46967C3.36032 8.32902 3.55109 8.25 3.75 8.25H8.25C8.44891 8.25 8.63968 8.32902 8.78033 8.46967C8.92098 8.61032 9 8.80109 9 9V9.183C8.81175 9.29168 8.65519 9.44769 8.54586 9.63557C8.43653 9.82344 8.37823 10.0366 8.37675 10.254V10.4205C8.04927 10.5622 7.73693 10.7366 7.4445 10.941L7.2495 10.8337C6.95887 10.6744 6.61828 10.6322 6.29755 10.7159C5.97682 10.7995 5.70024 11.0027 5.5245 11.2837L4.67925 12.687C4.59231 12.829 4.53528 12.9873 4.51168 13.1521C4.48808 13.3169 4.4984 13.4848 4.542 13.6455C4.60599 13.879 4.73624 14.0889 4.917 14.25H3V9Z" fill="#ED1C24"/>
<path d="M10.5 17.25C10.945 17.25 11.38 17.118 11.75 16.8708C12.12 16.6236 12.4084 16.2722 12.5787 15.861C12.749 15.4499 12.7936 14.9975 12.7068 14.561C12.62 14.1246 12.4057 13.7237 12.091 13.409C11.7763 13.0943 11.3754 12.8801 10.939 12.7932C10.5025 12.7064 10.0501 12.751 9.63896 12.9213C9.22783 13.0916 8.87643 13.38 8.62919 13.75C8.38196 14.12 8.25 14.555 8.25 15C8.25 15.5967 8.48705 16.169 8.90901 16.591C9.33097 17.0129 9.90326 17.25 10.5 17.25ZM10.5 14.25C10.6483 14.25 10.7933 14.294 10.9167 14.3764C11.04 14.4588 11.1361 14.5759 11.1929 14.713C11.2497 14.85 11.2645 15.0008 11.2356 15.1463C11.2067 15.2918 11.1352 15.4254 11.0303 15.5303C10.9254 15.6352 10.7918 15.7067 10.6463 15.7356C10.5008 15.7645 10.35 15.7497 10.213 15.6929C10.0759 15.6361 9.95881 15.54 9.8764 15.4167C9.79399 15.2933 9.75 15.1483 9.75 15C9.75 14.8011 9.82902 14.6103 9.96967 14.4697C10.1103 14.329 10.3011 14.25 10.5 14.25Z" fill="#ED1C24"/>
<path d="M45.7496 32.25H43.0819C43.2627 32.089 43.3929 31.879 43.4569 31.6455C43.5005 31.485 43.5108 31.3173 43.4873 31.1526C43.4639 30.9879 43.4071 30.8298 43.3204 30.6878L42.4744 29.2868C42.2985 29.0059 42.022 28.8028 41.7013 28.7192C41.3806 28.6355 41.0401 28.6776 40.7494 28.8368L40.5551 28.9448C40.2632 28.7383 39.9508 28.5623 39.6229 28.4198V28.2533C39.6191 27.9178 39.4825 27.5974 39.2429 27.3625C39.0034 27.1276 38.6804 26.9972 38.3449 27H36.6544C36.3193 26.998 35.997 27.1288 35.758 27.3639C35.5191 27.5989 35.383 27.9189 35.3794 28.254V28.4205C35.0519 28.5622 34.7396 28.7366 34.4471 28.941L34.2521 28.8338C33.9615 28.6746 33.6209 28.6325 33.3003 28.7162C32.9796 28.7998 32.703 29.0029 32.5271 29.2838L31.6819 30.684C31.595 30.826 31.5379 30.9843 31.5143 31.1491C31.4907 31.3139 31.501 31.4819 31.5446 31.6425C31.5891 31.8059 31.6659 31.9586 31.7705 32.0917C31.8751 32.2248 32.0054 32.3355 32.1536 32.4173L32.3156 32.5065C32.2816 32.8327 32.2816 33.1614 32.3156 33.4875L32.1536 33.5768C32.0054 33.6586 31.8751 33.7693 31.7705 33.9024C31.6659 34.0355 31.5891 34.1882 31.5446 34.3515C31.5011 34.5121 31.4907 34.6798 31.5142 34.8445C31.5377 35.0092 31.5945 35.1673 31.6811 35.3093L32.5271 36.7103C32.7029 36.9913 32.9795 37.1945 33.3002 37.2782C33.6209 37.3619 33.9615 37.3197 34.2521 37.1603L34.4464 37.0523C34.7383 37.2588 35.0507 37.4348 35.3786 37.5773V37.7438C35.3816 38.0794 35.5176 38.4002 35.7568 38.6357C35.9959 38.8712 36.3187 39.0022 36.6544 39H37.4996C37.4996 39.5968 37.7367 40.1691 38.1587 40.591C38.5806 41.013 39.1529 41.25 39.7496 41.25H40.0361C39.5736 41.6504 39.2446 42.1826 39.0931 42.7753C38.9416 43.3679 38.9749 43.9928 39.1885 44.566C39.4022 45.1392 39.7859 45.6334 40.2884 45.9823C40.7908 46.3312 41.3879 46.5182 41.9996 46.5182C42.6114 46.5182 43.2085 46.3312 43.7109 45.9823C44.2133 45.6334 44.5971 45.1392 44.8107 44.566C45.0244 43.9928 45.0577 43.3679 44.9062 42.7753C44.7547 42.1826 44.4256 41.6504 43.9631 41.25H44.2496C44.8464 41.25 45.4187 41.013 45.8406 40.591C46.2626 40.1691 46.4996 39.5968 46.4996 39V33C46.4996 32.8011 46.4206 32.6104 46.28 32.4697C46.1393 32.3291 45.9486 32.25 45.7496 32.25ZM38.1229 37.4078V37.5H36.8764V37.4078C36.8738 37.1538 36.7947 36.9065 36.6494 36.6982C36.5041 36.4899 36.2993 36.3302 36.0619 36.24C35.7688 36.1227 35.4916 35.969 35.2369 35.7825C35.0361 35.6343 34.7972 35.5462 34.5483 35.5285C34.2993 35.5109 34.0504 35.5644 33.8306 35.6828L33.6971 35.7578L33.0971 34.7685L33.1766 34.725C33.3975 34.6051 33.5769 34.4211 33.6911 34.1973C33.8053 33.9734 33.849 33.7202 33.8164 33.471C33.7714 33.1594 33.7714 32.8429 33.8164 32.5313C33.849 32.2821 33.8054 32.0289 33.6913 31.8049C33.5773 31.5809 33.3981 31.3968 33.1774 31.2765L33.0971 31.233L33.6971 30.2438L33.8314 30.3188C34.0513 30.4374 34.3003 30.4909 34.5495 30.4731C34.7987 30.4553 35.0376 30.3669 35.2384 30.2183C35.4929 30.0319 35.7702 29.8787 36.0634 29.7623C36.3008 29.6718 36.5054 29.512 36.6507 29.3035C36.796 29.0951 36.8751 28.8478 36.8779 28.5938V28.5H38.1244V28.5923C38.127 28.8463 38.2061 29.0936 38.3514 29.3019C38.4967 29.5102 38.7015 29.6699 38.9389 29.76C39.232 29.8774 39.5091 30.0311 39.7639 30.2175C39.9647 30.3658 40.2035 30.4539 40.4525 30.4716C40.7015 30.4892 40.9504 30.4357 41.1701 30.3173L41.3036 30.2423L41.9036 31.2315L41.8241 31.275C41.6033 31.3949 41.4239 31.5789 41.3097 31.8028C41.1955 32.0267 41.1518 32.2799 41.1844 32.529C41.2294 32.8407 41.2294 33.1572 41.1844 33.4688C41.1518 33.718 41.1954 33.9712 41.3095 34.1952C41.4235 34.4191 41.6027 34.6033 41.8234 34.7235L41.9036 34.767L41.3036 35.7563L41.1694 35.6813C40.9496 35.5626 40.7005 35.5089 40.4513 35.5267C40.2021 35.5445 39.9631 35.633 39.7624 35.7818C39.5079 35.9682 39.2306 36.1214 38.9374 36.2378C38.6998 36.3284 38.495 36.4885 38.3497 36.6972C38.2044 36.9059 38.1254 37.1535 38.1229 37.4078ZM41.9996 45C41.703 45 41.413 44.9121 41.1663 44.7472C40.9196 44.5824 40.7274 44.3482 40.6138 44.0741C40.5003 43.8 40.4706 43.4984 40.5285 43.2074C40.5863 42.9164 40.7292 42.6492 40.939 42.4394C41.1488 42.2296 41.416 42.0867 41.707 42.0289C41.998 41.971 42.2996 42.0007 42.5737 42.1142C42.8478 42.2278 43.082 42.42 43.2469 42.6667C43.4117 42.9134 43.4996 43.2034 43.4996 43.5C43.4996 43.8979 43.3416 44.2794 43.0603 44.5607C42.779 44.842 42.3975 45 41.9996 45ZM44.9996 39C44.9996 39.199 44.9206 39.3897 44.78 39.5304C44.6393 39.671 44.4486 39.75 44.2496 39.75H39.7496C39.5507 39.75 39.36 39.671 39.2193 39.5304C39.0787 39.3897 38.9996 39.199 38.9996 39V38.817C39.1879 38.7084 39.3445 38.5523 39.4538 38.3645C39.5631 38.1766 39.6214 37.9634 39.6229 37.746V37.5795C39.9504 37.4379 40.2627 37.2635 40.5551 37.059L40.7501 37.1663C41.0407 37.3259 41.3814 37.3681 41.7022 37.2845C42.0229 37.2008 42.2995 36.9975 42.4751 36.7163L43.3204 35.316C43.4073 35.174 43.4644 35.0158 43.488 34.851C43.5116 34.6861 43.5012 34.5182 43.4576 34.3575C43.3937 34.1241 43.2634 33.9141 43.0826 33.753H44.9996V39Z" fill="#ED1C24"/>
<path d="M37.5 30.75C37.055 30.75 36.62 30.882 36.25 31.1292C35.88 31.3764 35.5916 31.7278 35.4213 32.139C35.251 32.5501 35.2064 33.0025 35.2932 33.439C35.3801 33.8754 35.5943 34.2763 35.909 34.591C36.2237 34.9057 36.6246 35.12 37.061 35.2068C37.4975 35.2936 37.9499 35.249 38.361 35.0787C38.7722 34.9084 39.1236 34.62 39.3708 34.25C39.618 33.88 39.75 33.445 39.75 33C39.75 32.4033 39.5129 31.831 39.091 31.409C38.669 30.9871 38.0967 30.75 37.5 30.75ZM37.5 33.75C37.3517 33.75 37.2067 33.706 37.0833 33.6236C36.96 33.5412 36.8639 33.4241 36.8071 33.287C36.7503 33.15 36.7355 32.9992 36.7644 32.8537C36.7934 32.7082 36.8648 32.5746 36.9697 32.4697C37.0746 32.3648 37.2082 32.2933 37.3537 32.2644C37.4992 32.2355 37.65 32.2503 37.787 32.3071C37.9241 32.3639 38.0412 32.46 38.1236 32.5833C38.206 32.7067 38.25 32.8517 38.25 33C38.25 33.1989 38.171 33.3897 38.0303 33.5303C37.8897 33.671 37.6989 33.75 37.5 33.75Z" fill="#ED1C24"/>
<path d="M23.9849 42C13.6379 42 5.2199 33.9255 5.2199 24C5.2199 23.625 5.2424 23.2545 5.26565 22.8847L6.12365 23.9512L7.29215 23.0115L5.2979 20.5312C5.1732 20.3765 4.99218 20.2776 4.79461 20.2562C4.59704 20.2348 4.39906 20.2927 4.24415 20.4172L1.76465 22.4107L2.70365 23.58L3.7724 22.7205C3.7439 23.1442 3.7199 23.5695 3.7199 24C3.7199 34.752 12.8106 43.5 23.9849 43.5C27.8353 43.5102 31.6126 42.4483 34.8937 40.4332L34.1061 39.1582C31.0616 41.0266 27.557 42.0106 23.9849 42Z" fill="#ED1C24"/>
<path d="M23.9854 5.99994C34.3324 5.99994 42.7504 14.0744 42.7504 23.9999C42.7504 24.3697 42.7278 24.7349 42.7054 25.0994L41.8609 24.0494L40.6924 24.9899L42.6866 27.4694C42.8111 27.6245 42.9921 27.7238 43.1898 27.7454C43.2167 27.7484 43.2438 27.7499 43.2709 27.7499C43.4419 27.7499 43.6078 27.6915 43.7411 27.5842L46.2206 25.5899L45.2801 24.4214L44.1971 25.2922C44.2264 24.8639 44.2504 24.4342 44.2504 23.9999C44.2504 13.2479 35.1596 4.49994 23.9854 4.49994C20.1488 4.49038 16.3846 5.54383 13.1104 7.54344L13.8949 8.81844C16.9336 6.96533 20.4261 5.98979 23.9854 5.99994Z" fill="#ED1C24"/>
</svg>
