<?xml version="1.0" encoding="UTF-8"?>
<svg xmlns="http://www.w3.org/2000/svg" xmlns:xlink="http://www.w3.org/1999/xlink" width="21px" height="18px" viewBox="0 0 21 18" version="1.1">
<g id="surface1">
<path style=" stroke:none;fill-rule:nonzero;fill:rgb(92.941177%,10.980392%,14.117648%);fill-opacity:1;" d="M 18.621094 15.144531 C 17.988281 13.789062 16.050781 11.335938 13.9375 8.890625 C 15.929688 6.933594 17.738281 5.148438 18.210938 4.644531 C 19.160156 3.628906 19.09375 3.191406 17.316406 3.1875 C 16.039062 3.179688 15.597656 3.050781 14.753906 3.808594 C 14.257812 4.25 13.191406 5.339844 11.964844 6.667969 C 10.003906 4.5 8.1875 2.632812 7.421875 1.945312 C 6.332031 0.964844 5.761719 1.132812 4.109375 1.140625 C 1.808594 1.152344 1.722656 1.714844 2.953125 3.03125 C 3.636719 3.765625 6.511719 6.59375 9.457031 9.484375 C 7.933594 11.265625 6.574219 13.007812 6.113281 13.996094 C 5.503906 15.304688 6.859375 15.875 8.011719 14.722656 C 8.644531 14.085938 9.9375 12.820312 11.398438 11.386719 C 13.441406 13.394531 15.285156 15.203125 16.164062 16.082031 C 17.65625 17.574219 19.410156 16.835938 18.621094 15.144531 Z M 18.621094 15.144531 "/>
</g>
</svg>
