<svg width="68" height="55" viewBox="0 0 68 55" fill="none" xmlns="http://www.w3.org/2000/svg">
<path d="M38.7666 53.2312V52.8597C38.7666 52.1795 39.4484 51.628 40.2894 51.628H46.2476V47.2669H36.2729C34.4937 47.2669 33.0378 46.0894 33.0378 44.6503V28.9506C33.0378 28.8507 33.0463 28.7526 33.0599 28.6557C31.8035 29.1126 30.414 29.3685 28.9533 29.3685C27.2783 29.3685 25.6965 29.0323 24.302 28.4419V29.7709C24.302 30.8451 23.5479 31.8261 22.3565 32.3011C20.7471 32.9431 19.3422 33.4559 17.2106 33.8897L11.7445 35.0024C10.0538 35.3465 8.83595 36.5402 8.739 37.9481L7.62284 53.5167C7.58751 54.0302 8.09273 54.4625 8.72864 54.4625H40.2891C39.4484 54.4629 38.7666 53.9114 38.7666 53.2312Z" fill="#70D6F9"/>
<path d="M36.2729 26.3345H36.79C38.2005 24.9297 39.0494 23.143 39.0494 21.2032V14.3497C39.0494 13.2647 38.5331 12.2212 37.6071 11.436C36.947 10.8759 35.8736 10.8245 35.1211 11.3021C33.9314 12.0575 31.8725 12.9912 28.9647 12.9912C26.0498 12.9912 23.98 12.053 22.7852 11.2965C22.0332 10.8207 20.9622 10.8739 20.3032 11.4328L20.2998 11.4358C19.3741 12.221 18.8574 13.2645 18.8574 14.3495V21.203C18.8574 25.6943 23.4007 29.369 28.9536 29.369C30.4142 29.369 31.8037 29.1127 33.0601 28.6561C33.2429 27.3546 34.617 26.3345 36.2729 26.3345Z" fill="#F9D0B4"/>
<path d="M39.6968 14.9795C39.4763 14.9795 39.2601 14.9945 39.0489 15.021V21.2029C39.0489 21.387 39.0386 21.5692 39.0234 21.7505C39.2431 21.7791 39.467 21.798 39.6968 21.798C42.0247 21.798 43.912 20.2715 43.912 18.3886C43.912 16.5057 42.0247 14.9795 39.6968 14.9795Z" fill="#F9D0B4"/>
<path d="M18.8572 21.2029C18.8572 20.3568 18.8572 16.703 18.8572 15.021C18.6458 14.9945 18.4298 14.9795 18.2093 14.9795C15.8814 14.9795 13.9941 16.506 13.9941 18.3888C13.9941 20.2717 15.8814 21.7982 18.2093 21.7982C18.4391 21.7982 18.6628 21.7793 18.8827 21.7507C18.8676 21.5694 18.8572 21.387 18.8572 21.2029Z" fill="#F9D0B4"/>
<path d="M39.0121 8.01387C38.674 8.01387 38.381 7.80289 38.3762 7.52961C38.2989 2.97922 31.8745 2.12457 25.4767 3.01811C20.0523 3.77565 16.0879 7.58031 16.0879 12.0325V15.4466C16.7116 15.1516 17.4351 14.9797 18.2097 14.9797C18.4302 14.9797 18.6461 14.9948 18.8576 15.0212V14.3498C18.8576 13.2649 19.3739 12.2214 20.2999 11.4361L20.3034 11.4331C20.9624 10.8743 22.0334 10.8208 22.7854 11.2969C23.9801 12.0534 26.0499 12.9916 28.9649 12.9916C31.8727 12.9916 33.9315 12.0579 35.1215 11.3025C35.874 10.8247 36.9474 10.8762 37.6075 11.4363C38.5332 12.2216 39.0498 13.2651 39.0498 14.35V15.0214C39.2613 14.995 39.4772 14.98 39.6977 14.98C40.4816 14.98 41.2131 15.1561 41.8418 15.4578C41.8418 14.5049 41.8418 13.5263 41.8418 12.6547C41.8418 8.57977 40.0226 8.01387 39.0121 8.01387Z" fill="#5B5D60"/>
<path d="M24.9378 38.2845C25.2893 38.5687 25.8587 38.5687 26.2102 38.2845L27.9431 36.8829C28.2945 36.5986 28.2945 36.138 27.9431 35.8538L23.0755 31.9167C22.8588 32.0661 22.6192 32.1967 22.3565 32.3013C21.2379 32.7473 20.2179 33.131 18.9844 33.4692L24.9378 38.2845Z" fill="#9BE5F9"/>
<path d="M31.9613 38.2846C32.2533 38.5207 32.6942 38.5576 33.0371 38.4014V33.5823L30.2284 35.854C29.877 36.1383 29.877 36.5989 30.2284 36.8831L31.9613 38.2846Z" fill="#9BE5F9"/>
<path d="M15.2043 45.2246H8.21731L7.62284 53.5171C7.58751 54.0306 8.09273 54.4629 8.72864 54.4629H15.2043V45.2246Z" fill="#F9D0B4"/>
<path d="M30.2297 35.8538L33.0384 33.5821V28.9509C33.0384 28.851 33.0469 28.7528 33.0605 28.6559C31.8041 29.1129 30.4146 29.3688 28.9539 29.3688C27.2789 29.3688 25.6971 29.0325 24.3026 28.4421V29.7712C24.3026 30.6086 23.8428 31.3883 23.0762 31.9168L27.9437 35.8538C28.1164 35.9935 28.203 36.1754 28.2062 36.3585C28.4535 36.3725 28.7024 36.3817 28.9539 36.3817C29.2966 36.3817 29.635 36.3673 29.9694 36.3413C29.9776 36.1643 30.0626 35.989 30.2297 35.8538Z" fill="#F9D0B4"/>
<path d="M57.3272 54.4629H40.2885C39.4475 54.4629 38.7656 53.9114 38.7656 53.2312V52.8598C38.7656 52.1796 39.4475 51.6281 40.2885 51.6281H57.3272C58.1682 51.6281 58.8501 52.1796 58.8501 52.8598V53.2312C58.8501 53.9114 58.1682 54.4629 57.3272 54.4629Z" fill="#EDF4FC"/>
<path d="M61.344 26.3345H36.2722C34.493 26.3345 33.0371 27.512 33.0371 28.9511V44.6508C33.0371 46.0898 34.493 47.2673 36.2722 47.2673H46.2469V41.1142C46.2469 40.5384 46.8241 40.0716 47.5357 40.0716H50.0801C50.792 40.0716 51.369 40.5384 51.369 41.1142V47.2673H61.3437C63.1229 47.2673 64.5788 46.0898 64.5788 44.6508V28.9511C64.579 27.5118 63.1234 26.3345 61.344 26.3345Z" fill="#5290DB"/>
<path d="M51.3701 51.6283V41.114C51.3701 40.5383 50.7929 40.0714 50.0813 40.0714H47.5369C46.825 40.0714 46.248 40.5383 46.248 41.114V51.6283H51.3701Z" fill="#C7D7E5"/>
<path d="M63.8988 22.4965H49.2575C48.2394 22.4965 47.4141 21.8289 47.4141 21.0054V13.675C47.4141 12.8515 48.2394 12.184 49.2575 12.184H63.8985C64.9166 12.184 65.7419 12.8515 65.7419 13.675V21.0052C65.7422 21.8287 64.9169 22.4965 63.8988 22.4965Z" fill="#FC657E"/>
<path d="M40.2891 55H8.72856C8.24379 55 7.7747 54.8365 7.44134 54.5516C7.10825 54.2667 6.93267 53.8789 6.95976 53.4873L8.07618 37.9176C8.18987 36.2669 9.59901 34.8859 11.5824 34.482L17.0485 33.3691C19.1809 32.9349 20.581 32.4107 22.0629 31.8196C23.0343 31.4321 23.6378 30.6472 23.6378 29.7711V28.4421C23.6378 28.2541 23.7592 28.0799 23.9582 27.9825C24.1569 27.8852 24.4039 27.879 24.61 27.9662C25.966 28.5405 27.4275 28.8316 28.9532 28.8316C30.283 28.8316 31.5731 28.6077 32.7878 28.166C33.0054 28.0867 33.259 28.1082 33.4516 28.2221C33.6445 28.336 33.7467 28.5248 33.7199 28.7164C33.7079 28.8024 33.7021 28.8791 33.7021 28.9508V44.6503C33.7021 45.7969 34.8554 46.7298 36.2731 46.7298H46.2478C46.6147 46.7298 46.9119 46.9702 46.9119 47.2669V51.628C46.9119 51.9247 46.6147 52.1651 46.2478 52.1651H40.2893C39.8157 52.1651 39.4306 52.4767 39.4306 52.8595V53.231C39.4306 53.614 39.8157 53.9256 40.2893 53.9256C40.6562 53.9256 40.9534 54.166 40.9534 54.4627C40.9534 54.7594 40.6559 55 40.2891 55ZM24.9657 29.2804V29.7713C24.9657 31.0595 24.0785 32.2135 22.65 32.7832C21.099 33.4018 19.6311 33.9511 17.3725 34.4109L11.9065 35.5238C10.4897 35.8123 9.4832 36.7989 9.40192 37.9786L8.2855 53.5483C8.27886 53.6467 8.32162 53.7412 8.40636 53.8134C8.49082 53.8858 8.60531 53.9256 8.72856 53.9256H38.2777C38.1649 53.7122 38.1022 53.4774 38.1022 53.231V52.8595C38.1022 51.8841 39.0831 51.0909 40.2891 51.0909H45.5835V47.804H36.2728C34.1228 47.804 32.3737 46.3893 32.3737 44.6503V29.451C31.2732 29.7531 30.1268 29.9058 28.9532 29.9058C27.5911 29.906 26.2311 29.6914 24.9657 29.2804Z" fill="black"/>
<path d="M15.2051 54.8004C14.8382 54.8004 14.541 54.56 14.541 54.2633V40.6974C14.541 40.4007 14.8382 40.1603 15.2051 40.1603C15.5719 40.1603 15.8691 40.4007 15.8691 40.6974V54.2633C15.8691 54.56 15.5719 54.8004 15.2051 54.8004Z" fill="black"/>
<path d="M29.1007 24.8449C27.8089 24.8449 26.5961 24.4187 25.8563 23.7048C25.6207 23.4772 25.6576 23.1386 25.9387 22.9481C26.22 22.7575 26.6386 22.7876 26.8742 23.0147C27.3648 23.4882 28.197 23.7707 29.1007 23.7707C30.0041 23.7707 30.8365 23.4882 31.3271 23.0147C31.5627 22.7874 31.9814 22.7573 32.2624 22.9481C32.5434 23.1386 32.5803 23.4775 32.3447 23.7045C31.6047 24.4187 30.3921 24.8449 29.1007 24.8449Z" fill="black"/>
<path d="M33.6554 19.863C34.4046 19.863 35.0119 19.3718 35.0119 18.7658C35.0119 18.1598 34.4046 17.6686 33.6554 17.6686C32.9062 17.6686 32.2988 18.1598 32.2988 18.7658C32.2988 19.3718 32.9062 19.863 33.6554 19.863Z" fill="black"/>
<path d="M24.546 19.863C25.2952 19.863 25.9025 19.3718 25.9025 18.7658C25.9025 18.1598 25.2952 17.6686 24.546 17.6686C23.7968 17.6686 23.1895 18.1598 23.1895 18.7658C23.1895 19.3718 23.7968 19.863 24.546 19.863Z" fill="black"/>
<path d="M53.2812 20.3526C53.1112 20.3526 52.9412 20.3002 52.8115 20.1953L49.7513 17.7201C49.4918 17.5104 49.4918 17.1703 49.7513 16.9606L52.8115 14.4854C53.0708 14.2755 53.4915 14.2755 53.7505 14.4854C54.01 14.6951 54.01 15.0352 53.7505 15.2449L51.1599 17.3405L53.7505 19.4361C54.01 19.6458 54.01 19.9859 53.7505 20.1955C53.6212 20.3002 53.4512 20.3526 53.2812 20.3526Z" fill="black"/>
<path d="M59.8752 20.3526C59.7052 20.3526 59.5352 20.3001 59.4056 20.1953C59.1461 19.9856 59.1461 19.6455 59.4056 19.4358L61.9962 17.3402L59.4056 15.2447C59.1461 15.035 59.1461 14.6949 59.4056 14.4852C59.6648 14.2753 60.0856 14.2753 60.3446 14.4852L63.4048 16.9604C63.6643 17.1701 63.6643 17.5102 63.4048 17.7199L60.3446 20.1953C60.2149 20.3001 60.0449 20.3526 59.8752 20.3526Z" fill="black"/>
<path d="M55.5159 20.6704C55.4511 20.6704 55.3855 20.6627 55.3204 20.6465C54.9701 20.5593 54.7732 20.2588 54.8811 19.9752L57.0061 14.3892C57.1139 14.1056 57.4853 13.9464 57.8362 14.0339C58.1865 14.1211 58.3834 14.4217 58.2755 14.7053L56.1505 20.2912C56.0626 20.5221 55.7996 20.6704 55.5159 20.6704Z" fill="black"/>
<path d="M13.284 6.27344C12.4605 6.14453 11.7965 5.62891 11.6371 4.96289C11.6371 4.94141 11.5574 4.94141 11.5574 4.96289C11.398 5.62891 10.734 6.14453 9.91055 6.27344C9.88398 6.27344 9.88398 6.31641 9.91055 6.33789C10.734 6.4668 11.398 6.98242 11.5574 7.64844C11.5574 7.66992 11.6371 7.66992 11.6371 7.64844C11.7965 6.98242 12.4605 6.4668 13.284 6.33789C13.3105 6.31641 13.3105 6.27344 13.284 6.27344Z" fill="#70D6F9"/>
<path d="M2.44509 18.584H3.05603V19.0781C3.05603 19.4648 3.4279 19.7656 3.90603 19.7656C4.35759 19.7656 4.75603 19.4648 4.75603 19.0996V19.0781V18.584H5.36696C5.84509 18.584 6.21696 18.2832 6.21696 17.8965C6.21696 17.5313 5.84509 17.209 5.39353 17.209H5.36696H4.75603V16.7148C4.75603 16.3281 4.38415 16.0273 3.90603 16.0273C3.45446 16.0273 3.05603 16.3281 3.05603 16.6934V16.7148V17.209H2.44509C1.96696 17.209 1.59509 17.5098 1.59509 17.8965C1.56853 18.2617 1.9404 18.584 2.44509 18.584C2.41853 18.584 2.41853 18.584 2.44509 18.584Z" fill="#FC657E"/>
<path d="M6.21562 30.7871C6.71441 30.7871 7.11875 30.4601 7.11875 30.0566C7.11875 29.6532 6.71441 29.3262 6.21562 29.3262C5.71684 29.3262 5.3125 29.6532 5.3125 30.0566C5.3125 30.4601 5.71684 30.7871 6.21562 30.7871Z" fill="#F5C84C"/>
<path d="M44.4695 1.46094C44.9683 1.46094 45.3727 1.1339 45.3727 0.730469C45.3727 0.327042 44.9683 0 44.4695 0C43.9707 0 43.5664 0.327042 43.5664 0.730469C43.5664 1.1339 43.9707 1.46094 44.4695 1.46094Z" fill="#87D147"/>
<path d="M53.6063 6.48828C54.8016 6.31641 55.7312 5.56445 55.9703 4.61914C55.9703 4.57617 56.0766 4.57617 56.0766 4.61914C56.3156 5.56445 57.2453 6.31641 58.4406 6.48828C58.4937 6.48828 58.4937 6.55273 58.4406 6.57422C57.2453 6.74609 56.3156 7.49805 56.0766 8.44336C56.0766 8.48633 55.9703 8.48633 55.9703 8.44336C55.7312 7.49805 54.8016 6.74609 53.6063 6.57422C53.5531 6.55273 53.5531 6.48828 53.6063 6.48828Z" fill="#F5C84C"/>
<path d="M28.9536 29.906C23.0206 29.906 18.1934 26.0019 18.1934 21.2029V14.3496C18.1934 13.1209 18.7708 11.9545 19.8193 11.0653C20.7165 10.3041 22.1663 10.2229 23.1945 10.8737C24.3335 11.5947 26.2593 12.454 28.9647 12.454C31.6645 12.454 33.58 11.5979 34.7113 10.8795C35.7408 10.2259 37.1927 10.3056 38.0879 11.0651C39.1363 11.9543 39.7138 13.1207 39.7138 14.3494V21.2029C39.7138 23.1836 38.8587 25.1262 37.3061 26.6728C37.18 26.7985 36.9906 26.8714 36.7906 26.8714H36.2734C34.9657 26.8714 33.8682 27.6646 33.7202 28.7164C33.6936 28.9049 33.5465 29.0681 33.3327 29.1457C31.9442 29.6504 30.4711 29.906 28.9536 29.906ZM21.6319 11.5102C21.3206 11.5102 21.013 11.6093 20.784 11.8035C19.9688 12.4951 19.5217 13.3981 19.5217 14.3496V21.2029C19.5217 25.4096 23.7529 28.8318 28.9538 28.8318C30.1656 28.8318 31.345 28.6455 32.4654 28.2777C32.8513 26.8432 34.4238 25.7973 36.2734 25.7973H36.4676C37.7067 24.4758 38.3856 22.8542 38.3856 21.2029V14.3496C38.3856 13.3983 37.9386 12.4951 37.1268 11.8065C36.7058 11.4497 36.02 11.4142 35.5312 11.7247C34.2353 12.5475 32.0438 13.5285 28.9647 13.5285C25.8808 13.5285 23.6796 12.5449 22.3759 11.7197C22.1541 11.5792 21.8917 11.5102 21.6319 11.5102Z" fill="black"/>
<path d="M39.6967 22.3351C39.4532 22.3351 39.1984 22.3173 38.9177 22.2807C38.5792 22.2365 38.3378 21.9911 38.3609 21.7144C38.3771 21.5176 38.3848 21.3552 38.3848 21.2029V15.021C38.3848 14.7563 38.6233 14.5309 38.9469 14.4903C39.2 14.4585 39.4521 14.4424 39.6967 14.4424C42.3872 14.4424 44.576 16.2127 44.576 18.3888C44.576 20.5648 42.3872 22.3351 39.6967 22.3351ZM39.7129 15.5166V21.2029C39.7129 21.222 39.7129 21.2413 39.7127 21.2609C41.6634 21.254 43.2479 19.9682 43.2479 18.3886C43.2479 16.8093 41.6637 15.5235 39.7129 15.5166Z" fill="black"/>
<path d="M18.2093 22.3352C15.5188 22.3352 13.3301 20.5649 13.3301 18.3887C13.3301 16.2128 15.5188 14.4423 18.2093 14.4423C18.4537 14.4423 18.7061 14.4584 18.9592 14.4902C19.2827 14.5308 19.5213 14.7561 19.5213 15.0208V21.203C19.5213 21.3553 19.529 21.5177 19.5452 21.7143C19.5683 21.9908 19.3274 22.2361 18.989 22.2804C18.709 22.3174 18.454 22.3352 18.2093 22.3352ZM18.1931 15.5167C16.2424 15.5238 14.6582 16.8096 14.6582 18.3889C14.6582 19.9685 16.2427 21.2543 18.1934 21.2612C18.1934 21.2416 18.1931 21.2223 18.1931 21.2032V15.5167Z" fill="black"/>
<path d="M41.8418 15.9943C41.7247 15.9943 41.6075 15.9691 41.5032 15.9191C40.9538 15.6557 40.3296 15.5165 39.6977 15.5165C39.5213 15.5165 39.3378 15.5283 39.1518 15.5517C38.9601 15.5758 38.7648 15.5309 38.6179 15.4288C38.4708 15.3268 38.3858 15.1779 38.3858 15.021V14.3496C38.3858 13.3983 37.9387 12.4951 37.127 11.8065C36.7062 11.4497 36.0201 11.4142 35.5316 11.7247C34.2357 12.5475 32.0443 13.5285 28.9651 13.5285C25.8812 13.5285 23.68 12.545 22.3763 11.7197C21.8889 11.4112 21.2044 11.4473 20.7841 11.8037C19.9689 12.4953 19.5219 13.3985 19.5219 14.3499V15.0212C19.5219 15.1781 19.4372 15.3272 19.2897 15.429C19.1426 15.5311 18.9471 15.576 18.7558 15.5519C18.5699 15.5287 18.3863 15.5167 18.21 15.5167C17.5852 15.5167 16.9674 15.6527 16.4231 15.9101C16.2175 16.007 15.9636 16.008 15.7575 15.9122C15.5511 15.8164 15.4238 15.6387 15.4238 15.4464V12.0323C15.4238 7.30685 19.6042 3.29314 25.3638 2.48877C30.4362 1.78043 34.658 2.25609 36.9477 3.79394C38.2965 4.69994 38.9999 5.93873 39.0392 7.4768C40.3472 7.48625 42.5059 8.18062 42.5059 12.6541V15.4572C42.5059 15.6501 42.3779 15.8284 42.1704 15.9238C42.0687 15.9709 41.9553 15.9943 41.8418 15.9943ZM39.7139 14.4425C40.2117 14.4437 40.7055 14.5078 41.1778 14.6304V12.6543C41.1778 10.0468 40.3883 8.55101 39.0121 8.55101C38.305 8.55101 37.722 8.09598 37.7122 7.53695C37.6912 6.30654 37.1485 5.32535 36.0993 4.62045C34.109 3.28369 30.2781 2.89267 25.5898 3.5473C20.4688 4.26252 16.752 7.83107 16.752 12.0323V14.6244C17.2176 14.5056 17.7037 14.4437 18.1935 14.4425V14.3499C18.1935 13.1212 18.7707 11.9548 19.8194 11.0653C20.7167 10.3041 22.1665 10.2229 23.1947 10.8737C24.3337 11.5947 26.2595 12.4541 28.9649 12.4541C31.6647 12.4541 33.5801 11.5979 34.7114 10.8795C35.741 10.2259 37.1929 10.3056 38.088 11.0651C39.1364 11.9544 39.7139 13.1207 39.7139 14.3496V14.4425Z" fill="black"/>
<path d="M25.5741 39.0341C25.1738 39.0341 24.7732 38.911 24.4683 38.6644L18.5148 33.8491C18.3525 33.7178 18.2856 33.5281 18.3377 33.3474C18.3897 33.1665 18.5536 33.0204 18.7712 32.9607C19.92 32.6455 20.8823 32.2904 22.0628 31.8197C22.2673 31.738 22.4631 31.6332 22.6445 31.5081C22.908 31.3264 23.3001 31.339 23.545 31.5371L28.4125 35.4741C29.0222 35.9672 29.0222 36.7696 28.4125 37.2627L26.6796 38.6644C26.3749 38.9108 25.9746 39.0341 25.5741 39.0341ZM25.4075 37.9049C25.4997 37.979 25.649 37.979 25.7406 37.9049L27.4736 36.5032C27.5655 36.4289 27.5652 36.308 27.4736 36.2338L23.0079 32.6219C22.8915 32.6807 22.772 32.7347 22.6503 32.7832C21.769 33.1347 21.0019 33.425 20.1893 33.6843L25.4075 37.9049Z" fill="black"/>
<path d="M32.5963 39.0318C32.1915 39.0318 31.7912 38.9059 31.4929 38.6644L29.7599 37.2628C29.1503 36.7699 29.1503 35.9675 29.7599 35.4742L32.5689 33.2024C32.7588 33.0486 33.0449 33.0028 33.2925 33.086C33.5408 33.1691 33.7023 33.3649 33.7023 33.5823V38.4014C33.7023 38.5954 33.5733 38.7742 33.3642 38.8694C33.1241 38.9787 32.8593 39.0318 32.5963 39.0318ZM32.374 34.8789L30.6987 36.2337C30.607 36.308 30.6068 36.429 30.6987 36.5031L32.374 37.8579V34.8789Z" fill="black"/>
<path d="M15.2042 55H8.72856C8.24379 55 7.7747 54.8365 7.44134 54.5516C7.10825 54.2667 6.93267 53.8789 6.95976 53.4873L7.5545 45.1935C7.57495 44.9094 7.86554 44.6875 8.2175 44.6875H15.2042C15.5711 44.6875 15.8683 44.9279 15.8683 45.2246V54.4629C15.8683 54.7596 15.5711 55 15.2042 55ZM8.84384 45.7617L8.2855 53.5483C8.27886 53.6467 8.32162 53.7412 8.40636 53.8134C8.49082 53.8858 8.60531 53.9256 8.72856 53.9256H14.5402V45.7615H8.84384V45.7617Z" fill="black"/>
<path d="M28.9537 36.9188C28.7114 36.9188 28.4516 36.9108 28.1597 36.8943C27.8152 36.8747 27.5464 36.6449 27.5419 36.3656C27.5413 36.3299 27.5291 36.2781 27.4741 36.2336L22.6066 32.2966C22.4756 32.1907 22.4052 32.0453 22.4126 31.8955C22.4201 31.7458 22.5043 31.6053 22.6453 31.5082C23.2765 31.0729 23.6385 30.4397 23.6385 29.7714V28.4423C23.6385 28.2543 23.7599 28.0801 23.9588 27.9828C24.1575 27.8855 24.4046 27.8792 24.6107 27.9665C25.9667 28.5407 27.4282 28.8318 28.9539 28.8318C30.2836 28.8318 31.5738 28.608 32.7885 28.1663C33.006 28.087 33.2597 28.1085 33.4523 28.2223C33.6451 28.3362 33.7474 28.525 33.7206 28.7167C33.7086 28.8026 33.7028 28.8793 33.7028 28.9511V33.5823C33.7028 33.7247 33.6329 33.8613 33.5083 33.9621L30.6996 36.2339C30.6481 36.2757 30.6351 36.3265 30.6335 36.3615C30.6213 36.6302 30.3647 36.8502 30.0337 36.876C29.6679 36.9042 29.3048 36.9188 28.9537 36.9188ZM28.7295 35.842C28.9797 35.8474 29.2068 35.8441 29.4493 35.8338C29.5253 35.701 29.6297 35.5792 29.7598 35.474L32.3741 33.3595V29.451C31.2736 29.7531 30.1272 29.9058 28.9537 29.9058C27.5918 29.9058 26.2318 29.6912 24.9664 29.2802V29.7711C24.9664 30.5598 24.6242 31.315 24.0101 31.9129L28.4128 35.474C28.5465 35.582 28.653 35.7066 28.7295 35.842Z" fill="black"/>
<path d="M57.3272 55.0001H40.2885C39.0825 55.0001 38.1016 54.2066 38.1016 53.2312V52.8598C38.1016 51.8844 39.0825 51.0912 40.2885 51.0912H57.3272C58.5332 51.0912 59.5141 51.8846 59.5141 52.8598V53.2312C59.5141 54.2066 58.5332 55.0001 57.3272 55.0001ZM40.2885 52.1654C39.8148 52.1654 39.4297 52.4769 39.4297 52.8598V53.2312C39.4297 53.6143 39.8148 53.9258 40.2885 53.9258H57.3272C57.8008 53.9258 58.186 53.6143 58.186 53.2312V52.8598C58.186 52.4769 57.8008 52.1654 57.3272 52.1654H40.2885Z" fill="black"/>
<path d="M61.344 47.8042H51.3692C51.0024 47.8042 50.7052 47.5638 50.7052 47.2671V41.114C50.7052 40.8354 50.4249 40.6085 50.0804 40.6085H47.536C47.1915 40.6085 46.911 40.8351 46.911 41.114V47.2671C46.911 47.5638 46.6137 47.8042 46.2469 47.8042H36.2722C34.1222 47.8042 32.373 46.3895 32.373 44.6505V28.9511C32.373 27.2121 34.1222 25.7974 36.2722 25.7974H61.344C63.4939 25.7974 65.2431 27.2121 65.2431 28.9511V44.6505C65.2431 46.3895 63.4939 47.8042 61.344 47.8042ZM52.0333 46.73H61.344C62.7616 46.73 63.915 45.7972 63.915 44.6505V28.9511C63.915 27.8044 62.7616 26.8716 61.344 26.8716H36.2722C34.8545 26.8716 33.7012 27.8044 33.7012 28.9511V44.6505C33.7012 45.7972 34.8545 46.73 36.2722 46.73H45.5828V41.114C45.5828 40.243 46.4589 39.5343 47.536 39.5343H50.0804C51.1572 39.5343 52.0333 40.2428 52.0333 41.114V46.73Z" fill="black"/>
<path d="M51.3701 52.1654H46.248C45.8812 52.1654 45.584 51.925 45.584 51.6283V41.114C45.584 40.2431 46.46 39.5343 47.5371 39.5343H50.0815C51.1584 39.5343 52.0344 40.2429 52.0344 41.114V51.6283C52.0342 51.925 51.7367 52.1654 51.3701 52.1654ZM46.9118 51.0912H50.7058V41.114C50.7058 40.8354 50.4255 40.6085 50.081 40.6085H47.5366C47.1921 40.6085 46.9116 40.8352 46.9116 41.114V51.0912H46.9118Z" fill="black"/>
<path d="M63.8988 23.0334H49.2575C47.8747 23.0334 46.75 22.1235 46.75 21.0052V13.675C46.75 12.5565 47.8749 11.6469 49.2575 11.6469H63.8985C65.2813 11.6469 66.406 12.5567 66.406 13.675V21.0052C66.4062 22.1237 65.2813 23.0334 63.8988 23.0334ZM49.2575 12.7209C48.6073 12.7209 48.0781 13.1488 48.0781 13.6748V21.0052C48.0781 21.5312 48.6073 21.9591 49.2575 21.9591H63.8985C64.5487 21.9591 65.0779 21.5312 65.0779 21.0052V13.675C65.0779 13.149 64.5487 12.7211 63.8985 12.7211L49.2575 12.7209Z" fill="black"/>
</svg>
