<svg width="563" height="546" viewBox="0 0 563 546" fill="none" xmlns="http://www.w3.org/2000/svg">
<path d="M464.272 270.674C362.673 213.781 198.536 213.781 97.5333 270.674C-3.46889 327.567 -2.88338 419.798 98.6593 476.691C200.202 533.584 364.474 533.584 465.42 476.691C566.366 419.798 565.882 327.6 464.272 270.674Z" fill="#F5F5F5"/>
<path d="M53.97 390.63C61.4804 386.415 73.6299 386.415 81.0953 390.63C88.5607 394.845 88.5157 401.659 81.0052 405.864C73.4948 410.068 61.3453 410.079 53.8799 405.864C46.4145 401.649 46.4483 394.834 53.97 390.63Z" fill="#E0E0E0"/>
<path d="M494.449 360.578C502.331 356.21 515.066 356.21 522.903 360.578C530.74 364.946 530.684 372.143 522.813 376.554C514.942 380.966 502.185 380.922 494.359 376.554C486.533 372.186 486.567 364.99 494.449 360.578Z" fill="#E0E0E0"/>
<path d="M370.128 284.619L81.4666 448.091L69.2383 441.244L357.9 277.772L370.128 284.619Z" fill="#E0E0E0"/>
<path d="M446.877 371.28C418.727 355.522 373.271 355.522 345.323 371.28C320.619 385.192 317.883 406.748 336.98 422.451C321.565 421.523 305.598 424.373 293.831 431.001C273.169 442.642 273.282 461.523 294.068 473.164C314.854 484.804 348.465 484.804 369.116 473.164C385.555 463.903 388.832 450.057 379.013 438.929C402.659 442.205 428.76 438.722 447.204 428.326C475.174 412.601 475.016 387.059 446.877 371.28Z" fill="#E0E0E0"/>
<path d="M128.465 101.851L128.555 131.127L132.214 133.191L132.113 99.8087L128.465 101.851Z" fill="#F0F0F0"/>
<path d="M89.0547 153.251L89.0659 157.357L132.214 133.191L128.555 131.127L89.0547 153.251Z" fill="#F5F5F5"/>
<path d="M136.528 92.4159L84.5293 121.529L84.6532 164.761L136.652 135.648L136.528 92.4159ZM89.0671 157.357V153.251L88.9545 123.975L128.455 101.851L132.103 99.8087L132.204 133.191L89.0671 157.357Z" fill="#E0E0E0"/>
<path d="M136.527 92.4159L132.868 90.3521L80.8691 119.465L84.5286 121.529L136.527 92.4159Z" fill="#F5F5F5"/>
<path d="M80.8691 119.465L80.993 162.697L84.6525 164.761L84.5286 121.529L80.8691 119.465Z" fill="#F0F0F0"/>
<path d="M438.746 185.159L438.656 214.447L434.996 216.5L435.097 183.117L438.746 185.159Z" fill="#F0F0F0"/>
<path d="M478.167 236.56L478.156 240.666L434.996 216.5L438.656 214.447L478.167 236.56Z" fill="#F5F5F5"/>
<path d="M430.57 218.957L482.558 248.07L482.682 204.837L430.694 175.725L430.57 218.957ZM435.007 216.5L435.097 183.117L438.745 185.159L478.245 207.283L478.166 236.56V240.666L435.007 216.5Z" fill="#E0E0E0"/>
<path d="M430.695 175.725L434.355 173.661L486.342 202.773L482.683 204.837L430.695 175.725Z" fill="#F5F5F5"/>
<path d="M486.342 202.773L486.218 246.006L482.559 248.07L482.682 204.837L486.342 202.773Z" fill="#F0F0F0"/>
<path d="M205.822 131.87V124.761L205.484 124.947L204.876 125.296C199.46 128.474 194.021 133.453 188.966 138.848C188.121 139.732 187.299 140.639 186.477 141.545C182.21 146.284 178.044 151.308 173.742 156.003V167.491L178.911 164.597C185.646 152.123 194.781 141.014 205.822 131.87Z" fill="#EBEBEB"/>
<path d="M205.878 149.506V140.005C201.386 144.634 197.677 149.923 194.889 155.675L205.878 149.506Z" fill="#EBEBEB"/>
<path d="M194.854 155.675C197.642 149.923 201.351 144.634 205.843 140.005V131.87C194.803 141.025 185.672 152.145 178.943 164.63L194.876 155.708L194.854 155.675Z" fill="#FAFAFA"/>
<path d="M184.045 122.075L184.799 121.823C186.18 121.343 187.577 120.786 188.988 120.153L189.506 119.912L190.925 119.235L191.229 119.093C191.938 118.733 192.659 118.351 193.379 118.001L193.841 117.75L194.224 117.532C198.13 115.298 201.829 112.74 205.281 109.888L205.754 109.484V97.4719C197.872 101.37 190.159 102.582 183.921 100.748C179.6 99.3841 175.92 96.5739 173.539 92.8199L173.629 124.04C177.179 123.865 180.686 123.203 184.045 122.075Z" fill="#FAFAFA"/>
<path d="M188.943 138.848C193.999 133.453 199.437 128.474 204.853 125.296L205.461 124.947L205.799 124.761V117.881C195.286 123.867 185.546 131.044 176.782 139.263C175.735 140.235 174.688 141.217 173.641 142.167V156.003C177.942 151.307 182.108 146.284 186.376 141.545C187.276 140.639 188.098 139.776 188.943 138.848Z" fill="#FAFAFA"/>
<path d="M205.777 117.936V109.462L205.304 109.866C201.853 112.719 198.153 115.276 194.247 117.51L193.864 117.728L193.402 117.98C192.682 118.373 191.961 118.755 191.252 119.072L190.948 119.214L189.529 119.891L189.011 120.131C187.607 120.764 186.211 121.321 184.822 121.802L184.068 122.053C180.711 123.192 177.204 123.865 173.652 124.051L173.709 142.146C174.756 141.196 175.803 140.213 176.85 139.241C185.59 131.055 195.3 123.903 205.777 117.936Z" fill="#EBEBEB"/>
<path d="M205.697 87.6766V78.7878C200.731 77.6958 196.88 74.1577 194.854 68.9052L183.875 75.0531C185.798 79.0289 188.904 82.3556 192.793 84.6052C196.682 86.8549 201.176 87.9246 205.697 87.6766Z" fill="#FAFAFA"/>
<path d="M183.888 100.628C190.126 102.506 197.861 101.294 205.721 97.3517V87.6329C201.194 87.8875 196.693 86.8211 192.797 84.571C188.902 82.3209 185.79 78.9905 183.865 75.0094L173.506 80.8079V92.8199C175.908 96.5288 179.586 99.2944 183.888 100.628Z" fill="#EBEBEB"/>
<path d="M207.421 59.8306L171.682 79.8469L171.952 170.483L207.691 150.477L207.421 59.8306ZM173.753 167.491V156.003V142.167L173.697 124.073L173.54 92.8199V80.8079L183.876 75.0203L194.798 68.9051L205.597 62.8554V78.7877V87.6766V97.3954V109.407V117.881V124.761V131.87V140.005V149.506L194.573 155.675L178.64 164.597L173.753 167.491Z" fill="white"/>
<path d="M205.663 78.7877V62.8555L194.797 68.9051C196.846 74.1577 200.697 77.663 205.663 78.7877Z" fill="#EBEBEB"/>
<path d="M207.69 150.499L171.951 170.516V172.929L209.83 151.711L207.69 150.499Z" fill="#CACACA"/>
<path d="M207.42 59.8307L207.69 150.499L209.83 151.712L209.559 58.6404L207.42 59.8307Z" fill="#F0F0F0"/>
<path d="M215.313 48.9871L165.893 76.6474L166.208 182.571L215.617 154.9L215.313 48.9871ZM171.95 172.929V170.516L171.68 79.8797L207.419 59.8634L209.559 58.6731L209.84 151.744L171.95 172.929Z" fill="#E0E0E0"/>
<path d="M215.313 48.9871L211.237 46.8577L161.828 74.5289L165.904 76.6474L215.313 48.9871Z" fill="#F5F5F5"/>
<path d="M161.828 74.5289L162.132 180.453L166.208 182.571L165.904 76.6474L161.828 74.5289Z" fill="#F0F0F0"/>
<path d="M115.922 112.967L126.687 121.19L126.709 129.227L90.8799 149.298L90.8574 141.261L97.6922 128.102L103.818 132.722L101.656 139.252L104.797 133.453L115.922 112.967Z" fill="#E0E0E0"/>
<path d="M104.144 117.019C105.833 116.08 107.206 116.833 107.218 118.711C107.157 119.735 106.849 120.731 106.319 121.619C105.789 122.507 105.052 123.261 104.166 123.822C102.477 124.772 101.115 124.008 101.104 122.129C101.163 121.106 101.469 120.111 101.997 119.223C102.525 118.336 103.26 117.581 104.144 117.019Z" fill="#E0E0E0"/>
<path d="M451.3 196.276L440.524 204.51L440.502 212.547L476.331 232.607L476.354 224.57L469.53 211.411L463.394 216.03L465.567 222.56L462.414 216.762L451.3 196.276Z" fill="#E0E0E0"/>
<path d="M463.067 200.327C461.378 199.388 460.004 200.142 460.004 202.02C460.062 203.045 460.367 204.042 460.895 204.932C461.423 205.822 462.159 206.578 463.044 207.141C464.733 208.081 466.107 207.327 466.107 205.438C466.053 204.414 465.749 203.416 465.221 202.528C464.692 201.64 463.954 200.885 463.067 200.327Z" fill="#E0E0E0"/>
<path d="M49.2848 366.41L67.481 366.934L85.6771 366.41C86.4653 378.334 84.067 390.434 80.7565 396.407C79.972 397.932 78.711 399.178 77.1533 399.967C71.771 402.948 63.0558 402.948 57.7636 399.967C56.1831 399.167 54.9172 397.885 54.1604 396.32C50.8837 390.346 48.5079 378.269 49.2848 366.41Z" fill="white"/>
<path d="M54.6554 359.192C47.5278 363.177 47.494 369.653 54.5766 373.639C61.6591 377.625 73.1781 377.635 80.3057 373.639C87.4333 369.642 87.4783 363.177 80.3958 359.192C73.3132 355.206 61.7942 355.195 54.6554 359.192Z" fill="#EBEBEB"/>
<path d="M57.4831 360.775C51.9207 363.887 51.8531 368.943 57.4155 372.055C62.978 375.167 71.9297 375.167 77.4921 372.055C83.0546 368.943 83.1221 363.887 77.5597 360.775C71.9972 357.663 63.0568 357.663 57.4831 360.775Z" fill="#E0E0E0"/>
<g opacity="0.15">
<path d="M57.4831 360.775C51.9207 363.887 51.8531 368.943 57.4155 372.055C62.978 375.167 71.9297 375.167 77.4921 372.055C83.0546 368.943 83.1221 363.887 77.5597 360.775C71.9972 357.663 63.0568 357.663 57.4831 360.775Z" fill="black"/>
</g>
<path d="M37.5625 291.116C78.5714 304.133 78.943 330.734 69.6985 349.68C67.3677 353.524 60.3077 355.577 54.171 332.012L64.9468 333.355L52.3919 327.185L49.1265 317.772L59.5983 318.526L46.3115 313.066C43.8629 305.582 40.941 298.251 37.5625 291.116Z" fill="#FF725E"/>
<path opacity="0.2" d="M37.5625 291.116C78.5714 304.133 78.943 330.734 69.6985 349.68C67.3677 353.524 60.3077 355.577 54.171 332.012L64.9468 333.355L52.3919 327.185L49.1265 317.772L59.5983 318.526L46.3115 313.066C43.8629 305.582 40.941 298.251 37.5625 291.116Z" fill="black"/>
<path opacity="0.2" d="M37.5625 291.116C78.5714 304.133 78.943 330.734 69.6985 349.68C67.3677 353.524 60.3077 355.577 54.171 332.012L64.9468 333.355L52.3919 327.185L49.1265 317.772L59.5983 318.526L46.3115 313.066C43.8629 305.582 40.941 298.251 37.5625 291.116Z" fill="white"/>
<path d="M49.1602 297.767C70.7906 313.688 72.7386 331.968 66.6357 350.98C68.7976 334.207 71.1284 317.248 49.1602 297.767Z" fill="white"/>
<path d="M107.025 318.143C66.6019 323.658 61.6925 348.37 67.0636 367.513C68.5724 371.455 74.7879 374.512 84.5503 353.557L74.315 353.065L87.0613 349.342L91.7117 341.064L81.8367 340.082L95.1347 337.177C98.6865 330.599 102.658 324.242 107.025 318.143Z" fill="#FF725E"/>
<path opacity="0.2" d="M107.025 318.143C66.6019 323.658 61.6925 348.37 67.0636 367.513C68.5724 371.455 74.7879 374.512 84.5503 353.557L74.315 353.065L87.0613 349.342L91.7117 341.064L81.8367 340.082L95.1347 337.177C98.6865 330.599 102.658 324.242 107.025 318.143Z" fill="white"/>
<path opacity="0.1" d="M107.025 318.143C66.6019 323.658 61.6925 348.37 67.0636 367.513C68.5724 371.455 74.7879 374.512 84.5503 353.557L74.315 353.065L87.0613 349.342L91.7117 341.064L81.8367 340.082L95.1347 337.177C98.6865 330.599 102.658 324.242 107.025 318.143Z" fill="black"/>
<path d="M95.0798 322.468C72.2107 333.802 67.2676 350.532 69.6997 369.216C70.5555 353.24 71.2874 337.068 95.0798 322.468Z" fill="white"/>
<path d="M25.7402 327.403C62.8082 327.993 70.0821 349.735 67.4022 367.556C66.5014 371.28 61.243 374.709 50.0393 356.887L59.2275 355.326L47.3031 353.36L42.1573 346.404L50.9401 344.45L38.6217 343.27C34.668 337.73 30.366 332.431 25.7402 327.403Z" fill="#FF725E"/>
<path d="M37 330.002C58.912 337.745 65.3076 352.236 65.3076 369.38C62.6503 355.086 60.128 340.584 37 330.002Z" fill="white"/>
<path opacity="0.2" d="M25.7402 327.403C62.8082 327.993 70.0821 349.735 67.4022 367.556C66.5014 371.28 61.243 374.709 50.0393 356.887L59.2275 355.326L47.3031 353.36L42.1573 346.404L50.9401 344.45L38.6217 343.27C34.668 337.73 30.366 332.431 25.7402 327.403Z" fill="white"/>
<path d="M489.55 335.178L508.624 335.724L527.766 335.178C528.588 347.682 526.077 360.415 522.609 366.639C521.79 368.236 520.469 369.54 518.837 370.363C513.207 373.519 504.109 373.519 498.569 370.363C496.911 369.528 495.585 368.184 494.797 366.541C491.216 360.284 488.683 347.616 489.55 335.178Z" fill="white"/>
<path d="M495.181 327.6C487.704 331.793 487.659 338.575 495.091 342.768C502.522 346.961 514.604 346.95 522.115 342.768C529.625 338.586 529.625 331.793 522.205 327.6C514.784 323.407 502.657 323.418 495.181 327.6Z" fill="#EBEBEB"/>
<path d="M498.143 329.271C492.311 332.547 492.277 337.832 498.064 341.097C503.852 344.362 513.288 344.373 519.121 341.097C524.953 337.821 524.987 332.536 519.188 329.271C513.389 326.006 503.976 326.006 498.143 329.271Z" fill="#E0E0E0"/>
<g opacity="0.15">
<path d="M498.143 329.271C492.311 332.547 492.277 337.832 498.064 341.097C503.852 344.362 513.288 344.373 519.121 341.097C524.953 337.821 524.987 332.536 519.188 329.271C513.389 326.006 503.976 326.006 498.143 329.271Z" fill="black"/>
</g>
<path d="M518.365 297.308C521.462 293.573 525.065 290.221 527.914 286.29C529.862 283.603 531.483 280.327 530.661 277.15C530.207 275.689 529.342 274.38 528.162 273.371C526.982 272.362 525.535 271.693 523.984 271.438C520.837 270.979 517.626 271.672 514.976 273.382C512.371 275.077 510.085 277.193 508.22 279.639C497.48 292.832 492.398 309.533 494.033 326.268C494.073 328.185 494.692 330.049 495.812 331.629C496.494 332.412 497.394 332.988 498.404 333.288C499.414 333.588 500.492 333.6 501.509 333.322C506.711 331.826 506.013 325.012 506.869 321.015C508.7 312.342 512.633 304.216 518.343 297.308H518.365Z" fill="#FF725E"/>
<path opacity="0.2" d="M518.365 297.308C521.462 293.573 525.065 290.221 527.914 286.29C529.862 283.603 531.483 280.327 530.661 277.15C530.207 275.689 529.342 274.38 528.162 273.371C526.982 272.362 525.535 271.693 523.984 271.438C520.837 270.979 517.626 271.672 514.976 273.382C512.371 275.077 510.085 277.193 508.22 279.639C497.48 292.832 492.398 309.533 494.033 326.268C494.073 328.185 494.692 330.049 495.812 331.629C496.494 332.412 497.394 332.988 498.404 333.288C499.414 333.588 500.492 333.6 501.509 333.322C506.711 331.826 506.013 325.012 506.869 321.015C508.7 312.342 512.633 304.216 518.343 297.308H518.365Z" fill="white"/>
<path d="M501.205 328.244C501.305 328.225 501.397 328.174 501.464 328.099C501.531 328.023 501.571 327.929 501.576 327.829C501.937 319.738 504.65 292.121 524.276 276.505C524.324 276.469 524.363 276.424 524.392 276.373C524.421 276.322 524.439 276.266 524.446 276.208C524.452 276.15 524.446 276.091 524.429 276.035C524.411 275.98 524.382 275.928 524.344 275.883C524.267 275.793 524.157 275.736 524.037 275.723C523.917 275.711 523.797 275.745 523.702 275.817C503.783 291.728 501.036 319.661 500.664 327.851C500.661 327.968 500.705 328.082 500.787 328.167C500.869 328.253 500.983 328.304 501.103 328.31L501.205 328.244Z" fill="#F0F0F0"/>
<path d="M498.345 329.129C498.759 330.898 499.536 332.569 500.631 334.04C501.727 335.511 503.117 336.753 504.719 337.69C507.719 339.071 511.056 339.615 514.357 339.263C517.703 338.891 520.991 338.135 524.153 337.013C525.719 336.5 527.475 335.801 527.644 333.912C527.671 333.415 527.585 332.918 527.39 332.457C527.195 331.996 526.897 331.583 526.518 331.247C526.196 330.947 525.857 330.662 525.505 330.396C525.341 330.277 525.219 330.112 525.155 329.924C525.09 329.736 525.086 329.534 525.144 329.344C525.202 329.154 525.318 328.985 525.477 328.861C525.636 328.737 525.83 328.663 526.034 328.648C526.971 328.59 527.903 328.477 528.826 328.31C530.979 327.974 533 327.089 534.682 325.744C535.907 324.688 536.84 323.352 537.395 321.856C537.868 320.589 538.003 318.995 537.001 318.045C536.385 317.547 535.635 317.229 534.839 317.128C534.141 316.986 533.443 316.855 532.734 316.746C532.535 316.713 532.353 316.619 532.214 316.477C532.075 316.336 531.987 316.154 531.963 315.96C531.939 315.766 531.98 315.57 532.08 315.401C532.181 315.231 532.335 315.098 532.52 315.02L535.481 313.83C536.333 313.561 537.106 313.097 537.733 312.476C538.12 311.897 538.372 311.244 538.471 310.561C538.571 309.878 538.515 309.182 538.307 308.523C537.947 306.721 537.305 304.996 536.866 303.205C536.348 301.427 536.282 299.553 536.675 297.745C531.123 297.15 525.506 297.52 520.089 298.837C518.466 299.167 516.932 299.822 515.585 300.759C513.738 302.189 513.265 304.34 513.456 306.666C513.459 306.759 513.43 306.85 513.374 306.925C513.317 306.999 513.237 307.054 513.145 307.079C513.053 307.104 512.955 307.099 512.866 307.063C512.778 307.028 512.704 306.965 512.657 306.885L510.743 303.576C510.465 303.086 510.005 302.718 509.456 302.547C508.907 302.377 508.312 302.417 507.793 302.659C506.137 303.455 504.666 304.57 503.469 305.935C502.806 306.665 502.301 307.517 501.984 308.44C501.667 309.362 501.544 310.338 501.622 311.307C501.848 313.969 502.308 316.606 502.996 319.192C503.028 319.331 503.017 319.477 502.964 319.61C502.91 319.743 502.818 319.858 502.697 319.94C502.576 320.021 502.433 320.067 502.286 320.07C502.139 320.073 501.994 320.033 501.87 319.956L501.78 319.901C501.272 319.517 500.631 319.338 499.989 319.399C498.323 319.596 497.895 321.234 497.737 322.675C497.675 324.842 497.879 327.009 498.345 329.129Z" fill="#FF725E"/>
<path opacity="0.2" d="M498.345 329.129C498.759 330.898 499.536 332.569 500.631 334.04C501.727 335.511 503.117 336.753 504.719 337.69C507.719 339.071 511.056 339.615 514.357 339.263C517.703 338.891 520.991 338.135 524.153 337.013C525.719 336.5 527.475 335.801 527.644 333.912C527.671 333.415 527.585 332.918 527.39 332.457C527.195 331.996 526.897 331.583 526.518 331.247C526.196 330.947 525.857 330.662 525.505 330.396C525.341 330.277 525.219 330.112 525.155 329.924C525.09 329.736 525.086 329.534 525.144 329.344C525.202 329.154 525.318 328.985 525.477 328.861C525.636 328.737 525.83 328.663 526.034 328.648C526.971 328.59 527.903 328.477 528.826 328.31C530.979 327.974 533 327.089 534.682 325.744C535.907 324.688 536.84 323.352 537.395 321.856C537.868 320.589 538.003 318.995 537.001 318.045C536.385 317.547 535.635 317.229 534.839 317.128C534.141 316.986 533.443 316.855 532.734 316.746C532.535 316.713 532.353 316.619 532.214 316.477C532.075 316.336 531.987 316.154 531.963 315.96C531.939 315.766 531.98 315.57 532.08 315.401C532.181 315.231 532.335 315.098 532.52 315.02L535.481 313.83C536.333 313.561 537.106 313.097 537.733 312.476C538.12 311.897 538.372 311.244 538.471 310.561C538.571 309.878 538.515 309.182 538.307 308.523C537.947 306.721 537.305 304.996 536.866 303.205C536.348 301.427 536.282 299.553 536.675 297.745C531.123 297.15 525.506 297.52 520.089 298.837C518.466 299.167 516.932 299.822 515.585 300.759C513.738 302.189 513.265 304.34 513.456 306.666C513.459 306.759 513.43 306.85 513.374 306.925C513.317 306.999 513.237 307.054 513.145 307.079C513.053 307.104 512.955 307.099 512.866 307.063C512.778 307.028 512.704 306.965 512.657 306.885L510.743 303.576C510.465 303.086 510.005 302.718 509.456 302.547C508.907 302.377 508.312 302.417 507.793 302.659C506.137 303.455 504.666 304.57 503.469 305.935C502.806 306.665 502.301 307.517 501.984 308.44C501.667 309.362 501.544 310.338 501.622 311.307C501.848 313.969 502.308 316.606 502.996 319.192C503.028 319.331 503.017 319.477 502.964 319.61C502.91 319.743 502.818 319.858 502.697 319.94C502.576 320.021 502.433 320.067 502.286 320.07C502.139 320.073 501.994 320.033 501.87 319.956L501.78 319.901C501.272 319.517 500.631 319.338 499.989 319.399C498.323 319.596 497.895 321.234 497.737 322.675C497.675 324.842 497.879 327.009 498.345 329.129Z" fill="black"/>
<path opacity="0.2" d="M498.345 329.129C498.759 330.898 499.536 332.569 500.631 334.04C501.727 335.511 503.117 336.753 504.719 337.69C507.719 339.071 511.056 339.615 514.357 339.263C517.703 338.891 520.991 338.135 524.153 337.013C525.719 336.5 527.475 335.801 527.644 333.912C527.671 333.415 527.585 332.918 527.39 332.457C527.195 331.996 526.897 331.583 526.518 331.247C526.196 330.947 525.857 330.662 525.505 330.396C525.341 330.277 525.219 330.112 525.155 329.924C525.09 329.736 525.086 329.534 525.144 329.344C525.202 329.154 525.318 328.985 525.477 328.861C525.636 328.737 525.83 328.663 526.034 328.648C526.971 328.59 527.903 328.477 528.826 328.31C530.979 327.974 533 327.089 534.682 325.744C535.907 324.688 536.84 323.352 537.395 321.856C537.868 320.589 538.003 318.995 537.001 318.045C536.385 317.547 535.635 317.229 534.839 317.128C534.141 316.986 533.443 316.855 532.734 316.746C532.535 316.713 532.353 316.619 532.214 316.477C532.075 316.336 531.987 316.154 531.963 315.96C531.939 315.766 531.98 315.57 532.08 315.401C532.181 315.231 532.335 315.098 532.52 315.02L535.481 313.83C536.333 313.561 537.106 313.097 537.733 312.476C538.12 311.897 538.372 311.244 538.471 310.561C538.571 309.878 538.515 309.182 538.307 308.523C537.947 306.721 537.305 304.996 536.866 303.205C536.348 301.427 536.282 299.553 536.675 297.745C531.123 297.15 525.506 297.52 520.089 298.837C518.466 299.167 516.932 299.822 515.585 300.759C513.738 302.189 513.265 304.34 513.456 306.666C513.459 306.759 513.43 306.85 513.374 306.925C513.317 306.999 513.237 307.054 513.145 307.079C513.053 307.104 512.955 307.099 512.866 307.063C512.778 307.028 512.704 306.965 512.657 306.885L510.743 303.576C510.465 303.086 510.005 302.718 509.456 302.547C508.907 302.377 508.312 302.417 507.793 302.659C506.137 303.455 504.666 304.57 503.469 305.935C502.806 306.665 502.301 307.517 501.984 308.44C501.667 309.362 501.544 310.338 501.622 311.307C501.848 313.969 502.308 316.606 502.996 319.192C503.028 319.331 503.017 319.477 502.964 319.61C502.91 319.743 502.818 319.858 502.697 319.94C502.576 320.021 502.433 320.067 502.286 320.07C502.139 320.073 501.994 320.033 501.87 319.956L501.78 319.901C501.272 319.517 500.631 319.338 499.989 319.399C498.323 319.596 497.895 321.234 497.737 322.675C497.675 324.842 497.879 327.009 498.345 329.129Z" fill="white"/>
<path d="M507.14 337.253C508.193 332.936 509.702 328.735 511.644 324.717C511.645 324.655 511.66 324.594 511.687 324.537C511.714 324.481 511.753 324.431 511.801 324.39L512.105 323.734C511.566 318.727 510.069 313.861 507.692 309.385C507.65 309.335 507.62 309.277 507.604 309.215C507.588 309.152 507.586 309.087 507.598 309.024C507.61 308.961 507.636 308.901 507.674 308.848C507.712 308.796 507.761 308.751 507.818 308.719C507.876 308.686 507.939 308.666 508.005 308.66C508.071 308.653 508.138 308.661 508.201 308.682C508.263 308.702 508.321 308.736 508.369 308.78C508.417 308.824 508.455 308.878 508.48 308.938C510.708 313.112 512.182 317.625 512.837 322.282C516.609 314.944 522.634 306.35 531.979 300.082C532.028 300.047 532.082 300.022 532.141 300.009C532.199 299.995 532.26 299.994 532.319 300.004C532.378 300.014 532.434 300.036 532.484 300.068C532.534 300.1 532.577 300.142 532.61 300.191C532.644 300.238 532.669 300.291 532.682 300.348C532.694 300.404 532.696 300.462 532.685 300.519C532.675 300.576 532.653 300.631 532.621 300.679C532.588 300.728 532.546 300.77 532.497 300.802C522.904 307.278 516.857 316.243 513.175 323.734C518.11 321.571 523.588 320.85 528.939 321.66C528.998 321.67 529.054 321.692 529.103 321.723C529.153 321.755 529.196 321.796 529.23 321.843C529.263 321.891 529.287 321.945 529.299 322.001C529.311 322.058 529.311 322.116 529.3 322.173C529.284 322.26 529.242 322.341 529.177 322.403C529.112 322.466 529.029 322.508 528.939 322.522H528.77C528.68 322.522 519.999 320.983 512.5 325.045C510.578 329.014 509.08 333.163 508.029 337.428C508.012 337.513 507.968 337.592 507.904 337.652C507.84 337.713 507.758 337.753 507.669 337.767H507.489C507.431 337.756 507.375 337.735 507.326 337.703C507.276 337.671 507.234 337.63 507.201 337.582C507.169 337.534 507.147 337.48 507.136 337.424C507.125 337.367 507.127 337.309 507.14 337.253Z" fill="#F0F0F0"/>
<path d="M77.1881 242.588L77.1431 227.005L68.7656 222.386L68.8107 237.597V237.947L77.1881 242.588Z" fill="#FF725E"/>
<path d="M77.6938 423.019L77.1645 242.588L68.7871 237.947L69.3051 418.039C69.2515 418.622 69.3528 419.207 69.5992 419.741C69.8456 420.274 70.2289 420.737 70.7126 421.086L78.9774 425.978C78.5268 425.627 78.1735 425.173 77.9494 424.656C77.7253 424.139 77.6374 423.577 77.6938 423.019Z" fill="#FF725E"/>
<path opacity="0.2" d="M77.6938 423.019L77.1645 242.588L68.7871 237.947L69.3051 418.039C69.2515 418.622 69.3528 419.207 69.5992 419.741C69.8456 420.274 70.2289 420.737 70.7126 421.086L78.9774 425.978C78.5268 425.627 78.1735 425.173 77.9494 424.656C77.7253 424.139 77.6374 423.577 77.6938 423.019Z" fill="white"/>
<path d="M77.1764 226.972V218.007C77.2598 216.34 77.7479 214.715 78.601 213.265C79.4541 211.816 80.6481 210.582 82.0857 209.664L362.46 52.689C362.957 52.3443 363.537 52.13 364.145 52.0668C364.753 52.0037 365.367 52.0939 365.928 52.3286L357.652 47.4037C357.086 47.127 356.452 47.0072 355.82 47.0573C355.188 47.1073 354.583 47.3255 354.071 47.6876L73.697 204.663C72.2542 205.573 71.0541 206.801 70.1949 208.247C69.3357 209.694 68.8419 211.317 68.7539 212.984V221.96V222.309L77.1313 226.939L77.1764 226.972Z" fill="#FF725E"/>
<path opacity="0.3" d="M77.1764 226.972V218.007C77.2598 216.34 77.7479 214.715 78.601 213.265C79.4541 211.816 80.6481 210.582 82.0857 209.664L362.46 52.689C362.957 52.3443 363.537 52.13 364.145 52.0668C364.753 52.0037 365.367 52.0939 365.928 52.3286L357.652 47.4037C357.086 47.127 356.452 47.0072 355.82 47.0573C355.188 47.1073 354.583 47.3255 354.071 47.6876L73.697 204.663C72.2542 205.573 71.0541 206.801 70.1949 208.247C69.3357 209.694 68.8419 211.317 68.7539 212.984V221.96V222.309L77.1313 226.939L77.1764 226.972Z" fill="white"/>
<path opacity="0.2" d="M77.1881 242.588L77.1431 227.005L68.7656 222.386L68.8107 237.597V237.947L77.1881 242.588Z" fill="black"/>
<path opacity="0.2" d="M77.1881 242.588L77.1431 227.005L68.7656 222.386L68.8107 237.597V237.947L77.1881 242.588Z" fill="white"/>
<path d="M362.448 52.7109C365.184 51.1821 367.414 52.416 367.425 55.4736V64.4499L77.1758 226.972V218.007C77.2592 216.34 77.7473 214.715 78.6004 213.265C79.4535 211.816 80.6475 210.582 82.0851 209.664L362.448 52.7109Z" fill="#FF725E"/>
<path d="M343.656 67.562C345.12 66.7321 346.313 67.3982 346.313 69.0253C346.266 69.9164 346.002 70.7839 345.542 71.5566C345.082 72.3293 344.44 72.985 343.667 73.4697C342.203 74.2996 341.01 73.6335 341.01 72.0064C341.054 71.1148 341.317 70.2462 341.777 69.4731C342.237 68.7 342.882 68.0448 343.656 67.562Z" fill="white"/>
<path d="M351.752 63.0193C353.215 62.2003 354.409 62.8664 354.409 64.4935C354.365 65.3852 354.102 66.2538 353.642 67.0269C353.181 67.8 352.537 68.4552 351.763 68.938C350.299 69.757 349.105 69.1018 349.105 67.4638C349.155 66.5733 349.42 65.7067 349.88 64.9344C350.34 64.1622 350.981 63.506 351.752 63.0193Z" fill="white"/>
<path d="M359.836 58.4984C361.311 57.6685 362.493 58.3346 362.504 59.9617C362.458 60.8559 362.194 61.7269 361.735 62.5032C361.275 63.2795 360.632 63.9391 359.858 64.428C358.394 65.2579 357.201 64.5918 357.189 62.9647C357.235 62.0704 357.499 61.1995 357.959 60.4232C358.419 59.6468 359.062 58.9872 359.836 58.4984Z" fill="white"/>
<path d="M135.548 185.389C136.674 184.777 137.654 184.886 138.172 185.673L140.807 189.604C141.336 190.39 142.338 190.499 143.43 189.888L367.414 64.428V80.0327L77.1875 242.61V227.005L85.7901 222.189C87.004 221.422 87.9255 220.291 88.4137 218.968L91.0035 212.11C91.4835 210.789 92.4024 209.66 93.6158 208.9L135.548 185.389Z" fill="#E0E0E0"/>
<path d="M367.459 80.0544L367.988 260.497C367.898 262.16 367.403 263.779 366.544 265.221C365.684 266.664 364.486 267.889 363.045 268.796L82.6936 425.771C79.9462 427.31 77.728 426.077 77.7167 423.019L77.1875 242.588L367.459 80.0544Z" fill="#FF725E"/>
<g opacity="0.4">
<path d="M367.459 80.0544L367.988 260.497C367.898 262.16 367.403 263.779 366.544 265.221C365.684 266.664 364.486 267.889 363.045 268.796L82.6936 425.771C79.9462 427.31 77.728 426.077 77.7167 423.019L77.1875 242.588L367.459 80.0544Z" fill="white"/>
</g>
<path d="M355.985 74.0594C357.933 72.9674 359.509 73.841 359.52 76.0141C359.451 77.1936 359.098 78.3408 358.487 79.3633C357.877 80.3857 357.027 81.2546 356.007 81.8999L110.348 219.492C108.4 220.584 106.812 219.699 106.801 217.526C106.869 216.344 107.224 215.194 107.836 214.169C108.448 213.145 109.301 212.275 110.325 211.63L355.985 74.0594Z" fill="white"/>
<path d="M81.8271 228.392C81.8827 228.358 81.9471 228.34 82.0129 228.34C82.0786 228.34 82.143 228.358 82.1986 228.392C82.3788 228.512 82.3675 228.872 82.1986 229.189L80.656 231.646L84.6871 229.32C84.7346 229.281 84.7932 229.258 84.855 229.252C84.9167 229.247 84.9787 229.26 85.0326 229.29C85.0865 229.319 85.1298 229.364 85.1566 229.418C85.1834 229.473 85.1924 229.534 85.1826 229.593C85.1777 229.762 85.1299 229.927 85.0435 230.074C84.9571 230.22 84.8347 230.344 84.6871 230.434L80.6222 232.705L82.1761 233.426C82.3788 233.524 82.4013 233.863 82.1761 234.179C82.0908 234.337 81.9672 234.472 81.8158 234.572C81.7615 234.598 81.7018 234.612 81.6413 234.612C81.5807 234.612 81.521 234.598 81.4667 234.572L78.9783 233.415L78.877 233.317V233.12V232.88L78.967 232.683L81.4555 228.73C81.5436 228.585 81.6725 228.468 81.8271 228.392Z" fill="#E0E0E0"/>
<path d="M90.6312 223.467C90.6835 223.441 90.7414 223.427 90.8001 223.427C90.8588 223.427 90.9167 223.441 90.969 223.467L93.4575 224.57L93.5476 224.679V224.876V225.116V225.17L93.4687 225.367L90.9915 229.32C90.9089 229.455 90.7928 229.567 90.6537 229.648C90.6003 229.682 90.5376 229.7 90.4736 229.7C90.4095 229.7 90.3469 229.682 90.2934 229.648C90.102 229.538 90.1133 229.178 90.2934 228.85L91.836 226.404L87.8275 228.719C87.5572 228.861 87.332 228.719 87.332 228.435C87.3428 228.271 87.3919 228.11 87.4758 227.967C87.5596 227.823 87.676 227.699 87.8162 227.606L91.8923 225.334L90.3385 224.613C90.1245 224.515 90.1245 224.177 90.3385 223.838C90.403 223.693 90.5036 223.565 90.6312 223.467Z" fill="#E0E0E0"/>
<path d="M98.9868 218.782C99.486 218.468 100.093 218.358 100.676 218.476L101.047 217.996C101.12 217.899 101.212 217.818 101.318 217.756C101.406 217.73 101.5 217.73 101.588 217.756C101.757 217.756 101.836 217.952 101.813 218.192L101.599 219.678C101.571 219.856 101.497 220.025 101.385 220.169C101.313 220.266 101.221 220.347 101.115 220.409L100.991 220.464L99.7862 220.791C99.7445 220.805 99.7 220.809 99.6564 220.803C99.6128 220.797 99.5712 220.781 99.5351 220.757C99.4989 220.732 99.4692 220.7 99.4483 220.662C99.4274 220.625 99.4158 220.583 99.4146 220.54C99.397 220.298 99.4779 220.059 99.6398 219.874L99.7524 219.721C99.4859 219.731 99.2262 219.806 98.998 219.94C98.4786 220.267 98.046 220.709 97.735 221.229C97.424 221.748 97.2434 222.332 97.2077 222.932C97.2077 224.024 98.0184 224.482 99.0093 223.925C99.735 223.479 100.286 222.81 100.574 222.025C100.655 221.808 100.805 221.62 101.002 221.49C101.074 221.45 101.156 221.427 101.239 221.425C101.486 221.425 101.577 221.731 101.441 222.069C100.971 223.258 100.118 224.269 99.0093 224.952C97.4779 225.804 96.2281 225.116 96.2168 223.401C96.2744 222.475 96.555 221.575 97.036 220.773C97.517 219.971 98.1851 219.289 98.9868 218.782Z" fill="#E0E0E0"/>
<g opacity="0.3">
<path d="M81.8271 228.392C81.8827 228.358 81.9471 228.34 82.0129 228.34C82.0786 228.34 82.143 228.358 82.1986 228.392C82.3788 228.512 82.3675 228.872 82.1986 229.189L80.656 231.646L84.6871 229.32C84.7346 229.281 84.7932 229.258 84.855 229.252C84.9167 229.247 84.9787 229.26 85.0326 229.29C85.0865 229.319 85.1298 229.364 85.1566 229.418C85.1834 229.473 85.1924 229.534 85.1826 229.593C85.1777 229.762 85.1299 229.927 85.0435 230.074C84.9571 230.22 84.8347 230.344 84.6871 230.434L80.6222 232.705L82.1761 233.426C82.3788 233.524 82.4013 233.863 82.1761 234.179C82.0908 234.337 81.9672 234.472 81.8158 234.572C81.7615 234.598 81.7018 234.612 81.6413 234.612C81.5807 234.612 81.521 234.598 81.4667 234.572L78.9783 233.415L78.877 233.317V233.12V232.88L78.967 232.683L81.4555 228.73C81.5436 228.585 81.6725 228.468 81.8271 228.392Z" fill="black"/>
</g>
<g opacity="0.3">
<path d="M90.6312 223.467C90.6835 223.441 90.7414 223.427 90.8001 223.427C90.8588 223.427 90.9167 223.441 90.969 223.467L93.4575 224.57L93.5476 224.679V224.876V225.116V225.17L93.4687 225.367L90.9915 229.32C90.9089 229.455 90.7928 229.567 90.6537 229.648C90.6003 229.682 90.5376 229.7 90.4736 229.7C90.4095 229.7 90.3469 229.682 90.2934 229.648C90.102 229.538 90.1133 229.178 90.2934 228.85L91.836 226.404L87.8275 228.719C87.5572 228.861 87.332 228.719 87.332 228.435C87.3428 228.271 87.3919 228.11 87.4758 227.967C87.5596 227.823 87.676 227.699 87.8162 227.606L91.8923 225.334L90.3385 224.613C90.1245 224.515 90.1245 224.177 90.3385 223.838C90.403 223.693 90.5036 223.565 90.6312 223.467Z" fill="black"/>
</g>
<g opacity="0.3">
<path d="M98.9868 218.782C99.486 218.468 100.093 218.358 100.676 218.476L101.047 217.996C101.12 217.899 101.212 217.818 101.318 217.756C101.406 217.73 101.5 217.73 101.588 217.756C101.757 217.756 101.836 217.952 101.813 218.192L101.599 219.678C101.571 219.856 101.497 220.025 101.385 220.169C101.313 220.266 101.221 220.347 101.115 220.409L100.991 220.464L99.7862 220.791C99.7445 220.805 99.7 220.809 99.6564 220.803C99.6128 220.797 99.5712 220.781 99.5351 220.757C99.4989 220.732 99.4692 220.7 99.4483 220.662C99.4274 220.625 99.4158 220.583 99.4146 220.54C99.397 220.298 99.4779 220.059 99.6398 219.874L99.7524 219.721C99.4859 219.731 99.2262 219.806 98.998 219.94C98.4786 220.267 98.046 220.709 97.735 221.229C97.424 221.748 97.2434 222.332 97.2077 222.932C97.2077 224.024 98.0184 224.482 99.0093 223.925C99.735 223.479 100.286 222.81 100.574 222.025C100.655 221.808 100.805 221.62 101.002 221.49C101.074 221.45 101.156 221.427 101.239 221.425C101.486 221.425 101.577 221.731 101.441 222.069C100.971 223.258 100.118 224.269 99.0093 224.952C97.4779 225.804 96.2281 225.116 96.2168 223.401C96.2744 222.475 96.555 221.575 97.036 220.773C97.517 219.971 98.1851 219.289 98.9868 218.782Z" fill="black"/>
</g>
<g opacity="0.6">
<path d="M354.578 132.809L354.837 197.685C354.843 200.622 354.052 203.509 352.544 206.056C351.036 208.603 348.864 210.721 346.246 212.197L201.318 293.748C200.446 294.239 199.457 294.498 198.449 294.5C197.44 294.503 196.45 294.247 195.575 293.76C194.701 293.273 193.975 292.572 193.469 291.726C192.963 290.881 192.695 289.921 192.693 288.943L192.445 224.067C192.435 221.131 193.223 218.243 194.729 215.696C196.235 213.148 198.407 211.03 201.026 209.555L345.953 128.026C346.823 127.536 347.811 127.277 348.817 127.274C349.823 127.27 350.813 127.524 351.686 128.008C352.56 128.492 353.287 129.191 353.794 130.034C354.302 130.876 354.572 131.833 354.578 132.809Z" fill="white"/>
</g>
<path d="M295.812 172.088L266.727 225.662L258.496 240.841L264.16 223.751L248.126 211.673L230.268 246.082L230.335 267.103L324.052 214.622L323.985 193.601L295.812 172.088Z" fill="#FF725E"/>
<path d="M265.084 200.491C267.401 199.025 269.33 197.05 270.713 194.726C272.097 192.402 272.895 189.794 273.044 187.114C273.044 182.2 269.441 180.213 265.027 182.681C262.707 184.145 260.777 186.119 259.394 188.444C258.01 190.769 257.213 193.377 257.066 196.058C257.078 200.928 260.67 202.959 265.084 200.491Z" fill="#FF725E"/>
<g opacity="0.3">
<path d="M295.812 172.088L266.727 225.662L258.496 240.841L264.16 223.751L248.126 211.673L230.268 246.082L230.335 267.103L324.052 214.622L323.985 193.601L295.812 172.088Z" fill="white"/>
<path d="M265.084 200.491C267.401 199.025 269.33 197.05 270.713 194.726C272.097 192.402 272.895 189.794 273.044 187.114C273.044 182.2 269.441 180.213 265.027 182.681C262.707 184.145 260.777 186.119 259.394 188.444C258.01 190.769 257.213 193.377 257.066 196.058C257.078 200.928 260.67 202.959 265.084 200.491Z" fill="white"/>
</g>
<g opacity="0.6">
<path d="M269.115 268.206L269.227 307.387C269.228 308.713 268.869 310.016 268.187 311.166C267.506 312.316 266.525 313.272 265.343 313.939L196.454 352.716C196.059 352.936 195.611 353.051 195.155 353.051C194.699 353.05 194.252 352.933 193.857 352.712C193.463 352.491 193.135 352.173 192.907 351.791C192.679 351.408 192.559 350.974 192.558 350.532L192.445 311.34C192.439 310.013 192.796 308.707 193.478 307.557C194.16 306.406 195.144 305.451 196.33 304.788L265.196 266.033C265.591 265.808 266.04 265.688 266.498 265.686C266.957 265.683 267.407 265.798 267.805 266.018C268.202 266.239 268.533 266.557 268.763 266.941C268.993 267.326 269.114 267.762 269.115 268.206Z" fill="white"/>
</g>
<path d="M223.996 301.032L245.334 302.812L224.075 328.43L223.996 301.032Z" fill="#FF725E"/>
<g opacity="0.3">
<path d="M223.996 301.032L245.334 302.812L224.075 328.43L223.996 301.032Z" fill="white"/>
</g>
<g opacity="0.6">
<path d="M353.79 220.584L353.902 259.765C353.906 261.092 353.549 262.396 352.867 263.547C352.185 264.697 351.202 265.653 350.017 266.317L281.5 304.395C281.105 304.618 280.656 304.735 280.198 304.736C279.741 304.737 279.292 304.621 278.895 304.399C278.499 304.178 278.17 303.859 277.941 303.474C277.713 303.09 277.593 302.655 277.593 302.211L277.48 263.03C277.48 261.704 277.839 260.401 278.521 259.251C279.202 258.101 280.183 257.145 281.365 256.478L349.882 218.4C350.278 218.177 350.727 218.06 351.184 218.059C351.642 218.058 352.091 218.174 352.487 218.396C352.884 218.617 353.213 218.936 353.441 219.32C353.67 219.705 353.79 220.14 353.79 220.584Z" fill="white"/>
</g>
<path d="M307.973 251.99L329.299 253.77L308.051 279.388L307.973 251.99Z" fill="#FF725E"/>
<g opacity="0.3">
<path d="M307.973 251.99L329.299 253.77L308.051 279.388L307.973 251.99Z" fill="white"/>
</g>
<g opacity="0.7">
<path d="M153.621 217.69L153.644 227.573L95.3506 260.213L95.3281 250.341L153.621 217.69Z" fill="white"/>
<path d="M130.223 246.082L130.245 250.996L95.3843 270.521L95.373 265.607L130.223 246.082Z" fill="white"/>
<path d="M224.582 178.007L224.604 183.773L207.726 193.218L207.703 187.464L224.582 178.007Z" fill="white"/>
<path d="M256.955 159.88L256.966 165.645L234.468 178.247L234.457 172.481L256.955 159.88Z" fill="white"/>
<path d="M322.025 123.451L322.036 129.216L305.158 138.662L305.146 132.907L322.025 123.451Z" fill="white"/>
<path d="M354.397 105.323L354.409 111.089L331.911 123.691L331.889 117.925L354.397 105.323Z" fill="white"/>
<path d="M293.56 139.383L293.571 145.149L266.716 160.196L266.693 154.431L293.56 139.383Z" fill="white"/>
</g>
<g opacity="0.7">
<path d="M154.07 273.208L154.082 277.565L95.4507 310.39L95.4395 306.033L154.07 273.208Z" fill="white"/>
<path d="M118.478 300.704L118.501 305.05L95.4742 317.947L95.4629 313.59L118.478 300.704Z" fill="white"/>
<path d="M154.139 298.739L154.15 303.096L95.5308 335.921L95.5195 331.564L154.139 298.739Z" fill="white"/>
<path d="M154.116 291.182L154.127 295.528L95.5074 328.354L95.4961 324.007L154.116 291.182Z" fill="white"/>
<path d="M154.049 265.651L154.06 269.997L95.4292 302.823L95.418 298.476L154.049 265.651Z" fill="white"/>
<path d="M141.506 313.382L141.517 317.728L95.5538 343.467L95.5312 339.121L141.506 313.382Z" fill="white"/>
</g>
<g opacity="0.7">
<path d="M152.348 340.704C157.392 337.876 161.502 340.147 161.525 345.771C161.547 351.395 157.46 358.252 152.404 361.059L103.333 388.544C98.2774 391.373 94.1675 389.112 94.1563 383.478C94.145 377.843 98.2211 370.996 103.266 368.19L152.348 340.704Z" fill="#FF725E"/>
</g>
<path d="M120.719 364.75L120.764 372.372L118.658 373.54L118.624 370.079L117.149 373.704L116.136 374.272L114.638 372.437L114.65 375.79L112.544 376.969L112.521 369.336L114.413 368.277L116.665 371.094L118.827 365.809L120.719 364.75Z" fill="white"/>
<path d="M125.448 361.932C127.7 360.688 129.31 361.452 129.322 363.756C129.251 365.011 128.863 366.229 128.191 367.303C127.519 368.377 126.585 369.274 125.471 369.915C123.219 371.16 121.597 370.395 121.586 368.091C121.658 366.836 122.048 365.617 122.721 364.543C123.395 363.468 124.332 362.572 125.448 361.932ZM125.448 367.829C125.921 367.53 126.309 367.12 126.577 366.637C126.844 366.155 126.983 365.614 126.979 365.067C126.979 363.876 126.293 363.538 125.437 363.975C124.966 364.275 124.58 364.686 124.314 365.168C124.049 365.651 123.912 366.19 123.917 366.737C123.917 367.928 124.604 368.255 125.448 367.829Z" fill="white"/>
<path d="M135.29 361.878L136.742 363.418L134.276 364.804L133.15 363.538L132.52 363.887V365.82L130.268 367.108V359.464L133.567 357.608C135.47 356.516 136.686 356.975 136.697 358.7C136.648 359.891 136.146 361.023 135.29 361.878ZM133.308 361.474C133.583 361.346 133.816 361.147 133.981 360.898C134.146 360.649 134.237 360.361 134.242 360.065C134.242 359.508 133.938 359.333 133.308 359.694L132.463 360.163V361.943L133.297 361.474" fill="white"/>
<path d="M143.002 352.268L143.013 354.223L139.714 356.058V356.953L142.608 355.337L142.619 357.182L139.725 358.798V359.814L143.148 357.892V359.836L137.462 363.014L137.439 355.391L143.002 352.268Z" fill="white"/>
<path d="M285.17 466.197L285.159 470.969L251.672 452.219L251.683 447.447L285.17 466.197Z" fill="#FF725E"/>
<path d="M285.193 458.989L285.17 463.772L271.557 456.15L271.568 451.356L285.193 458.989Z" fill="#FF725E"/>
<path d="M229.67 442.325L229.658 447.108L205.551 433.611L205.562 428.828L229.67 442.325Z" fill="#FF725E"/>
<path d="M244.228 443.276L244.217 448.048L205.572 426.415L205.584 421.632L244.228 443.276Z" fill="#FF725E"/>
<path d="M265.081 447.731L265.07 452.514L226.82 431.1L223.093 429.014L205.336 419.077L205.347 414.283L223.115 424.231L226.843 426.317L265.081 447.731Z" fill="#FF725E"/>
<path d="M253.935 424.46L253.923 429.232L205.641 402.205L205.663 397.433L253.935 424.46Z" fill="#FF725E"/>
<path d="M251.164 415.692L251.141 420.464L241.717 415.178L241.728 410.406L251.164 415.692Z" fill="#FF725E"/>
<path d="M248.418 452.83L248.406 457.602L234.793 449.98L234.804 445.208L248.418 452.83Z" fill="#FF725E"/>
<path d="M285.259 434.78L285.248 439.552L258.404 424.526L258.416 419.743L285.259 434.78Z" fill="#FF725E"/>
<path d="M285.283 427.583L285.272 432.356L266.501 421.85L262.358 419.535L237.484 405.602L237.496 400.829L262.369 414.752L266.513 417.078L285.283 427.583Z" fill="#FF725E"/>
<path d="M265.217 401.921L265.194 406.693L233.959 389.2L233.97 384.428L265.217 401.921Z" fill="#FF725E"/>
<path d="M233.904 406.027L233.893 410.799L205.664 394.998L205.675 390.226L233.904 406.027Z" fill="#FF725E"/>
<path d="M229.806 396.527L229.795 401.299L205.688 387.802L205.699 383.03L229.806 396.527Z" fill="#FF725E"/>
<path d="M226.968 380.507L226.957 385.279L205.473 373.256L205.484 368.474L226.968 380.507Z" fill="#FF725E"/>
<path d="M244.365 397.466L244.353 402.238L205.709 380.606L205.72 375.834L244.365 397.466Z" fill="#FF725E"/>
<path d="M237.259 379.055L237.247 383.838L205.494 366.06L205.505 361.277L237.259 379.055Z" fill="#FF725E"/>
<path d="M285.305 420.387L285.294 425.17L251.807 406.42L251.818 401.637L285.305 420.387Z" fill="#FF725E"/>
<path d="M285.327 413.18L285.305 417.952L271.691 410.33L271.703 405.558L285.327 413.18Z" fill="#FF725E"/>
<g opacity="0.6">
<path d="M285.168 466.197L285.157 470.969L251.67 452.219L251.681 447.447L285.168 466.197Z" fill="white"/>
<path d="M285.193 458.989L285.17 463.772L271.557 456.15L271.568 451.356L285.193 458.989Z" fill="white"/>
<path d="M229.67 442.325L229.658 447.108L205.551 433.611L205.562 428.828L229.67 442.325Z" fill="white"/>
<path d="M244.228 443.276L244.217 448.048L205.572 426.415L205.584 421.632L244.228 443.276Z" fill="white"/>
<path d="M265.081 447.731L265.07 452.514L226.82 431.1L223.093 429.014L205.336 419.077L205.347 414.283L223.115 424.231L226.843 426.317L265.081 447.731Z" fill="white"/>
<path d="M253.935 424.46L253.923 429.232L205.641 402.205L205.663 397.433L253.935 424.46Z" fill="white"/>
<path d="M251.164 415.692L251.141 420.464L241.717 415.178L241.728 410.406L251.164 415.692Z" fill="white"/>
<path d="M248.418 452.83L248.406 457.602L234.793 449.98L234.804 445.208L248.418 452.83Z" fill="white"/>
<path d="M285.259 434.78L285.248 439.552L258.404 424.526L258.416 419.743L285.259 434.78Z" fill="white"/>
<path d="M285.281 427.583L285.27 432.356L266.499 421.85L262.356 419.535L237.482 405.602L237.494 400.829L262.367 414.752L266.511 417.078L285.281 427.583Z" fill="white"/>
<path d="M265.217 401.921L265.194 406.693L233.959 389.2L233.97 384.428L265.217 401.921Z" fill="white"/>
<path d="M233.902 406.027L233.891 410.799L205.662 394.998L205.673 390.226L233.902 406.027Z" fill="white"/>
<path d="M229.804 396.527L229.793 401.299L205.686 387.802L205.697 383.03L229.804 396.527Z" fill="white"/>
<path d="M226.966 380.507L226.955 385.279L205.471 373.256L205.482 368.474L226.966 380.507Z" fill="white"/>
<path d="M244.363 397.466L244.351 402.238L205.707 380.606L205.718 375.834L244.363 397.466Z" fill="white"/>
<path d="M237.257 379.055L237.245 383.838L205.492 366.06L205.503 361.277L237.257 379.055Z" fill="white"/>
<path d="M285.305 420.387L285.294 425.17L251.807 406.421L251.818 401.638L285.305 420.387Z" fill="white"/>
<path d="M285.327 413.18L285.305 417.952L271.691 410.33L271.703 405.558L285.327 413.18Z" fill="white"/>
</g>
<path d="M189.167 373.202L177.75 366.65C177.664 366.6 177.593 366.53 177.543 366.446C177.494 366.362 177.468 366.266 177.468 366.169V297.155L162.74 288.889L163.314 287.928L178.324 296.358C178.412 296.406 178.486 296.476 178.537 296.56C178.588 296.644 178.616 296.74 178.617 296.838V365.885L189.753 372.241L189.167 373.202Z" fill="#FF725E"/>
<path d="M192.456 369.86C193.639 370.611 194.624 371.62 195.33 372.808C196.036 373.995 196.444 375.327 196.521 376.696C196.521 379.208 194.686 380.223 192.422 378.957C191.239 378.206 190.255 377.197 189.549 376.009C188.842 374.822 188.434 373.49 188.357 372.121C188.369 369.609 190.204 368.594 192.456 369.86Z" fill="#FF725E"/>
<path d="M165.15 285.012C166.335 285.761 167.322 286.77 168.03 287.958C168.738 289.145 169.148 290.478 169.226 291.848C169.226 294.359 167.379 295.375 165.127 294.108C163.942 293.359 162.956 292.35 162.247 291.162C161.539 289.975 161.129 288.642 161.051 287.272C161.017 284.772 162.898 283.756 165.15 285.012Z" fill="#FF725E"/>
<g opacity="0.2">
<path d="M189.167 373.202L177.75 366.65C177.664 366.6 177.593 366.53 177.543 366.446C177.494 366.362 177.468 366.266 177.468 366.169V297.155L162.74 288.889L163.314 287.928L178.324 296.358C178.412 296.406 178.486 296.476 178.537 296.56C178.588 296.644 178.616 296.74 178.617 296.838V365.885L189.753 372.241L189.167 373.202Z" fill="white"/>
<path d="M192.456 369.86C193.639 370.611 194.624 371.62 195.33 372.808C196.036 373.995 196.444 375.327 196.521 376.696C196.521 379.208 194.686 380.223 192.422 378.957C191.239 378.206 190.255 377.197 189.549 376.009C188.842 374.822 188.434 373.49 188.357 372.121C188.369 369.609 190.204 368.594 192.456 369.86Z" fill="white"/>
<path d="M165.15 285.012C166.335 285.761 167.322 286.77 168.03 287.958C168.738 289.145 169.148 290.478 169.226 291.848C169.226 294.359 167.379 295.375 165.127 294.108C163.942 293.359 162.956 292.35 162.247 291.162C161.539 289.975 161.129 288.642 161.051 287.272C161.017 284.772 162.898 283.756 165.15 285.012Z" fill="white"/>
</g>
<path d="M484.315 143.707L484.292 148.49L450.816 129.74L450.828 124.958L484.315 143.707Z" fill="#FF725E"/>
<path d="M484.326 136.5L484.315 141.294L470.701 133.661L470.712 128.878L484.326 136.5Z" fill="#FF725E"/>
<path d="M428.814 119.847L428.803 124.619L404.695 111.122L404.707 106.35L428.814 119.847Z" fill="#FF725E"/>
<path d="M443.372 120.786L443.361 125.569L404.717 103.926L404.728 99.1536L443.372 120.786Z" fill="#FF725E"/>
<path d="M464.215 125.241L464.204 130.035L425.965 108.621L422.237 106.535L404.48 96.5873L404.492 91.7935L422.249 101.742L425.976 103.827L464.215 125.241Z" fill="#FF725E"/>
<path d="M447.562 130.341L447.54 135.113L433.938 127.502L433.949 122.719L447.562 130.341Z" fill="#FF725E"/>
<g opacity="0.6">
<path d="M484.313 143.707L484.29 148.49L450.814 129.74L450.826 124.958L484.313 143.707Z" fill="white"/>
<path d="M484.326 136.5L484.315 141.294L470.701 133.661L470.712 128.878L484.326 136.5Z" fill="white"/>
<path d="M428.814 119.847L428.803 124.619L404.695 111.122L404.707 106.35L428.814 119.847Z" fill="white"/>
<path d="M443.372 120.786L443.361 125.569L404.717 103.926L404.728 99.1536L443.372 120.786Z" fill="white"/>
<path d="M464.215 125.241L464.204 130.035L425.965 108.621L422.237 106.535L404.48 96.5873L404.492 91.7935L422.249 101.742L425.976 103.827L464.215 125.241Z" fill="white"/>
<path d="M447.562 130.341L447.54 135.113L433.938 127.502L433.949 122.719L447.562 130.341Z" fill="white"/>
</g>
<path d="M484.326 162.326L484.315 167.109L470.701 159.487L470.712 154.704L484.326 162.326Z" fill="#FF725E"/>
<path d="M443.372 146.612L443.361 151.384L404.717 129.751L404.728 124.979L443.372 146.612Z" fill="#FF725E"/>
<path d="M464.215 151.067L464.204 155.85L425.965 134.447L422.237 132.35L404.48 122.413L404.492 117.619L422.249 127.567L425.976 129.653L464.215 151.067Z" fill="#FF725E"/>
<g opacity="0.6">
<path d="M484.326 162.326L484.315 167.109L470.701 159.487L470.712 154.704L484.326 162.326Z" fill="white"/>
<path d="M443.372 146.612L443.361 151.384L404.717 129.751L404.728 124.979L443.372 146.612Z" fill="white"/>
<path d="M464.215 151.067L464.204 155.85L425.965 134.447L422.237 132.35L404.48 122.413L404.492 117.619L422.249 127.567L425.976 129.653L464.215 151.067Z" fill="white"/>
</g>
<path d="M424.817 147.42C422.565 146.153 420.729 147.169 420.729 149.68C420.765 150.899 421.097 152.093 421.698 153.164L364.272 185.4L346.165 175.157C346.078 173.799 345.665 172.48 344.959 171.305C344.254 170.129 343.275 169.13 342.101 168.386C339.849 167.12 338.013 168.135 338.002 170.647C338.079 172.016 338.487 173.348 339.193 174.535C339.899 175.723 340.884 176.732 342.067 177.483C343.947 178.575 345.512 177.996 345.997 176.391L364.272 186.732L422.249 154.07C422.888 155.045 423.747 155.866 424.76 156.473C427.012 157.739 428.848 156.724 428.859 154.212C428.778 152.853 428.37 151.531 427.668 150.351C426.966 149.172 425.99 148.168 424.817 147.42Z" fill="#FF725E"/>
<path opacity="0.2" d="M424.817 147.42C422.565 146.153 420.729 147.169 420.729 149.68C420.765 150.899 421.097 152.093 421.698 153.164L364.272 185.4L346.165 175.157C346.078 173.799 345.665 172.48 344.959 171.305C344.254 170.129 343.275 169.13 342.101 168.386C339.849 167.12 338.013 168.135 338.002 170.647C338.079 172.016 338.487 173.348 339.193 174.535C339.899 175.723 340.884 176.732 342.067 177.483C343.947 178.575 345.512 177.996 345.997 176.391L364.272 186.732L422.249 154.07C422.888 155.045 423.747 155.866 424.76 156.473C427.012 157.739 428.848 156.724 428.859 154.212C428.778 152.853 428.37 151.531 427.668 150.351C426.966 149.172 425.99 148.168 424.817 147.42Z" fill="white"/>
<path d="M358.913 317.029C349.319 323.494 338.509 327.949 330.504 336.631C315.528 352.803 315.179 378.848 326.934 397.346C338.69 415.845 360.556 426.972 382.84 429.527C406.193 432.192 430.695 425.935 449.026 411.64C467.358 397.346 479 375.004 478.989 352.203C478.978 329.402 466.941 306.688 447.247 294.229C429.231 282.861 403.446 279.618 385.419 292.623C376.298 299.175 370.229 308.905 361.131 315.501C360.388 316.025 359.656 316.527 358.913 317.029Z" fill="#37474F"/>
<path opacity="0.2" d="M358.913 317.029C349.319 323.494 338.509 327.949 330.504 336.631C315.528 352.803 315.179 378.848 326.934 397.346C338.69 415.845 360.556 426.972 382.84 429.527C406.193 432.192 430.695 425.935 449.026 411.64C467.358 397.346 479 375.004 478.989 352.203C478.978 329.402 466.941 306.688 447.247 294.229C429.231 282.861 403.446 279.618 385.419 292.623C376.298 299.175 370.229 308.905 361.131 315.501C360.388 316.025 359.656 316.527 358.913 317.029Z" fill="black"/>
<path opacity="0.1" d="M358.913 317.029C349.319 323.494 338.509 327.949 330.504 336.631C315.528 352.803 315.179 378.848 326.934 397.346C338.69 415.845 360.556 426.972 382.84 429.527C406.193 432.192 430.695 425.935 449.026 411.64C467.358 397.346 479 375.004 478.989 352.203C478.978 329.402 466.941 306.688 447.247 294.229C429.231 282.861 403.446 279.618 385.419 292.623C376.298 299.175 370.229 308.905 361.131 315.501C360.388 316.025 359.656 316.527 358.913 317.029Z" fill="white"/>
<path opacity="0.1" d="M362.82 411.837L362.887 411.378C363.674 406.326 366.071 401.639 369.742 397.973C373.412 394.307 378.173 391.847 383.358 390.936C392.621 389.22 401.497 385.922 409.571 381.195C415.302 377.843 420.707 373.726 427.137 371.903C433.39 370.169 440.067 370.554 446.065 372.995C440.671 367.535 431.427 365.067 424.006 367.535C429.13 359.891 433.634 351.744 435.401 342.823C437.169 333.901 435.919 324.117 430.368 316.8C428.003 313.686 424.956 311.118 421.446 309.281C417.937 307.444 414.051 306.383 410.069 306.174C406.086 305.965 402.105 306.614 398.412 308.073C394.719 309.533 391.404 311.767 388.706 314.616C383.211 320.447 380.115 328.637 376.512 335.714C373.911 340.802 371.242 346 366.963 349.91C360.522 355.752 351.256 357.859 344.578 363.45C337 369.795 333.735 379.929 333.701 389.658C333.827 396.206 334.811 402.712 336.629 409.02C344.461 416.267 353.802 421.804 364.024 425.258C362.536 420.939 362.123 416.34 362.82 411.837Z" fill="black"/>
<g opacity="0.2">
<path d="M466.433 349.069C466.126 333.323 460.076 318.191 449.356 306.361C438.637 294.53 423.943 286.765 407.881 284.444C405.651 284.665 403.439 285.03 401.26 285.536C418.152 286.403 434.078 293.443 445.834 305.238C457.59 317.034 464.302 332.711 464.62 349.112C465.048 370.341 454.351 391.973 435.986 406.988C421.596 418.76 402.476 426.557 381.465 429.364L382.816 429.538C384.696 429.746 386.599 429.899 388.446 429.997C407.104 426.492 424.016 419.022 437.089 408.332C455.927 392.967 466.872 370.821 466.433 349.069Z" fill="white"/>
</g>
<path d="M338.361 404.75C339.036 408.245 339.412 411.787 339.487 415.342L342.077 414.392C343.304 413.943 344.641 413.853 345.92 414.135C347.2 414.416 348.365 415.056 349.272 415.976L349.407 416.107C349.869 416.577 350.5 416.857 351.169 416.887C351.839 416.918 352.494 416.697 352.999 416.27C353.271 416.043 353.49 415.763 353.645 415.45C353.8 415.136 353.887 414.794 353.9 414.447L354.249 403.745L338.361 404.75Z" fill="#FFA8A7"/>
<path d="M348.36 444.444C342.989 450.024 333.092 454.905 325.896 450.144L326.696 451.924C333.891 456.674 343.789 451.804 349.216 446.224C354.643 440.644 351.108 436.778 355.972 431.831C357.802 430.14 359.231 428.083 360.161 425.804C359.947 425.279 359.733 424.58 359.485 423.783C358.439 426.106 356.979 428.231 355.172 430.062C350.252 435.053 353.742 438.918 348.36 444.444Z" fill="#F5F5F5"/>
<path d="M356.761 417.996C355.936 416.853 355.358 415.561 355.061 414.196C355.013 413.878 354.893 413.574 354.71 413.306C354.527 413.038 354.285 412.812 354.002 412.645L353.946 414.447C353.929 414.946 353.759 415.429 353.46 415.835C353.161 416.241 352.744 416.552 352.263 416.729C351.782 416.907 351.257 416.942 350.756 416.831C350.254 416.721 349.797 416.468 349.442 416.107L349.307 415.976C348.4 415.056 347.234 414.416 345.955 414.135C344.675 413.853 343.339 413.943 342.112 414.392L339.477 415.353C339.086 415.497 338.751 415.755 338.517 416.091C338.283 416.428 338.162 416.826 338.171 417.231C338.34 424.548 334.793 434.256 331.122 439.596C327.327 441.124 324.039 446.148 325.717 449.817L325.886 450.188C333.081 454.949 342.979 450.068 348.35 444.488C353.721 438.908 350.241 435.053 355.106 430.106C356.912 428.275 358.372 426.149 359.418 423.827C358.813 421.774 357.919 419.812 356.761 417.996Z" fill="#455A64"/>
<path d="M346.234 428.555C346.451 428.659 346.701 428.675 346.93 428.602C347.16 428.528 347.35 428.371 347.461 428.162C347.573 427.958 347.596 427.719 347.526 427.498C347.457 427.277 347.3 427.092 347.089 426.983C345.512 426.12 343.732 425.666 341.921 425.666C340.11 425.666 338.33 426.12 336.753 426.983C336.595 427.562 336.426 428.13 336.246 428.697C337.756 427.839 339.47 427.375 341.221 427.35C342.971 427.325 344.698 427.741 346.234 428.555Z" fill="white"/>
<path d="M347.562 424.602C347.775 424.685 348.012 424.688 348.228 424.611C348.443 424.533 348.621 424.38 348.726 424.183C348.831 423.985 348.857 423.756 348.798 423.541C348.739 423.326 348.6 423.14 348.407 423.019C346.756 422.146 344.904 421.696 343.024 421.711C341.144 421.726 339.299 422.206 337.665 423.106C337.552 423.707 337.428 424.297 337.293 424.897C340.423 423.292 343.587 422.659 347.562 424.602Z" fill="white"/>
<path d="M344.78 432.498C344.998 432.6 345.249 432.615 345.479 432.539C345.708 432.464 345.898 432.304 346.007 432.094C346.115 431.887 346.135 431.649 346.063 431.428C345.992 431.208 345.834 431.023 345.624 430.914C344.082 430.066 342.343 429.613 340.57 429.595C338.798 429.578 337.05 429.998 335.49 430.816C335.265 431.438 335.017 432.039 334.77 432.64C336.283 431.777 338.001 431.311 339.755 431.286C341.51 431.261 343.241 431.679 344.78 432.498Z" fill="white"/>
<path d="M331.134 439.595C327.339 441.124 324.051 446.148 325.729 449.817L325.898 450.188C332.98 454.873 342.686 450.188 348.114 444.728C343.587 436.134 334.129 438.274 331.134 439.595Z" fill="white"/>
<path d="M343.192 436.341C343.406 436.424 343.643 436.427 343.858 436.35C344.073 436.272 344.251 436.119 344.356 435.922C344.462 435.724 344.488 435.495 344.429 435.28C344.37 435.065 344.23 434.879 344.037 434.758C342.494 433.912 340.754 433.46 338.982 433.445C337.209 433.429 335.461 433.851 333.903 434.671C333.576 435.348 333.25 436.003 332.912 436.636C336.054 435.031 339.218 434.387 343.192 436.341Z" fill="white"/>
<path d="M327.058 426.011C326.22 429.477 325.09 432.87 323.68 436.156L326.438 436.309C327.748 436.385 329.007 436.829 330.061 437.587C331.114 438.345 331.918 439.385 332.372 440.578V440.742C332.603 441.354 333.066 441.857 333.667 442.148C334.268 442.438 334.962 442.494 335.604 442.304C335.945 442.198 336.26 442.026 336.531 441.799C336.802 441.572 337.023 441.294 337.18 440.982L341.943 431.329L327.058 426.011Z" fill="#FFA8A7"/>
<path d="M319.671 466.284C312.431 469.287 301.34 469.877 296.746 462.702V464.646C301.34 471.81 312.431 471.198 319.671 468.228C326.912 465.258 325.301 460.333 331.81 457.701C334.185 456.865 336.347 455.543 338.149 453.824C338.149 453.246 338.273 452.536 338.374 451.706C336.454 453.426 334.23 454.798 331.81 455.757C325.324 458.389 326.912 463.292 319.671 466.284Z" fill="#F5F5F5"/>
<path d="M338.373 445.34C338.079 443.971 338.079 442.558 338.373 441.19C338.461 440.88 338.478 440.554 338.421 440.237C338.365 439.92 338.237 439.619 338.046 439.355L337.247 440.982C337.089 441.294 336.869 441.572 336.598 441.799C336.327 442.026 336.011 442.198 335.67 442.304C335.028 442.494 334.335 442.438 333.734 442.148C333.132 441.857 332.669 441.354 332.439 440.742V440.578C331.984 439.385 331.181 438.345 330.127 437.587C329.073 436.829 327.815 436.385 326.505 436.309L323.701 436.156C323.283 436.133 322.869 436.236 322.514 436.451C322.159 436.667 321.881 436.983 321.719 437.357C318.825 444.116 311.585 451.629 305.955 455.069C301.845 454.971 296.756 458.28 296.756 462.309V462.702C301.35 469.877 312.441 469.254 319.681 466.284C326.921 463.314 325.311 458.389 331.82 455.757C334.24 454.798 336.463 453.426 338.384 451.706C338.688 449.594 338.684 447.451 338.373 445.34Z" fill="#455A64"/>
<path d="M324.355 450.876C324.51 451.043 324.725 451.146 324.955 451.165C325.186 451.184 325.415 451.118 325.597 450.979C325.779 450.84 325.9 450.639 325.934 450.417C325.969 450.195 325.916 449.969 325.785 449.784C324.7 448.379 323.259 447.27 321.602 446.564C319.945 445.858 318.128 445.579 316.327 445.754C315.944 446.228 315.55 446.686 315.145 447.13C316.883 446.93 318.645 447.17 320.259 447.826C321.873 448.483 323.284 449.533 324.355 450.876Z" fill="white"/>
<path d="M327.214 447.775C327.368 447.956 327.59 448.07 327.83 448.092C328.071 448.115 328.311 448.044 328.498 447.895C328.682 447.747 328.8 447.536 328.827 447.306C328.855 447.076 328.789 446.845 328.644 446.661C327.499 445.214 325.992 444.075 324.266 443.353C322.539 442.63 320.651 442.348 318.78 442.533C318.431 443.035 318.06 443.538 317.654 444.029C321.224 443.789 324.388 444.444 327.214 447.775Z" fill="white"/>
<path d="M321.393 453.912C321.548 454.079 321.762 454.182 321.993 454.201C322.223 454.22 322.453 454.154 322.635 454.015C322.817 453.876 322.937 453.675 322.972 453.453C323.007 453.231 322.954 453.005 322.823 452.82C321.764 451.447 320.364 450.355 318.754 449.647C317.144 448.939 315.375 448.637 313.612 448.768C313.15 449.249 312.678 449.708 312.193 450.155C313.931 449.958 315.691 450.201 317.303 450.859C318.915 451.517 320.324 452.569 321.393 453.912Z" fill="white"/>
<path d="M305.945 455.069C301.836 454.971 296.746 458.28 296.746 462.309V462.702C301.25 469.768 312.093 469.254 319.334 466.415C318.782 456.773 309.233 455.026 305.945 455.069Z" fill="white"/>
<path d="M318.331 456.805C318.488 456.982 318.71 457.093 318.95 457.113C319.19 457.133 319.428 457.062 319.615 456.915C319.801 456.771 319.92 456.561 319.948 456.332C319.975 456.103 319.908 455.873 319.761 455.692C318.702 454.315 317.301 453.222 315.689 452.513C314.076 451.805 312.304 451.504 310.539 451.64C309.965 452.143 309.413 452.612 308.816 453.049C312.352 452.809 315.505 453.464 318.331 456.805Z" fill="white"/>
<path d="M369.597 334.676L333.351 354.256C330.073 356.036 327.451 358.766 325.852 362.064C324.253 365.361 323.757 369.061 324.433 372.645L331.471 409.391L325.705 427.158C330.682 433.633 342.1 433.961 342.1 433.961C348.473 421.567 353.157 416.303 356.738 405.918C360.319 395.533 362.773 388.359 362.773 388.359L392.871 380.387C399.754 378.574 405.919 374.8 410.567 369.554C415.216 364.308 418.136 357.83 418.949 350.958C419.467 346.535 419.49 343.521 419.49 343.521L369.597 334.676Z" fill="#FF725E"/>
<path opacity="0.3" d="M369.597 334.676L333.351 354.256C330.073 356.036 327.451 358.766 325.852 362.064C324.253 365.361 323.757 369.061 324.433 372.645L331.471 409.391L325.705 427.158C330.682 433.633 342.1 433.961 342.1 433.961C348.473 421.567 353.157 416.303 356.738 405.918C360.319 395.533 362.773 388.359 362.773 388.359L392.871 380.387C399.754 378.574 405.919 374.8 410.567 369.554C415.216 364.308 418.136 357.83 418.949 350.958C419.467 346.535 419.49 343.521 419.49 343.521L369.597 334.676Z" fill="black"/>
<path opacity="0.1" d="M369.597 334.676L333.351 354.256C330.073 356.036 327.451 358.766 325.852 362.064C324.253 365.361 323.757 369.061 324.433 372.645L331.471 409.391L325.705 427.158C330.682 433.633 342.1 433.961 342.1 433.961C348.473 421.567 353.157 416.303 356.738 405.918C360.319 395.533 362.773 388.359 362.773 388.359L392.871 380.387C399.754 378.574 405.919 374.8 410.567 369.554C415.216 364.308 418.136 357.83 418.949 350.958C419.467 346.535 419.49 343.521 419.49 343.521L369.597 334.676Z" fill="white"/>
<path opacity="0.2" d="M369.867 344.548C369.87 348.471 371.306 352.267 373.921 355.26L348.349 370.789C344.597 373.064 341.818 376.578 340.524 380.682L331.516 409.391L339.679 377.417C340.62 373.739 343.009 370.564 346.334 368.572L369.98 354.376C367.48 348.566 369.867 344.548 369.867 344.548Z" fill="black"/>
<path d="M345.614 294.316L337.461 301.458C332.248 295.004 325.256 290.647 319.141 281.605C317.385 279.421 317.565 275.129 316.371 272.924C315.426 271.198 313.782 268.556 313.095 267.147C313.035 267.015 312.945 266.898 312.831 266.804C312.718 266.711 312.585 266.643 312.441 266.606C312.297 266.57 312.146 266.565 312 266.592C311.854 266.62 311.717 266.679 311.597 266.765C309.919 268.01 310.832 270.914 311.732 273.961C312.802 277.565 307.228 272.683 306.44 271.853C302.882 268.643 299.831 260.77 297.432 261.556C295.034 262.342 296.925 266.262 296.925 266.262C294.673 266.721 295.54 270.172 295.54 270.172C294.223 272.432 294.595 275.916 297.308 279.159C299.279 281.507 304.605 284.739 307.375 286.322C308.524 286.988 309.508 287.89 310.257 288.965L327.665 314.147C328.457 315.285 329.479 316.256 330.669 317C331.859 317.744 333.192 318.247 334.588 318.476C335.984 318.706 337.414 318.658 338.79 318.337C340.167 318.015 341.461 317.425 342.596 316.604L354.453 307.999L345.614 294.316Z" fill="#FFA8A7"/>
<path opacity="0.3" d="M345.614 294.316L337.461 301.458C332.248 295.004 325.256 290.647 319.141 281.605C317.385 279.421 317.565 275.129 316.371 272.924C315.426 271.198 313.782 268.556 313.095 267.147C313.035 267.015 312.945 266.898 312.831 266.804C312.718 266.711 312.585 266.643 312.441 266.606C312.297 266.57 312.146 266.565 312 266.592C311.854 266.62 311.717 266.679 311.597 266.765C309.919 268.01 310.832 270.914 311.732 273.961C312.802 277.565 307.228 272.683 306.44 271.853C302.882 268.643 299.831 260.77 297.432 261.556C295.034 262.342 296.925 266.262 296.925 266.262C294.673 266.721 295.54 270.172 295.54 270.172C294.223 272.432 294.595 275.916 297.308 279.159C299.279 281.507 304.605 284.739 307.375 286.322C308.524 286.988 309.508 287.89 310.257 288.965L327.665 314.147C328.457 315.285 329.479 316.256 330.669 317C331.859 317.744 333.192 318.247 334.588 318.476C335.984 318.706 337.414 318.658 338.79 318.337C340.167 318.015 341.461 317.425 342.596 316.604L354.453 307.999L345.614 294.316Z" fill="black"/>
<path d="M371.996 274.54C363.145 274.169 351.401 286.901 343.846 294.534C345.305 300.573 348.78 305.974 353.732 309.899C360.076 305.567 366.173 300.905 371.996 295.932V274.54Z" fill="#455A64"/>
<path opacity="0.3" d="M371.996 274.54C363.145 274.169 351.401 286.901 343.846 294.534C345.305 300.573 348.78 305.974 353.732 309.899C360.076 305.567 366.173 300.905 371.996 295.932V274.54Z" fill="white"/>
<path d="M420.098 346.262C413.669 352.257 382.794 353.36 367.041 338.815C368.55 328.539 368.043 317.543 367.041 306.666C366.039 295.79 359.474 276.757 371.995 274.54C388.717 271.373 399.639 271.624 410.82 277.728C422.744 297.024 421.123 325.853 420.098 346.262Z" fill="#455A64"/>
<path d="M420.098 346.262C413.669 352.257 382.794 353.36 367.041 338.815C368.55 328.539 368.043 317.543 367.041 306.666C366.039 295.79 359.474 276.757 371.995 274.54C388.717 271.373 399.639 271.624 410.82 277.728C422.744 297.024 421.123 325.853 420.098 346.262Z" fill="#455A64"/>
<path opacity="0.2" d="M420.098 346.262C413.669 352.257 382.794 353.36 367.041 338.815C368.55 328.539 368.043 317.543 367.041 306.666C366.039 295.79 359.474 276.757 371.995 274.54C388.717 271.373 399.639 271.624 410.82 277.728C422.744 297.024 421.123 325.853 420.098 346.262Z" fill="white"/>
<path d="M395.226 359.181C395.253 359.336 395.253 359.495 395.226 359.65C395.184 359.778 395.123 359.9 395.045 360.011C394.949 360.141 394.84 360.262 394.719 360.371C394.564 360.498 394.398 360.611 394.224 360.71L367.706 375.648C367.463 375.781 367.206 375.891 366.941 375.976L366.648 376.063L366.265 376.161L365.792 376.238H365.679H365.038H364.824C364.614 376.249 364.403 376.249 364.193 376.238H364.092C363.884 376.217 363.677 376.184 363.472 376.139H363.36L362.831 375.987H362.729C362.526 375.913 362.33 375.822 362.144 375.714L318.387 351.22C318.212 351.121 318.047 351.008 317.892 350.882L317.768 350.75C317.687 350.672 317.611 350.588 317.543 350.499C317.509 350.447 317.478 350.392 317.453 350.336C317.401 350.261 317.359 350.18 317.329 350.095C317.323 350.037 317.323 349.979 317.329 349.921C317.323 349.841 317.323 349.76 317.329 349.68V351.187C317.323 351.267 317.323 351.348 317.329 351.428C317.341 351.577 317.395 351.721 317.487 351.842C317.512 351.899 317.542 351.954 317.577 352.006C317.643 352.094 317.718 352.175 317.802 352.247C317.84 352.293 317.882 352.336 317.926 352.378C318.077 352.511 318.243 352.628 318.421 352.727L362.178 377.221C362.364 377.329 362.56 377.42 362.763 377.494H362.864L363.394 377.646H363.506C363.711 377.691 363.917 377.723 364.126 377.745H364.227C364.437 377.756 364.647 377.756 364.857 377.745H364.97H365.612H365.724L366.197 377.657L366.58 377.57L366.873 377.483C367.139 377.398 367.395 377.288 367.639 377.155L394.1 362.293C394.274 362.198 394.44 362.088 394.595 361.965C394.713 361.853 394.822 361.733 394.922 361.605C395 361.494 395.06 361.373 395.102 361.245C395.118 361.129 395.118 361.011 395.102 360.895V359.257L395.226 359.181Z" fill="#E0E0E0"/>
<path opacity="0.2" d="M395.226 359.181C395.253 359.336 395.253 359.495 395.226 359.65C395.184 359.778 395.123 359.9 395.045 360.011C394.949 360.141 394.84 360.262 394.719 360.371C394.564 360.498 394.398 360.611 394.224 360.71L367.706 375.648C367.463 375.781 367.206 375.891 366.941 375.976L366.648 376.063L366.265 376.161L365.792 376.238H365.679H365.038H364.824C364.614 376.249 364.403 376.249 364.193 376.238H364.092C363.884 376.217 363.677 376.184 363.472 376.139H363.36L362.831 375.987H362.729C362.526 375.913 362.33 375.822 362.144 375.714L318.387 351.22C318.212 351.121 318.047 351.008 317.892 350.882L317.768 350.75C317.687 350.672 317.611 350.588 317.543 350.499C317.509 350.447 317.478 350.392 317.453 350.336C317.401 350.261 317.359 350.18 317.329 350.095C317.323 350.037 317.323 349.979 317.329 349.921C317.323 349.841 317.323 349.76 317.329 349.68V351.187C317.323 351.267 317.323 351.348 317.329 351.428C317.341 351.577 317.395 351.721 317.487 351.842C317.512 351.899 317.542 351.954 317.577 352.006C317.643 352.094 317.718 352.175 317.802 352.247C317.84 352.293 317.882 352.336 317.926 352.378C318.077 352.511 318.243 352.628 318.421 352.727L362.178 377.221C362.364 377.329 362.56 377.42 362.763 377.494H362.864L363.394 377.646H363.506C363.711 377.691 363.917 377.723 364.126 377.745H364.227C364.437 377.756 364.647 377.756 364.857 377.745H364.97H365.612H365.724L366.197 377.657L366.58 377.57L366.873 377.483C367.139 377.398 367.395 377.288 367.639 377.155L394.1 362.293C394.274 362.198 394.44 362.088 394.595 361.965C394.713 361.853 394.822 361.733 394.922 361.605C395 361.494 395.06 361.373 395.102 361.245C395.118 361.129 395.118 361.011 395.102 360.895V359.257L395.226 359.181Z" fill="black"/>
<path d="M317.273 350.117C317.303 350.202 317.345 350.283 317.397 350.357C317.422 350.414 317.453 350.469 317.487 350.521C317.555 350.61 317.631 350.694 317.712 350.772L317.836 350.903C317.991 351.03 318.157 351.143 318.331 351.242L362.088 375.735C362.274 375.844 362.47 375.935 362.673 376.008H362.775L363.304 376.161H363.417C363.621 376.205 363.828 376.238 364.036 376.259H364.137C364.347 376.271 364.558 376.271 364.768 376.259H364.88H365.522H365.635L366.108 376.183L366.491 376.085L366.783 375.997C367.049 375.913 367.305 375.803 367.549 375.67L394.1 360.797C394.275 360.698 394.441 360.585 394.595 360.458C394.716 360.349 394.826 360.228 394.922 360.098C395 359.987 395.061 359.866 395.102 359.738C395.13 359.582 395.13 359.423 395.102 359.268C395.054 358.954 394.925 358.657 394.729 358.404C394.532 358.15 394.273 357.948 393.976 357.816L350.22 333.322C349.379 332.902 348.446 332.684 347.5 332.684C346.555 332.684 345.622 332.902 344.781 333.322L318.32 348.173C318.011 348.311 317.745 348.524 317.547 348.792C317.35 349.06 317.228 349.374 317.194 349.702C317.188 349.782 317.188 349.862 317.194 349.942C317.213 350.003 317.24 350.062 317.273 350.117Z" fill="#E0E0E0"/>
<path d="M320.91 349.702L363.428 373.464L363.586 373.541H363.687L364.013 373.639H364.25H364.408H364.824C364.97 373.649 365.117 373.649 365.263 373.639H365.545L365.883 373.551C365.985 373.523 366.083 373.482 366.175 373.431L379.89 365.82L335.976 341.239L320.91 349.702Z" fill="#E0E0E0"/>
<path d="M361.356 343.161L353.361 347.726C353.237 347.793 353.133 347.891 353.061 348.01C352.989 348.129 352.951 348.265 352.951 348.403C352.951 348.541 352.989 348.676 353.061 348.795C353.133 348.914 353.237 349.012 353.361 349.08L365.319 355.774C365.523 355.889 365.754 355.949 365.989 355.949C366.225 355.949 366.456 355.889 366.659 355.774L374.654 351.22C374.775 351.15 374.876 351.051 374.946 350.933C375.016 350.814 375.052 350.68 375.052 350.543C375.052 350.406 375.016 350.272 374.946 350.153C374.876 350.034 374.775 349.935 374.654 349.866L362.696 343.161C362.492 343.046 362.261 342.985 362.026 342.985C361.79 342.985 361.559 343.046 361.356 343.161Z" fill="#E0E0E0"/>
<path opacity="0.4" d="M320.91 349.702L363.428 373.464L363.586 373.541H363.687L364.013 373.639H364.25H364.408H364.824C364.97 373.649 365.117 373.649 365.263 373.639H365.545L365.883 373.551C365.985 373.523 366.083 373.482 366.175 373.431L379.89 365.82L335.976 341.239L320.91 349.702Z" fill="black"/>
<path opacity="0.4" d="M361.356 343.161L353.361 347.726C353.237 347.793 353.133 347.891 353.061 348.01C352.989 348.129 352.951 348.265 352.951 348.403C352.951 348.541 352.989 348.676 353.061 348.795C353.133 348.914 353.237 349.012 353.361 349.08L365.319 355.774C365.523 355.889 365.754 355.949 365.989 355.949C366.225 355.949 366.456 355.889 366.659 355.774L374.654 351.22C374.775 351.15 374.876 351.051 374.946 350.933C375.016 350.814 375.052 350.68 375.052 350.543C375.052 350.406 375.016 350.272 374.946 350.153C374.876 350.034 374.775 349.935 374.654 349.866L362.696 343.161C362.492 343.046 362.261 342.985 362.026 342.985C361.79 342.985 361.559 343.046 361.356 343.161Z" fill="black"/>
<path d="M364.553 374.217L360.049 346.284C359.929 345.526 359.634 344.804 359.188 344.171C358.742 343.538 358.155 343.01 357.471 342.626L313.388 317.772C313.218 317.679 313.029 317.624 312.834 317.611C312.639 317.598 312.444 317.627 312.262 317.696L311.215 318.198L311.564 318.329C311.446 318.563 311.407 318.826 311.451 319.082L315.955 347.027C316.078 347.783 316.373 348.502 316.819 349.133C317.265 349.765 317.851 350.291 318.534 350.674L362.572 375.528C362.665 375.577 362.763 375.617 362.864 375.648V376.052L363.878 375.572C364.124 375.444 364.322 375.244 364.443 375.001C364.564 374.758 364.603 374.483 364.553 374.217Z" fill="#E0E0E0"/>
<path opacity="0.3" d="M364.553 374.217L360.049 346.284C359.929 345.526 359.634 344.804 359.188 344.171C358.742 343.538 358.155 343.01 357.471 342.626L313.388 317.772C313.218 317.679 313.029 317.624 312.834 317.611C312.639 317.598 312.444 317.627 312.262 317.696L311.215 318.198L311.564 318.329C311.446 318.563 311.407 318.826 311.451 319.082L315.955 347.027C316.078 347.783 316.373 348.502 316.819 349.133C317.265 349.765 317.851 350.291 318.534 350.674L362.572 375.528C362.665 375.577 362.763 375.617 362.864 375.648V376.052L363.878 375.572C364.124 375.444 364.322 375.244 364.443 375.001C364.564 374.758 364.603 374.483 364.553 374.217Z" fill="black"/>
<path d="M356.558 343.052L312.497 318.209C312.28 318.085 312.03 318.025 311.778 318.033C311.526 318.042 311.282 318.121 311.074 318.259C310.866 318.398 310.703 318.591 310.604 318.816C310.506 319.041 310.475 319.289 310.516 319.53L315.02 347.463C315.148 348.22 315.446 348.94 315.894 349.573C316.341 350.205 316.927 350.734 317.609 351.122L361.67 375.965C361.888 376.088 362.137 376.149 362.389 376.14C362.641 376.131 362.885 376.053 363.093 375.914C363.301 375.776 363.464 375.582 363.563 375.357C363.662 375.132 363.692 374.885 363.652 374.643L359.148 346.71C359.023 345.952 358.725 345.231 358.277 344.598C357.829 343.965 357.242 343.437 356.558 343.052Z" fill="#E0E0E0"/>
<path d="M335.209 343.772C336.326 344.452 337.289 345.345 338.04 346.396C338.791 347.447 339.314 348.635 339.578 349.888C339.871 352.072 338.385 352.88 336.2 351.679C335.084 351.001 334.121 350.11 333.37 349.061C332.619 348.012 332.096 346.826 331.831 345.574C331.584 343.39 333.081 342.593 335.209 343.772Z" fill="white"/>
<path d="M430.187 325.787L425.458 308.73L408.872 312.312L412.847 325.536L388.537 342.276L380.362 345.618C378.197 346.502 376.324 347.945 374.946 349.789L368.28 358.744C368.223 358.863 368.2 358.995 368.212 359.126C368.249 359.364 368.356 359.586 368.52 359.765C368.685 359.944 368.9 360.073 369.139 360.136C369.378 360.199 369.631 360.192 369.866 360.118C370.102 360.043 370.31 359.903 370.464 359.716C371.939 358.078 373.178 356.56 374.721 355.129L370.791 360.273C370.67 360.446 370.586 360.641 370.546 360.847C370.505 361.052 370.508 361.264 370.554 361.468C370.6 361.672 370.689 361.865 370.815 362.035C370.941 362.205 371.101 362.349 371.286 362.457C371.731 362.714 372.208 362.916 372.705 363.057C373.668 363.294 374.676 363.296 375.639 363.061C376.602 362.827 377.49 362.364 378.223 361.714L383.368 357.139L384.787 356.658C388.945 355.235 392.553 352.609 395.124 349.134L423.623 338.4C426.13 337.455 428.188 335.644 429.4 333.315C430.613 330.986 430.893 328.305 430.187 325.787Z" fill="#FFA8A7"/>
<path opacity="0.3" d="M430.187 325.787L425.458 308.73L408.872 312.312L412.847 325.536L388.537 342.276L380.362 345.618C378.197 346.502 376.324 347.945 374.946 349.789L368.28 358.744C368.223 358.863 368.2 358.995 368.212 359.126C368.249 359.364 368.356 359.586 368.52 359.765C368.685 359.944 368.9 360.073 369.139 360.136C369.378 360.199 369.631 360.192 369.866 360.118C370.102 360.043 370.31 359.903 370.464 359.716C371.939 358.078 373.178 356.56 374.721 355.129L370.791 360.273C370.67 360.446 370.586 360.641 370.546 360.847C370.505 361.052 370.508 361.264 370.554 361.468C370.6 361.672 370.689 361.865 370.815 362.035C370.941 362.205 371.101 362.349 371.286 362.457C371.731 362.714 372.208 362.916 372.705 363.057C373.668 363.294 374.676 363.296 375.639 363.061C376.602 362.827 377.49 362.364 378.223 361.714L383.368 357.139L384.787 356.658C388.945 355.235 392.553 352.609 395.124 349.134L423.623 338.4C426.13 337.455 428.188 335.644 429.4 333.315C430.613 330.986 430.893 328.305 430.187 325.787Z" fill="black"/>
<path d="M428.06 310.958L427.553 308.697C421.529 282.14 416.721 280.251 408.648 276.615C400.766 283.254 402.106 294.545 402.106 294.545L409.143 314.976L409.357 315.566C412.634 316.066 415.981 315.916 419.196 315.124C422.411 314.332 425.427 312.914 428.06 310.958Z" fill="#455A64"/>
<path opacity="0.3" d="M428.06 310.958L427.553 308.697C421.529 282.14 416.721 280.251 408.648 276.615C400.766 283.254 402.106 294.545 402.106 294.545L409.143 314.976L409.357 315.566C412.634 316.066 415.981 315.916 419.196 315.124C422.411 314.332 425.427 312.914 428.06 310.958Z" fill="white"/>
<path d="M397.41 255.364C399.089 250.55 399.975 245.508 400.034 240.426C400.034 237.717 399.752 234.758 397.782 232.782C395.428 230.445 391.397 230.467 388.391 231.941C385.384 233.415 383.177 236.025 381.061 238.558C382.103 242.981 383.659 247.274 385.7 251.357C386.758 253.344 388.042 255.364 390.091 256.38C392.14 257.395 395.586 256.74 397.41 255.364Z" fill="#455A64"/>
<path d="M382.534 286.563C378.492 289.042 373.245 284.444 377.94 277.739C377.97 277.705 377.99 277.664 377.997 277.619V266.448L393.243 258.291L393.592 273.218C391.959 277.838 386.047 284.401 382.534 286.563Z" fill="#FFA8A7"/>
<path opacity="0.3" d="M382.534 286.563C378.492 289.042 373.245 284.444 377.94 277.739C377.97 277.705 377.99 277.664 377.997 277.619V266.448L393.243 258.291L393.592 273.218C391.959 277.838 386.047 284.401 382.534 286.563Z" fill="black"/>
<path opacity="0.2" d="M385.845 270.019C383.3 271.209 380.125 272.41 377.963 273.186V266.448L393.209 258.291C393.119 265.684 390.079 268.031 385.845 270.019Z" fill="black"/>
<path d="M364.687 237.794C364.122 245.152 364.228 252.545 365.003 259.885C365.159 261.394 365.638 262.855 366.409 264.175C367.179 265.495 368.225 266.645 369.48 267.551C370.734 268.457 372.169 269.1 373.693 269.438C375.218 269.776 376.799 269.803 378.334 269.517C380.834 269.014 383.221 268.425 385.248 267.911C387.049 267.437 388.686 266.502 389.985 265.203C391.285 263.904 392.2 262.29 392.635 260.529L393.198 258.258C393.868 259.072 394.8 259.644 395.846 259.882C396.892 260.119 397.99 260.009 398.963 259.568C399.939 259.126 400.785 258.453 401.424 257.612C402.064 256.771 402.475 255.788 402.622 254.753C402.815 253.732 402.722 252.68 402.352 251.706C401.964 250.74 401.206 249.957 400.235 249.522C399.342 249.223 398.376 249.198 397.467 249.45C396.559 249.702 395.752 250.219 395.157 250.931C393.986 252.377 393.274 254.122 393.108 255.954C390.298 252.888 388.856 248.867 389.099 244.772C387.675 244.627 386.359 243.973 385.406 242.937C385.008 242.422 384.72 241.835 384.557 241.211C384.395 240.587 384.362 239.938 384.46 239.301C378.503 242.195 370.284 241.408 364.687 237.794Z" fill="#FFA8A7"/>
<path opacity="0.3" d="M364.687 237.794C364.122 245.152 364.228 252.545 365.003 259.885C365.159 261.394 365.638 262.855 366.409 264.175C367.179 265.495 368.225 266.645 369.48 267.551C370.734 268.457 372.169 269.1 373.693 269.438C375.218 269.776 376.799 269.803 378.334 269.517C380.834 269.014 383.221 268.425 385.248 267.911C387.049 267.437 388.686 266.502 389.985 265.203C391.285 263.904 392.2 262.29 392.635 260.529L393.198 258.258C393.868 259.072 394.8 259.644 395.846 259.882C396.892 260.119 397.99 260.009 398.963 259.568C399.939 259.126 400.785 258.453 401.424 257.612C402.064 256.771 402.475 255.788 402.622 254.753C402.815 253.732 402.722 252.68 402.352 251.706C401.964 250.74 401.206 249.957 400.235 249.522C399.342 249.223 398.376 249.198 397.467 249.45C396.559 249.702 395.752 250.219 395.157 250.931C393.986 252.377 393.274 254.122 393.108 255.954C390.298 252.888 388.856 248.867 389.099 244.772C387.675 244.627 386.359 243.973 385.406 242.937C385.008 242.422 384.72 241.835 384.557 241.211C384.395 240.587 384.362 239.938 384.46 239.301C378.503 242.195 370.284 241.408 364.687 237.794Z" fill="black"/>
<path d="M375.329 250.155L370.037 256.38L374.901 258.04L375.329 250.155Z" fill="#F28F8F"/>
<path opacity="0.3" d="M375.329 250.155L370.037 256.38L374.901 258.04L375.329 250.155Z" fill="black"/>
<path d="M379.337 261.13L375.25 262.342C375.509 262.811 375.919 263.184 376.416 263.407C376.914 263.63 377.473 263.689 378.009 263.576C378.487 263.38 378.881 263.029 379.123 262.583C379.365 262.137 379.441 261.624 379.337 261.13Z" fill="#F28F8F"/>
<path opacity="0.4" d="M379.337 261.13L375.25 262.342C375.509 262.811 375.919 263.184 376.416 263.407C376.914 263.63 377.473 263.689 378.009 263.576C378.487 263.38 378.881 263.029 379.123 262.583C379.365 262.137 379.441 261.624 379.337 261.13Z" fill="black"/>
<path d="M376.668 263.5C377.098 263.649 377.563 263.676 378.008 263.576C378.386 263.437 378.714 263.193 378.95 262.875C379.186 262.556 379.321 262.177 379.337 261.785C378.791 261.704 378.233 261.8 377.749 262.058C377.21 262.385 376.822 262.901 376.668 263.5Z" fill="#F28F8F"/>
<path d="M382.536 251.52C382.52 251.798 382.419 252.066 382.247 252.288C382.074 252.511 381.838 252.679 381.567 252.771C381.296 252.863 381.003 252.876 380.725 252.807C380.447 252.737 380.196 252.59 380.004 252.383C379.812 252.175 379.688 251.918 379.648 251.642C379.607 251.366 379.651 251.085 379.775 250.834C379.899 250.583 380.097 250.373 380.344 250.231C380.59 250.089 380.875 250.021 381.162 250.035C381.353 250.045 381.54 250.091 381.712 250.171C381.885 250.251 382.039 250.363 382.167 250.501C382.294 250.639 382.393 250.8 382.456 250.975C382.519 251.15 382.546 251.335 382.536 251.52Z" fill="#263238"/>
<path d="M370.374 250.428C370.36 250.707 370.262 250.975 370.09 251.199C369.919 251.424 369.683 251.593 369.412 251.687C369.142 251.781 368.848 251.795 368.569 251.727C368.29 251.659 368.038 251.512 367.846 251.305C367.653 251.098 367.528 250.841 367.486 250.565C367.444 250.289 367.488 250.007 367.612 249.755C367.736 249.503 367.934 249.293 368.181 249.15C368.428 249.008 368.713 248.939 369 248.954C369.384 248.974 369.744 249.14 370.001 249.416C370.258 249.693 370.393 250.056 370.374 250.428Z" fill="#263238"/>
<path d="M369.326 244.761L365.948 246.792C365.83 246.397 365.838 245.976 365.973 245.585C366.108 245.195 366.363 244.854 366.703 244.608C367.109 244.387 367.573 244.284 368.038 244.311C368.503 244.338 368.95 244.494 369.326 244.761Z" fill="#263238"/>
<path d="M381.713 245.23L384.821 247.556C384.966 247.184 384.996 246.779 384.906 246.391C384.815 246.002 384.61 245.648 384.314 245.372C383.935 245.12 383.493 244.974 383.034 244.949C382.575 244.924 382.118 245.021 381.713 245.23Z" fill="#263238"/>
<path d="M385.158 238.799C384.984 239.795 384.496 240.714 383.762 241.43C383.384 241.788 382.937 242.069 382.445 242.256C381.954 242.444 381.429 242.534 380.902 242.522C380.37 242.512 379.85 242.372 379.389 242.114C378.928 241.856 378.542 241.489 378.267 241.048C377.88 241.567 377.359 241.976 376.755 242.235C376.152 242.494 375.488 242.593 374.833 242.522C374.144 242.469 373.48 242.249 372.902 241.883C372.324 241.517 371.849 241.016 371.522 240.426C371.079 241.048 370.454 241.528 369.728 241.805C369.002 242.081 368.207 242.141 367.446 241.976C366.706 241.788 366.043 241.385 365.545 240.821C365.048 240.257 364.741 239.559 364.665 238.82C363.431 239.119 362.126 238.939 361.028 238.318C360.487 238.001 360.042 237.552 359.738 237.015C359.433 236.478 359.28 235.873 359.294 235.261C359.33 234.653 359.57 234.074 359.976 233.611C360.383 233.148 360.934 232.826 361.546 232.694C361.186 231.967 361.084 231.144 361.255 230.355C361.426 229.565 361.861 228.852 362.492 228.326C363.133 227.814 363.934 227.525 364.766 227.507C365.597 227.489 366.41 227.743 367.074 228.228C367.09 227.696 367.26 227.18 367.565 226.737C367.869 226.295 368.297 225.945 368.797 225.727C369.307 225.53 369.864 225.479 370.403 225.58C370.942 225.68 371.44 225.929 371.837 226.295C371.942 225.367 372.344 224.495 372.989 223.802C373.633 223.108 374.486 222.629 375.426 222.432C376.367 222.235 377.348 222.33 378.229 222.704C379.111 223.078 379.849 223.712 380.339 224.515C380.709 223.894 381.251 223.386 381.904 223.048C382.557 222.711 383.294 222.557 384.032 222.604C384.744 222.658 385.424 222.911 385.992 223.331C386.559 223.752 386.989 224.322 387.23 224.974C387.761 224.193 388.531 223.593 389.433 223.26C390.335 222.928 391.321 222.879 392.253 223.12C393.185 223.362 394.015 223.882 394.625 224.607C395.235 225.331 395.595 226.224 395.652 227.158C396.208 226.701 396.924 226.469 397.651 226.509C398.378 226.55 399.062 226.86 399.56 227.376C400.026 227.921 400.307 228.592 400.365 229.297C400.424 230.003 400.257 230.709 399.886 231.318C399.499 231.915 398.974 232.416 398.352 232.782C397.731 233.148 397.03 233.368 396.305 233.426C396.64 234.229 396.663 235.122 396.371 235.94C396.079 236.758 395.491 237.446 394.717 237.876C393.942 238.307 393.033 238.45 392.157 238.28C391.282 238.111 390.499 237.639 389.955 236.953C390.033 237.545 389.903 238.144 389.586 238.655C389.269 239.167 388.784 239.559 388.209 239.77C387.663 239.971 387.062 239.984 386.507 239.807C385.951 239.631 385.475 239.274 385.158 238.799Z" fill="#263238"/>
</svg>
